<svg width="152" height="221" viewBox="0 0 152 221" fill="none" xmlns="http://www.w3.org/2000/svg">
<g id="OBJECTS" clip-path="url(#clip0_934_4274)">
<g id="Group">
<path id="Vector" d="M94.9516 86.637C101.767 78.0928 101.932 66.2523 97.4545 56.8266C91.042 43.3365 74.0009 35.4937 58.2601 39.9671C32.8872 49.2387 36.9113 84.6372 59.918 94.0405C67.228 97.0223 75.6526 97.3289 82.9293 94.8644C82.7251 93.5977 84.6902 92.6298 85.3801 93.9124C89.0801 92.2702 92.391 89.8554 94.9655 86.6368L94.9516 86.637ZM83.9674 91.8131C67.7916 98.9615 49.3077 88.8943 44.9091 74.083C41.3393 62.0362 45.2936 47.4071 59.0407 42.3802C75.3332 37.7455 91.9911 47.3314 96.4376 61.7392C99.9083 72.945 96.2506 86.3861 83.9674 91.8131Z" fill="#A3C150"/>
<path id="Vector_2" d="M130.079 179.051C140.024 174.661 143.313 164.473 145.624 153.938C149.62 135.635 151.536 117.308 148.315 98.7636C143.351 70.1758 125.512 39.1389 94.9939 27.1098C81.6631 21.8514 66.5339 20.514 53.0055 26.1029C39.5598 31.665 30.1982 42.7103 25.021 55.0102C12.5958 84.5297 23.9774 117.336 44.8693 141.095C54.2383 151.762 66.2013 160.241 78.8894 167.462C91.5494 174.657 106.819 181.993 122.267 181.085C124.149 180.873 125.862 180.501 127.448 180.019C136.207 191.427 143.165 203.686 148.267 216.811C148.85 218.335 151.527 217.618 150.93 216.094C145.799 202.907 138.839 190.547 130.079 179.051ZM126.088 179.227C125.872 178.803 125.656 178.392 125.44 177.968C124.418 178.214 123.354 178.435 122.219 178.557C120.46 178.666 118.712 178.636 116.976 178.53C117.541 179.048 116.627 179.883 115.966 179.38C115.502 179.036 115.079 178.679 114.642 178.323C108.818 177.665 103.127 175.961 97.6772 173.787C97.7914 173.961 97.8918 174.135 98.0061 174.309C98.4491 175.005 97.2689 175.669 96.8256 174.961C96.3966 174.277 95.9676 173.593 95.5384 172.897C92.2106 171.475 88.9911 169.913 85.8957 168.311C84.9853 167.837 84.0746 167.351 83.1777 166.865C83.2518 167.115 83.3123 167.378 83.4002 167.628C83.6644 168.403 82.3257 168.756 82.0756 167.993C81.8546 167.305 81.6615 166.63 81.4682 165.941C77.754 163.885 74.1206 161.702 70.5816 159.379C70.5744 159.731 70.5672 160.084 70.5597 160.423C70.5472 161.229 69.1607 161.255 69.1733 160.449C69.1889 159.808 69.2038 159.128 69.219 158.461C66.9994 156.968 64.8205 155.424 62.6961 153.829C62.6703 153.93 62.6583 154.031 62.6323 154.12C62.467 154.915 61.1157 154.601 61.2949 153.805C61.3585 153.502 61.4221 153.199 61.4998 152.908C60.0925 151.828 58.6847 150.722 57.3321 149.603C56.8672 149.222 56.416 148.828 55.9508 148.434C55.5857 148.931 54.5395 148.611 54.7067 147.916C54.7454 147.765 54.7842 147.613 54.8229 147.461C53.4264 146.217 52.0566 144.922 50.7141 143.601C50.312 143.609 49.8765 143.315 49.9648 142.848C48.5367 141.403 47.149 139.895 45.8163 138.36C45.4413 138.329 45.1033 138.059 45.2066 137.655C43.9017 136.119 42.6378 134.558 41.4149 132.958C41.1521 133.731 39.8008 133.417 40.0775 132.644C40.1961 132.315 40.3286 131.985 40.461 131.656C39.8487 130.812 39.2364 129.968 38.6514 129.098C38.1704 129.334 37.4256 128.819 37.7195 128.223C37.773 128.121 37.8268 128.032 37.8668 127.943C36.1682 125.396 34.5931 122.772 33.1418 120.095C33.1281 120.107 33.1147 120.133 33.1011 120.146C32.6005 120.809 31.3962 120.203 31.8969 119.539C32.0863 119.284 32.2618 119.029 32.4514 118.787C31.5736 117.105 30.7508 115.397 29.9833 113.676C29.3667 114.077 28.5196 113.288 29.0918 112.736C29.2008 112.634 29.3093 112.506 29.4183 112.403C27.7501 108.522 26.3717 104.561 25.2973 100.543C25.2005 100.557 25.1034 100.559 25.0068 100.586C24.1362 100.754 23.7391 99.5534 24.6097 99.386C24.734 99.3585 24.8586 99.3436 24.9831 99.3286C24.4731 97.2878 24.0321 95.2331 23.6741 93.1642C23.5909 93.1658 23.5077 93.1673 23.425 93.1941C21.6813 93.4031 21.6358 90.9886 23.2948 90.7057C22.7322 86.6154 22.5163 82.5186 22.6751 78.4398C23.7062 50.7453 44.9914 20.3542 79.4153 25.4789C95.9387 27.9348 109.579 36.3826 120.164 47.5548C120.578 47.4212 121.006 47.3 121.448 47.2036C123.173 46.781 123.954 49.1942 122.228 49.6167C122.173 49.6177 122.132 49.6437 122.09 49.657C122.969 50.6468 123.82 51.6497 124.658 52.678C124.876 52.4978 125.095 52.3175 125.313 52.1373C125.969 51.5966 126.97 52.4583 126.315 53.0116C126.028 53.2434 125.755 53.475 125.468 53.7068C128.068 57.004 130.422 60.4567 132.556 64.0268C133.433 64.2366 134.312 64.4968 135.178 64.795C136.001 65.0814 135.664 66.2954 134.826 66.0093C134.379 65.8541 133.919 65.7119 133.473 65.5819C134.95 68.1706 136.303 70.7994 137.546 73.4554C138.705 73.8486 139.809 74.2933 140.845 74.8398C141.616 75.2404 140.943 76.3475 140.173 75.9343C139.57 75.6186 138.941 75.3412 138.284 75.0894C138.893 76.4742 139.488 77.8593 140.027 79.2581C145.738 93.793 147.762 109.165 147.192 124.535C147.376 124.733 147.56 124.931 147.731 125.154C148.1 125.612 147.623 126.062 147.138 126.071C147.029 128.375 146.85 130.693 146.63 132.987C146.363 135.759 145.972 138.559 145.525 141.335C145.737 141.52 145.962 141.692 146.201 141.851C146.89 142.328 145.99 143.188 145.289 142.786C144.315 148.465 143.007 154.126 141.516 159.651C139.403 167.515 135.744 174.252 128.13 177.188C128.259 177.437 128.389 177.686 128.518 177.935C129.267 179.393 126.892 180.708 126.144 179.251L126.088 179.227Z" fill="#A3C150"/>
<path id="Vector_3" d="M128.462 177.924C128.333 177.675 128.203 177.425 128.074 177.176C121.522 164.406 114.985 151.648 108.433 138.877C113.367 135.727 117.633 131.76 120.849 127.233C125.773 127.971 130.296 130.98 134.337 133.47C136.582 134.862 138.747 136.368 140.638 138.131C142.206 139.611 143.365 141.489 145.177 142.738C145.191 142.738 145.219 142.75 145.233 142.762C145.934 143.164 146.834 142.304 146.145 141.827C145.906 141.668 145.681 141.496 145.47 141.311C143.765 139.909 142.48 137.971 140.816 136.518C140.548 136.284 140.267 136.063 139.985 135.829C140.095 135.777 140.191 135.712 140.258 135.585C142.464 131.958 143.958 128.106 144.783 124.052C145.403 124.556 145.969 125.124 146.494 125.768C146.65 125.967 146.874 126.038 147.082 126.034C147.581 126.025 148.044 125.576 147.674 125.117C147.504 124.894 147.32 124.696 147.136 124.498C144.982 122.099 142.098 120.656 138.794 119.737C134.639 118.583 129.847 117.478 125.493 118.302C127.281 113.098 127.717 107.517 126.362 101.857C124.359 93.4791 118.704 86.3148 116.205 78.0846C115.687 76.3836 115.321 74.6167 115.135 72.8465C122.327 72.497 131.366 72.3014 138.214 75.0529C138.857 75.3176 139.486 75.5825 140.103 75.8979C140.873 76.2985 141.56 75.2037 140.775 74.8034C139.739 74.2568 138.621 73.8125 137.476 73.4189C135.689 72.8111 133.795 72.3814 131.833 72.0661C131.833 72.0536 131.833 72.0284 131.832 72.0158C131.479 69.4689 130.726 67.0552 129.628 64.711C130.88 64.9012 132.147 65.1666 133.403 65.5455C133.863 65.6752 134.309 65.8177 134.756 65.9728C135.594 66.259 135.931 65.0324 135.108 64.7586C134.228 64.4607 133.363 64.2002 132.486 63.9904C126.814 62.6004 121.108 62.9973 115.774 65.5132C116.062 64.602 116.405 63.6898 116.874 62.8256C118.831 59.2035 122.134 56.3611 125.398 53.683C125.685 53.4512 125.958 53.2196 126.245 52.9877C126.914 52.4468 125.913 51.5725 125.244 52.1135C125.025 52.2937 124.806 52.4739 124.588 52.6542C118.921 57.3526 113.994 62.3516 113.619 69.6925C113.206 77.9273 117.743 85.3518 121.32 92.6182C125.488 101.119 127.205 109.779 123.908 118.835C122.972 121.407 121.7 123.821 120.162 126.089C120.052 126.179 119.985 126.281 119.946 126.395C116.826 130.844 112.653 134.659 107.857 137.718C106.518 135.114 105.179 132.51 103.853 129.894C104.257 129.987 104.714 129.928 105.11 129.593C109.739 125.72 114.446 121.593 116.114 115.888C117.951 109.601 115.967 102.959 113.553 97.0669C110.442 89.452 106.855 82.4122 107.474 74.0603C108.185 64.6751 110.369 52.5324 122.02 49.608C122.076 49.607 122.117 49.5811 122.158 49.5677C123.884 49.1452 123.103 46.7321 121.377 47.1546C120.936 47.2635 120.522 47.3846 120.094 47.5058C106.885 51.6295 103.883 67.4735 104.648 78.6548C105.165 86.1802 109.063 92.8242 111.692 99.8443C113.517 104.716 114.909 110.137 113.397 115.26C111.846 120.522 107.326 124.293 103.08 127.845C102.998 127.922 102.958 127.999 102.89 128.075C97.0438 116.675 91.1977 105.275 85.3519 93.8878C85.3519 93.8878 85.3517 93.8752 85.3376 93.8629C84.6476 92.5802 82.6823 93.5356 82.8867 94.8149C82.903 94.9404 82.9192 95.0658 82.9912 95.2029C88.9381 106.802 94.8991 118.414 100.846 130.013C100.666 130.042 100.473 130.108 100.295 130.238C91.3371 136.193 80.813 130.467 73.0096 125.595C64.7291 120.43 60.8352 113.257 56.0301 105.574C52.9983 100.725 49.3708 95.9125 44.0852 92.905C37.72 89.2764 30.4895 89.7775 23.3211 90.6298C23.2934 90.6303 23.2659 90.6434 23.2384 90.6565C21.5794 90.9394 21.6249 93.3538 23.3686 93.1448C23.4517 93.1432 23.5347 93.1291 23.6176 93.1149C35.3951 91.7606 44.0853 93.6472 51.0433 102.963C55.7102 109.203 58.5102 116.471 64.1781 122.101C72.5741 130.446 89.8061 140.323 101.751 132.386C101.833 132.322 101.915 132.27 101.983 132.193C103.149 134.473 104.316 136.753 105.482 139.034C98.1776 144.43 88.0875 145.538 79.2189 143.013C69.9737 140.383 62.5033 134.045 57.2497 126.848C53.2065 121.326 49.4992 113.018 44.2242 106.891C44.1793 106.716 44.0378 106.567 43.8556 106.47C39.1936 101.224 33.3024 97.7251 24.9262 99.2542C24.8019 99.2817 24.6771 99.2841 24.5528 99.3116C23.6822 99.479 24.0796 100.692 24.9499 100.512C25.0468 100.497 25.1436 100.483 25.2404 100.469C29.8708 99.6264 33.9134 100.707 37.407 102.83C33.961 105.436 32.3425 109.342 29.3753 112.329C29.2665 112.444 29.1716 112.559 29.0487 112.662C28.4627 113.214 29.3098 114.003 29.9402 113.601C29.9813 113.575 30.0227 113.562 30.05 113.536C33.2658 110.494 34.821 106.175 38.5583 103.576C39.9776 104.556 41.2891 105.701 42.5054 106.948C38.3788 110.234 35.4372 114.579 32.4083 118.712C32.219 118.967 32.0435 119.222 31.8539 119.465C31.3534 120.141 32.5715 120.747 33.0581 120.071C33.0717 120.058 33.0851 120.033 33.0987 120.02C36.2368 115.797 39.1756 111.301 43.3969 107.888C44.4734 109.075 45.4543 110.34 46.3522 111.618C46.155 111.459 45.8906 111.413 45.603 111.607C41.1685 114.748 37.6776 118.65 35.296 123.274C34.9216 124.011 36.1258 124.617 36.5003 123.881C38.7888 119.472 42.0875 115.674 46.3305 112.675C46.6317 112.469 46.6535 112.154 46.5517 111.904C47.35 113.046 48.0789 114.19 48.7382 115.322C50.5581 118.42 52.3079 121.482 54.2225 124.452C53.9691 124.256 53.5938 124.212 53.3079 124.494C49.4671 128.228 46.7344 132.619 45.1627 137.53C45.1629 137.542 45.1631 137.555 45.1634 137.567C45.0603 137.984 45.398 138.242 45.7731 138.273C46.0788 138.305 46.3953 138.173 46.5137 137.831C48.0199 133.123 50.618 128.948 54.3091 125.369C54.4724 125.202 54.5107 125.025 54.4797 124.85C55.4653 126.366 56.5197 127.855 57.6289 129.306C57.5878 129.332 57.5464 129.346 57.5055 129.384C53.5818 133.131 51.0044 137.671 49.921 142.736C49.921 142.736 49.921 142.736 49.9213 142.748C49.833 143.215 50.2685 143.509 50.6706 143.502C50.934 143.497 51.1951 143.366 51.2584 143.05C52.2904 138.2 54.692 133.903 58.4384 130.31C59.4181 131.512 60.4666 132.687 61.5976 133.823C61.4589 133.826 61.3212 133.879 61.1986 133.994C57.611 137.182 55.8895 142.975 54.7935 147.374C54.7548 147.525 54.7163 147.69 54.6773 147.829C54.5103 148.536 55.5427 148.857 55.9214 148.346C55.9618 148.283 56.0023 148.219 56.0283 148.13C57.0848 143.846 58.6392 138.018 62.2134 134.856C62.3225 134.753 62.376 134.651 62.388 134.55C62.84 134.982 63.2781 135.414 63.7434 135.82C64.7444 136.682 65.814 137.505 66.9104 138.277C66.8834 138.315 66.842 138.328 66.815 138.367C63.8617 142.825 62.5684 147.793 61.4704 152.821C61.4068 153.124 61.3432 153.427 61.2655 153.718C61.1002 154.513 62.4376 154.828 62.6029 154.032C62.6287 153.931 62.6407 153.83 62.6667 153.741C63.7767 148.613 64.9987 143.546 67.9922 139.011C69.4526 139.965 70.9805 140.816 72.576 141.579C69.9362 146.484 69.3618 152.798 69.1896 158.374C69.1744 159.041 69.1595 159.72 69.1439 160.362C69.1313 161.167 70.5178 161.141 70.5303 160.336C70.5239 159.996 70.545 159.644 70.5523 159.291C70.6695 153.742 71.1134 147.129 73.7939 142.172C73.7939 142.172 73.7939 142.172 73.7936 142.16C76.1851 143.209 78.6835 144.042 81.246 144.598C79.41 151.677 79.4902 158.871 81.4391 165.866C81.6324 166.555 81.8118 167.243 82.0464 167.918C82.3107 168.693 83.6355 168.341 83.371 167.553C83.2831 167.303 83.2227 167.04 83.1486 166.79C80.8907 159.587 80.6955 152.181 82.5963 144.862C84.67 145.238 86.7544 145.45 88.8348 145.449C87.6322 150.075 88.4211 155.872 89.7405 160.376C91.0149 164.705 93.1186 168.879 95.509 172.809C95.9243 173.506 96.3533 174.189 96.7961 174.873C97.2392 175.569 98.4336 174.918 97.9767 174.222C97.8624 174.048 97.762 173.874 97.6478 173.7C95.1169 169.672 92.8598 165.45 91.3891 161.012C89.889 156.486 88.9367 150.114 90.2631 145.434C91.8707 145.366 93.4625 145.198 95.0379 144.891C98.7104 157.238 103.923 169.594 114.613 178.248C115.05 178.604 115.486 178.961 115.937 179.305C116.598 179.795 117.511 178.973 116.947 178.455C116.933 178.443 116.918 178.418 116.904 178.406C105.481 169.853 100.153 157.236 96.3778 144.602C99.7879 143.77 103.062 142.325 106.072 140.167C112.523 152.751 118.974 165.322 125.425 177.906C125.641 178.329 125.857 178.74 126.073 179.164C126.821 180.622 129.182 179.307 128.447 177.849L128.462 177.924ZM124.287 66.837C124.939 68.3091 125.094 69.9038 125.206 71.4741C123.707 71.4143 122.209 71.4048 120.753 71.4197C120.826 69.3805 120.428 67.4004 119.519 65.518C119.518 65.4929 119.476 65.4685 119.462 65.4436C120.744 65.0546 122.029 64.7788 123.33 64.6159C123.372 65.395 123.953 66.0634 124.287 66.8244L124.287 66.837ZM128.058 64.5519C129.253 66.8817 130.035 69.3452 130.415 71.8916C129.15 71.7268 127.872 71.6125 126.595 71.536C126.504 70.4055 126.413 69.2625 126.156 68.1478C126.02 67.5465 125.843 66.9586 125.596 66.3972C125.393 65.923 124.739 65.0925 124.742 64.5012C125.837 64.4428 126.947 64.4596 128.058 64.5519ZM115.485 67.1037C116.377 66.634 117.285 66.2395 118.194 65.8952C119.031 67.628 119.412 69.4071 119.377 71.2696C119.351 71.3204 119.338 71.3835 119.325 71.4467C117.856 71.4744 116.428 71.539 115.07 71.6024C115.07 71.6024 115.07 71.6024 115.056 71.6027C114.986 70.0944 115.083 68.5956 115.374 67.1309C115.416 67.1176 115.443 67.117 115.484 67.0911L115.485 67.1037ZM129.673 119.305C131.228 119.389 132.786 119.649 134.318 119.973C133.608 121.319 132.538 122.648 131.729 123.896C130.691 125.488 129.568 126.993 128.151 128.341C127.297 127.917 126.416 127.531 125.536 127.183C127.309 124.86 128.691 122.368 129.694 119.695C129.747 119.543 129.73 119.405 129.687 119.293L129.673 119.305ZM139.054 134.991C139.054 134.991 139.041 135.054 139.027 135.08C137.747 134.11 136.399 133.217 135.023 132.363C134.743 132.192 134.462 132.008 134.181 131.838C136.589 128.61 138.745 125.261 140.635 121.765C140.634 121.74 140.634 121.728 140.648 121.702C141.682 122.111 142.675 122.582 143.588 123.169C142.807 127.348 141.313 131.263 139.053 134.979L139.054 134.991ZM139.363 121.261C137.5 124.693 135.398 127.978 133.031 131.142C131.838 130.41 130.618 129.678 129.37 128.997C130.76 127.638 131.896 126.119 132.934 124.515C133.823 123.152 134.92 121.735 135.669 120.287C136.185 120.403 136.7 120.531 137.216 120.66C137.954 120.835 138.666 121.048 139.363 121.274L139.363 121.261ZM124.992 119.645C125.075 119.656 125.172 119.654 125.283 119.64C126.304 119.394 127.357 119.299 128.424 119.279C128.397 119.317 128.37 119.343 128.357 119.393C127.38 122.028 125.998 124.457 124.237 126.717C123.4 126.443 122.536 126.246 121.66 126.086C123.008 124.035 124.118 121.876 124.992 119.645Z" fill="#A3C150"/>
<path id="Vector_4" d="M61.4288 48.3985C40.9686 57.0869 55.7005 85.893 76.1882 77.1915C96.6484 68.503 81.9165 39.697 61.4288 48.3985Z" fill="#A3C150"/>
<path id="Vector_5" d="M29.004 97.0514C30.2148 96.5379 29.3504 94.8308 28.1257 95.3446C26.9149 95.858 27.7793 97.5651 29.004 97.0514Z" fill="#A3C150"/>
<path id="Vector_6" d="M35.7462 97.1381C36.957 96.6246 36.0927 94.9175 34.868 95.4312C33.6571 95.9447 34.5215 97.6518 35.7462 97.1381Z" fill="#A3C150"/>
<path id="Vector_7" d="M42.6187 100.455C43.8296 99.9418 42.9652 98.2347 41.7405 98.7484C40.5297 99.2618 41.394 100.969 42.6187 100.455Z" fill="#A3C150"/>
<path id="Vector_8" d="M48.0549 107.032C48.1247 107.056 48.2083 107.08 48.2781 107.104C49.5342 107.52 50.2497 105.746 48.9936 105.329C48.9238 105.305 48.8401 105.282 48.7703 105.258C47.5142 104.841 46.7987 106.616 48.0549 107.032Z" fill="#A3C150"/>
<path id="Vector_9" d="M55.2086 116.433L55.3599 116.367C56.5707 115.854 55.7064 114.147 54.4817 114.66L54.3303 114.726C53.1195 115.239 53.9839 116.947 55.2086 116.433Z" fill="#A3C150"/>
<path id="Vector_10" d="M62.8519 125.321C62.8498 125.208 62.8474 125.082 62.8591 124.968C62.9057 123.76 60.8358 123.585 60.7893 124.794C60.7914 124.907 60.7938 125.033 60.7821 125.146C60.7355 126.354 62.8054 126.529 62.8519 125.321Z" fill="#A3C150"/>
<path id="Vector_11" d="M70.6546 133.099C71.8655 132.585 71.0011 130.878 69.7764 131.392C68.5655 131.905 69.4299 133.612 70.6546 133.099Z" fill="#A3C150"/>
<path id="Vector_12" d="M80.1741 137.775C80.2005 137.699 80.227 137.636 80.2533 137.56C80.7172 136.419 78.7634 135.776 78.2994 136.917L78.22 137.12C77.7561 138.261 79.71 138.903 80.1739 137.762L80.1741 137.775Z" fill="#A3C150"/>
<path id="Vector_13" d="M89.8692 140.724C91.08 140.211 90.2156 138.504 88.9909 139.018C87.7801 139.531 88.6445 141.238 89.8692 140.724Z" fill="#A3C150"/>
<path id="Vector_14" d="M96.7544 138.833C97.316 139.93 99.2012 139.139 98.6394 138.03L98.5675 137.893C98.0059 136.797 96.1207 137.587 96.6825 138.696L96.7544 138.833Z" fill="#A3C150"/>
<path id="Vector_15" d="M109.489 129.41L109.41 129.613C108.946 130.754 110.9 131.396 111.364 130.255C111.39 130.179 111.417 130.116 111.443 130.04C111.907 128.899 109.953 128.257 109.489 129.398L109.489 129.41Z" fill="#A3C150"/>
<path id="Vector_16" d="M117.912 124.484C119.123 123.97 118.259 122.263 117.034 122.777C115.823 123.29 116.688 124.997 117.912 124.484Z" fill="#A3C150"/>
<path id="Vector_17" d="M120.766 115.473L120.615 115.539C119.404 116.052 120.268 117.759 121.493 117.246L121.644 117.18C122.855 116.666 121.991 114.959 120.766 115.473Z" fill="#A3C150"/>
<path id="Vector_18" d="M123.276 109.551C124.486 109.038 123.622 107.331 122.397 107.844C121.186 108.358 122.051 110.065 123.276 109.551Z" fill="#A3C150"/>
<path id="Vector_19" d="M120.848 100.703C122.059 100.19 121.194 98.4826 119.97 98.9963C118.759 99.5098 119.623 101.217 120.848 100.703Z" fill="#A3C150"/>
<path id="Vector_20" d="M116.815 91.3194C116.813 91.2062 116.811 91.0805 116.822 90.967C116.869 89.7585 114.799 89.5837 114.753 90.7922C114.755 90.9054 114.757 91.0311 114.745 91.1446C114.699 92.3531 116.769 92.5279 116.815 91.3194Z" fill="#A3C150"/>
<path id="Vector_21" d="M110.682 81.6104C109.471 82.1239 110.336 83.831 111.56 83.3173C112.771 82.8038 111.907 81.0967 110.682 81.6104Z" fill="#A3C150"/>
<path id="Vector_22" d="M111.285 74.5922C112.496 74.0788 111.631 72.3717 110.406 72.8854C109.196 73.3988 110.06 75.1059 111.285 74.5922Z" fill="#A3C150"/>
<path id="Vector_23" d="M112.08 64.5513C110.869 65.0648 111.734 66.7719 112.958 66.2582C114.169 65.7447 113.305 64.0376 112.08 64.5513Z" fill="#A3C150"/>
<path id="Vector_24" d="M114.518 58.4923C113.307 59.0058 114.171 60.7129 115.396 60.1992C116.607 59.6857 115.743 57.9786 114.518 58.4923Z" fill="#A3C150"/>
<path id="Vector_25" d="M119.985 54.955C121.196 54.4416 120.332 52.7345 119.107 53.2482C117.896 53.7616 118.76 55.4687 119.985 54.955Z" fill="#A3C150"/>
<path id="Vector_26" d="M38.8823 128.842C41.1396 124.246 44.4909 120.296 48.8709 117.207C49.569 116.715 48.8551 115.634 48.1573 116.138C43.6678 119.305 40.1781 123.27 37.8254 127.956C37.7716 128.046 37.718 128.147 37.6781 128.236C37.3842 128.833 38.129 129.347 38.61 129.112C38.72 129.059 38.8156 128.982 38.8823 128.842Z" fill="#A3C150"/>
<path id="Vector_27" d="M50.809 120.692C51.5071 120.201 50.7932 119.12 50.0954 119.624C45.5775 122.753 42.312 126.84 40.4197 131.669C40.2872 131.998 40.1545 132.315 40.0361 132.657C39.7733 133.43 41.1105 133.731 41.3735 132.972C43.0562 128.059 46.2913 123.834 50.8093 120.705L50.809 120.692Z" fill="#A3C150"/>
</g>
<path id="Vector_28" d="M96.0405 0.974877C85.337 1.17676 85.6077 16.2671 96.3251 16.065C107.042 15.8628 106.758 0.772735 96.0405 0.974877Z" fill="#A3C150"/>
<path id="Vector_29" d="M113.716 7.14513C107.477 7.26281 107.629 16.0656 113.882 15.9477C120.135 15.8298 119.969 7.02719 113.716 7.14513Z" fill="#A3C150"/>
<path id="Vector_30" d="M104.187 188.043C99.723 188.127 99.8416 194.415 104.306 194.33C108.77 194.246 108.652 187.959 104.187 188.043Z" fill="#A3C150"/>
<path id="Vector_31" d="M112.704 198.373C106.465 198.491 106.617 207.294 112.87 207.176C119.123 207.058 118.957 198.256 112.704 198.373Z" fill="#A3C150"/>
<path id="Vector_32" d="M116.252 190.13C112.688 190.197 112.77 195.227 116.347 195.16C119.924 195.092 119.829 190.062 116.252 190.13Z" fill="#A3C150"/>
<path id="Vector_33" d="M4.25717 86.5739C0.693957 86.6411 0.774964 91.6714 4.35205 91.604C7.92913 91.5365 7.83426 86.5064 4.25717 86.5739Z" fill="#A3C150"/>
<path id="Vector_34" d="M12.7458 95.4208C6.50668 95.5385 6.65884 104.341 12.9118 104.223C19.1648 104.105 18.9987 95.3028 12.7458 95.4208Z" fill="#A3C150"/>
</g>
<defs>
<clipPath id="clip0_934_4274">
<rect width="147.754" height="217.651" fill="white" transform="translate(0 2.78632) rotate(-1.08054)"/>
</clipPath>
</defs>
</svg>
