<svg width="181" height="161" viewBox="0 0 181 161" fill="none" xmlns="http://www.w3.org/2000/svg">
<g id="OBJECTS" clip-path="url(#clip0_934_4337)">
<g id="Group">
<path id="Vector" d="M110.416 84.3519C117.789 85.7805 125.074 82.1198 129.418 76.4042C135.634 68.2212 135.042 55.3714 127.336 47.2241C113.656 34.7461 93.3022 48.4363 94.8256 65.408C95.3132 70.7986 97.7873 76.017 101.592 79.6574C102.301 79.1309 103.513 80.0179 102.947 80.8447C105.12 82.5721 107.641 83.8176 110.42 84.3602L110.416 84.3519ZM103.784 79.3192C94.3066 71.7572 94.6176 57.3238 102.276 49.9454C108.508 43.9489 118.695 41.7057 126.108 48.4652C134.087 56.8966 133.493 70.0671 126.096 77.3465C120.346 83.0157 110.979 85.0618 103.784 79.3192Z" fill="#C2DA82"/>
<path id="Vector_2" d="M65.0558 135.059C70.8789 139.71 78.1423 138.473 85.3085 136.532C97.7525 133.147 109.554 128.489 119.865 120.641C135.762 108.543 149.087 87.8408 146.795 65.4691C145.796 55.6956 141.834 46.0743 134.146 39.6262C126.5 33.22 116.795 31.0378 107.646 31.7978C85.6865 33.6218 69.2399 50.961 61.3252 71.2072C57.7684 80.2904 56.3674 90.2557 55.9646 100.262C55.568 110.243 55.9107 121.855 61.3452 130.957C62.0691 132.033 62.8375 132.956 63.6334 133.767C59.431 142.715 54.1395 150.839 47.7331 158.109C46.9866 158.948 48.2704 160.347 49.0124 159.5C55.4478 152.192 60.8002 144.036 65.0558 135.059ZM63.6875 132.689C63.8781 132.423 64.061 132.161 64.2516 131.895C63.7787 131.352 63.3074 130.776 62.8743 130.125C62.2521 129.09 61.7182 128.018 61.2344 126.929C61.0965 127.437 60.2978 127.146 60.3964 126.585C60.4596 126.193 60.544 125.823 60.6239 125.444C59.1858 121.695 58.4291 117.695 58.0355 113.691C57.9653 113.816 57.8906 113.932 57.8204 114.057C57.5351 114.548 56.7568 114.041 57.0496 113.546C57.3319 113.068 57.6141 112.59 57.9039 112.108C57.7211 109.634 57.6584 107.181 57.6593 104.79C57.6609 104.087 57.6701 103.379 57.6838 102.679C57.5544 102.803 57.4128 102.924 57.2879 103.057C56.8979 103.463 56.2598 102.762 56.6467 102.367C56.997 102.014 57.3488 101.682 57.7081 101.346C57.7908 98.4356 57.9767 95.5335 58.2781 92.6443C58.0606 92.7519 57.843 92.8594 57.6331 92.9628C57.1371 93.211 56.6832 92.3765 57.1791 92.1283C57.5762 91.934 57.996 91.7272 58.4083 91.5245C58.6192 89.7012 58.874 87.8863 59.1775 86.0882C59.1076 86.1046 59.0422 86.1294 58.9798 86.1417C58.4415 86.2939 58.2066 85.3727 58.7494 85.2288C58.9547 85.1712 59.16 85.1136 59.3622 85.0685C59.5777 83.8698 59.8084 82.6629 60.0648 81.4852C60.1508 81.0815 60.249 80.6821 60.3426 80.2743C59.9234 80.2104 59.7883 79.4728 60.2657 79.3536C60.3706 79.329 60.4755 79.3044 60.5804 79.2797C60.8994 78.0356 61.2578 76.7916 61.6405 75.5561C61.5088 75.3141 61.5507 74.9561 61.8639 74.8613C62.2955 73.5343 62.7787 72.2116 63.2953 70.914C63.1955 70.6763 63.254 70.385 63.5337 70.3193C64.0594 69.0384 64.6139 67.7743 65.2048 66.5228C64.65 66.6083 64.415 65.6872 64.9744 65.6099C65.213 65.5774 65.4562 65.5533 65.6994 65.5291C66.0215 64.8889 66.3436 64.2486 66.69 63.6168C66.3942 63.3992 66.4731 62.7831 66.9305 62.7722C67.0095 62.7725 67.0809 62.7769 67.1478 62.773C68.1671 60.9315 69.2729 59.1404 70.45 57.4078C70.4378 57.4036 70.4181 57.4035 70.4059 57.3993C69.8424 57.3057 69.8323 56.3812 70.3959 56.4747C70.6116 56.5088 70.8227 56.5345 71.0308 56.5727C71.7809 55.5049 72.5644 54.4623 73.3736 53.4489C72.9335 53.2017 73.1479 52.4362 73.6657 52.6087C73.7629 52.6423 73.8753 52.6677 73.9725 52.7013C75.8163 50.4546 77.8011 48.3583 79.9162 46.429C79.8768 46.3747 79.8451 46.3163 79.7981 46.2662C79.4208 45.7901 80.0285 45.1675 80.4058 45.6436C80.4619 45.7104 80.5103 45.7813 80.5588 45.8523C81.6445 44.894 82.7604 43.9733 83.9112 43.0985C83.884 43.0484 83.8567 42.9983 83.8143 42.9566C83.1358 41.9631 84.5964 41.1685 85.2933 42.087C87.6144 40.4458 90.049 39.0132 92.591 37.8142C109.836 29.6439 135.126 32.9288 142.87 55.4815C146.59 66.3055 145.738 77.2804 142.257 87.2635C142.469 87.4725 142.678 87.6939 142.877 87.9319C143.68 88.8467 142.452 90.0878 141.649 89.173C141.631 89.1396 141.602 89.1228 141.581 89.1019C141.254 89.9504 140.91 90.7863 140.546 91.6221C140.725 91.6977 140.904 91.7733 141.084 91.8489C141.621 92.0756 141.411 92.9578 140.866 92.7352C140.634 92.6344 140.406 92.542 140.174 92.4413C138.981 95.0692 137.615 97.5966 136.108 100.028C136.257 100.628 136.376 101.245 136.467 101.866C136.552 102.457 135.704 102.638 135.614 102.038C135.568 101.717 135.509 101.392 135.448 101.079C134.333 102.799 133.154 104.457 131.925 106.056C132.05 106.885 132.127 107.698 132.121 108.502C132.12 109.097 131.231 109.04 131.24 108.44C131.242 107.974 131.213 107.503 131.159 107.024C130.506 107.834 129.847 108.635 129.163 109.408C122.088 117.496 113.336 123.609 103.766 128.145C103.704 128.319 103.641 128.494 103.558 128.669C103.395 129.039 102.97 128.892 102.811 128.6C101.369 129.265 99.8965 129.893 98.4257 130.488C96.6476 131.206 94.8135 131.858 92.9765 132.468C92.9305 132.655 92.8966 132.847 92.8749 133.043C92.8006 133.613 91.9913 133.339 92.0154 132.786C88.238 133.997 84.3668 135 80.5203 135.849C75.0486 137.063 69.7773 136.978 65.578 133.282C65.4668 133.44 65.3555 133.598 65.2442 133.756C64.5902 134.674 63.0365 133.648 63.6905 132.73L63.6875 132.689Z" fill="#C2DA82"/>
<path id="Vector_3" d="M65.2337 133.718C65.3449 133.561 65.4562 133.403 65.5675 133.245C71.2995 125.206 77.0285 117.18 82.7605 109.141C86.2433 111.139 90.015 112.472 93.796 112.989C94.901 116.216 94.4913 119.921 94.2469 123.169C94.106 124.976 93.8694 126.77 93.3898 128.48C92.9809 129.903 92.1999 131.204 92.0095 132.702C92.0141 132.711 92.0155 132.731 92.0125 132.744C91.9884 133.298 92.7977 133.571 92.872 133.001C92.8937 132.805 92.9276 132.614 92.9736 132.426C93.2915 130.945 94.0697 129.548 94.4317 128.075C94.49 127.838 94.5361 127.597 94.5898 127.351C94.6566 127.401 94.7264 127.439 94.8252 127.439C97.7378 127.629 100.563 127.313 103.3 126.527C103.188 127.064 103.02 127.588 102.792 128.112C102.721 128.27 102.748 128.429 102.816 128.554C102.979 128.854 103.4 128.993 103.563 128.623C103.646 128.448 103.708 128.274 103.771 128.099C104.557 126.028 104.527 123.816 104.044 121.516C103.437 118.623 102.598 115.36 100.719 112.975C104.463 112.409 108.01 110.901 111.04 108.28C115.526 104.401 118.116 98.6877 122.355 94.5543C123.23 93.6993 124.194 92.9155 125.217 92.2402C127.702 96.5007 130.677 101.933 131.16 106.97C131.201 107.445 131.238 107.911 131.24 108.386C131.239 108.982 132.124 109.051 132.121 108.447C132.128 107.644 132.046 106.823 131.925 106.002C131.732 104.723 131.396 103.435 130.969 102.142C130.976 102.138 130.991 102.13 130.999 102.126C132.443 101.102 133.68 99.8778 134.765 98.4656C135.045 99.287 135.283 100.142 135.448 101.025C135.514 101.346 135.568 101.663 135.614 101.983C135.704 102.583 136.56 102.399 136.467 101.811C136.371 101.182 136.257 100.574 136.108 99.9736C135.166 96.0848 133.12 92.742 129.898 90.2989C130.546 90.1845 131.212 90.1035 131.888 90.1141C134.719 90.1529 137.499 91.2577 140.166 92.3913C140.398 92.492 140.626 92.5844 140.858 92.6852C141.4 92.9202 141.618 92.0339 141.076 91.7989C140.897 91.7233 140.718 91.6477 140.539 91.5721C135.878 89.6197 131.268 88.2129 126.665 90.317C121.503 92.6815 118.401 97.7974 115.092 102.28C111.215 107.514 106.467 111.308 99.8929 112.181C98.0263 112.429 96.1496 112.422 94.278 112.208C94.1884 112.17 94.1049 112.161 94.0228 112.174C90.3191 111.69 86.6706 110.366 83.2864 108.422C84.4541 106.781 85.6219 105.14 86.8018 103.503C86.8726 103.778 87.0528 104.037 87.3822 104.171C91.211 105.755 95.2192 107.305 99.2312 106.507C103.652 105.626 107.083 102.311 109.92 98.972C113.589 94.6617 116.757 90.2456 122.055 87.969C128.013 85.4199 136.121 82.8905 141.588 89.0436C141.607 89.077 141.635 89.0938 141.657 89.1147C142.46 90.0295 143.688 88.7885 142.884 87.8737C142.678 87.6397 142.474 87.4267 142.264 87.2052C135.572 80.4857 124.945 83.6936 118.356 87.7107C113.921 90.415 111.094 94.8947 107.636 98.7227C105.236 101.38 102.364 103.948 98.7567 104.656C95.0518 105.385 91.3203 103.835 87.8088 102.382C87.7359 102.357 87.6766 102.357 87.6083 102.34C92.7259 95.1651 97.8436 87.9904 102.954 80.8198C102.954 80.8198 102.961 80.8156 102.964 80.8031C103.53 79.9763 102.325 79.0851 101.608 79.6158C101.537 79.6655 101.465 79.7152 101.404 79.8025C96.1968 87.1018 90.9862 94.4137 85.7786 101.713C85.7044 101.613 85.6028 101.517 85.4677 101.45C78.9994 97.8959 79.1731 89.6798 79.6844 83.3889C80.2239 76.7149 83.3755 72.0697 86.5515 66.7082C88.556 63.3251 90.35 59.5914 90.5176 55.4232C90.7236 50.4015 88.1332 46.1656 85.3481 42.0789C85.339 42.0622 85.3223 42.0497 85.3056 42.0371C84.6087 41.1185 83.1481 41.9131 83.8266 42.9066C83.8538 42.9567 83.8887 43.0026 83.9235 43.0485C88.4715 49.7774 90.0642 55.6591 86.571 62.8477C84.2335 67.6665 80.6776 71.6773 79.0291 76.9107C76.5831 84.6651 75.9927 98.2771 84.6147 103.017C84.6799 103.046 84.7376 103.08 84.806 103.097C83.7815 104.53 82.7571 105.963 81.7327 107.396C76.1286 104.67 72.2638 98.8891 71.0045 92.6962C69.6912 86.2408 71.2029 79.6867 73.9401 74.2071C76.0361 69.9956 79.9404 65.1031 82.0173 59.9502C82.1102 59.8673 82.1561 59.7342 82.1579 59.5926C83.8899 55.0924 84.1666 50.3999 80.5863 45.7941C80.5302 45.7273 80.4894 45.6522 80.4333 45.5853C80.056 45.1093 79.4407 45.736 79.8256 46.2079C79.865 46.2622 79.9044 46.3165 79.9437 46.3708C81.921 48.9179 82.5376 51.7186 82.3443 54.5166C79.6636 53.2497 76.7667 53.5063 74.0045 52.6515C73.8997 52.622 73.7995 52.6008 73.6978 52.5588C73.1755 52.3779 72.961 53.1435 73.4056 53.3991C73.4345 53.4158 73.4557 53.4367 73.48 53.4451C76.3543 54.4336 79.4841 54.007 82.2525 55.4533C82.1024 56.6272 81.8171 57.7881 81.4392 58.9238C78.1283 57.459 74.5446 57.0511 71.0629 56.5228C70.8472 56.4888 70.636 56.463 70.4279 56.4249C69.8568 56.3354 69.8713 57.2684 70.438 57.3494C70.4501 57.3536 70.4699 57.3537 70.482 57.3579C74.0533 57.924 77.7283 58.2822 81.147 59.764C80.7617 60.7955 80.299 61.7934 79.8015 62.7454C79.8368 62.5748 79.781 62.3997 79.5715 62.2865C76.2521 60.5885 72.7651 59.7062 69.188 59.7273C68.6197 59.7337 68.6297 60.6582 69.198 60.6519C72.6141 60.6427 75.9766 61.4413 79.1488 63.068C79.3704 63.1854 79.5697 63.0986 79.6901 62.9574C79.2444 63.8055 78.776 64.6118 78.2926 65.3723C76.9749 67.4626 75.6573 69.4987 74.4475 71.606C74.4875 71.3896 74.3953 71.1477 74.1326 71.0635C70.6387 69.9147 67.0926 69.6485 63.5962 70.2529C63.5886 70.257 63.581 70.2612 63.5734 70.2653C63.286 70.3351 63.2352 70.6223 63.335 70.86C63.412 71.056 63.5925 71.2066 63.8387 71.1699C67.1908 70.59 70.5621 70.8431 73.9148 71.9499C74.0682 71.9962 74.1883 71.9633 74.2858 71.8886C73.6709 72.9693 73.094 74.0835 72.558 75.2186C72.5292 75.2018 72.5079 75.1809 72.4715 75.1683C68.9427 73.9735 65.3552 73.8488 61.9188 74.7991C61.9188 74.7991 61.9188 74.7991 61.9112 74.8032C61.598 74.8979 61.5561 75.2559 61.6878 75.4979C61.774 75.6565 61.9363 75.7736 62.1492 75.7119C65.4382 74.7986 68.8221 74.8935 72.2006 76.0294C71.7759 77.0067 71.3891 78.0173 71.0524 79.0657C71.007 78.9822 70.9312 78.9153 70.8219 78.8775C67.7413 77.7092 63.6579 78.5032 60.6246 79.2341C60.5197 79.2587 60.4072 79.2875 60.3099 79.308C59.8249 79.4312 59.9554 80.1605 60.3868 80.2286C60.4385 80.2329 60.4901 80.2373 60.5525 80.225C63.5036 79.5063 67.5554 78.5998 70.6162 79.768C70.7134 79.8016 70.7924 79.8019 70.8578 79.7771C70.7368 80.189 70.6113 80.5926 70.51 81.0045C70.2998 81.8867 70.1352 82.7982 70.01 83.7098C69.9781 83.7055 69.9569 83.6846 69.925 83.6803C66.2682 83.3013 62.8245 84.0933 59.4064 85.0228C59.2011 85.0804 58.9958 85.138 58.7936 85.1832C58.2553 85.3354 58.4858 86.2483 59.024 86.096C59.094 86.0796 59.1594 86.0548 59.2217 86.0425C62.7052 85.0883 66.1871 84.2214 69.9031 84.6006C69.7819 85.7913 69.7442 86.9906 69.7824 88.2026C65.9517 88.1562 61.9134 89.8124 58.4525 91.4789C58.0403 91.6815 57.6204 91.8883 57.2233 92.0827C56.7274 92.3309 57.1813 93.1653 57.6773 92.9171C57.8827 92.8054 58.1048 92.7062 58.3223 92.5987C61.7498 90.9071 65.9298 89.0765 69.8046 89.1314C69.8046 89.1314 69.8046 89.1314 69.8122 89.1272C69.9267 90.9142 70.2068 92.6976 70.6769 94.4317C65.7721 95.5644 61.4026 97.8982 57.7447 101.305C57.3854 101.641 57.0214 101.969 56.6833 102.326C56.2933 102.733 56.9269 103.426 57.3245 103.015C57.4494 102.882 57.591 102.762 57.7204 102.637C61.4077 98.9769 65.8703 96.5059 70.9423 95.3363C71.3677 96.7163 71.8965 98.0507 72.5546 99.3148C69.3481 100.054 66.0559 102.374 63.7213 104.607C61.4796 106.757 59.5939 109.361 57.9481 112.063C57.6537 112.536 57.3715 113.014 57.0939 113.501C56.8086 113.991 57.5839 114.51 57.8646 114.011C57.9348 113.887 58.0095 113.77 58.0797 113.646C59.741 110.828 61.6072 108.115 63.8538 105.811C66.1446 103.462 69.7368 100.859 73.0146 100.178C73.564 101.134 74.1697 102.048 74.8546 102.908C68.472 109.063 62.5704 116.156 60.6605 125.403C60.5806 125.781 60.5007 126.16 60.433 126.543C60.342 127.101 61.1331 127.395 61.271 126.887C61.2741 126.875 61.2847 126.858 61.2878 126.846C62.9039 117.185 68.9289 109.939 75.4547 103.631C77.0401 105.44 78.9573 106.97 81.2265 108.115C75.5768 116.033 69.9348 123.948 64.2851 131.866C64.0946 132.132 63.9116 132.394 63.721 132.66C63.067 133.578 64.6162 134.595 65.2748 133.685L65.2337 133.718ZM131.779 95.8942C131.086 96.758 130.16 97.3587 129.237 97.9261C128.8 96.9959 128.332 96.0823 127.863 95.2019C129.132 94.5983 130.216 93.7274 131.079 92.5768C131.094 92.5685 131.095 92.5352 131.106 92.5185C131.749 93.1746 132.323 93.8679 132.834 94.6068C132.371 94.88 132.146 95.4456 131.787 95.89L131.779 95.8942ZM134.366 97.4606C133.321 98.9271 132.063 100.185 130.627 101.225C130.328 100.404 129.994 99.5904 129.637 98.7896C130.299 98.3754 130.969 97.957 131.569 97.4468C131.893 97.1731 132.196 96.8784 132.461 96.5503C132.687 96.2763 132.988 95.6151 133.35 95.4289C133.731 96.0758 134.072 96.7557 134.366 97.4606ZM128.836 90.6284C129.404 91.0218 129.932 91.4484 130.43 91.8916C129.636 92.9508 128.669 93.7471 127.52 94.3179C127.481 94.3177 127.438 94.3301 127.396 94.3424C126.914 93.4579 126.424 92.6108 125.956 91.8055C125.956 91.8055 125.956 91.8055 125.952 91.7971C126.851 91.2754 127.797 90.8581 128.784 90.5699C128.805 90.5908 128.814 90.6075 128.843 90.6243L128.836 90.6284ZM101.427 115.835C101.867 116.806 102.2 117.836 102.487 118.87C101.44 118.866 100.29 118.638 99.2721 118.542C97.9716 118.417 96.6971 118.213 95.4262 117.78C95.4156 117.126 95.373 116.468 95.3076 115.822C97.2868 116.162 99.2455 116.21 101.196 115.971C101.305 115.955 101.384 115.901 101.439 115.839L101.427 115.835ZM94.8075 126.519C94.8075 126.519 94.765 126.531 94.7452 126.531C94.9331 125.445 95.0526 124.342 95.1402 123.234C95.1559 123.009 95.1793 122.781 95.195 122.556C97.9277 122.994 100.655 123.241 103.387 123.279C103.402 123.271 103.41 123.267 103.429 123.267C103.507 124.025 103.532 124.779 103.462 125.52C100.663 126.372 97.7992 126.708 94.8151 126.515L94.8075 126.519ZM103.293 122.346C100.608 122.303 97.9374 122.069 95.2563 121.636C95.3269 120.678 95.3884 119.704 95.4104 118.729C96.6798 119.142 97.9664 119.35 99.2745 119.471C100.388 119.579 101.6 119.796 102.722 119.791C102.814 120.141 102.898 120.496 102.982 120.85C103.109 121.354 103.203 121.854 103.286 122.35L103.293 122.346ZM99.7404 113.097C99.76 113.151 99.7918 113.209 99.8357 113.272C100.309 113.815 100.699 114.424 101.049 115.067C101.017 115.063 100.993 115.054 100.958 115.062C99.0394 115.306 97.1188 115.237 95.1821 114.884C95.0847 114.289 94.9326 113.701 94.7531 113.117C96.4318 113.285 98.1019 113.274 99.7404 113.097Z" fill="#C2DA82"/>
<path id="Vector_4" d="M123.186 51.8285C111.415 42.1514 98.4707 60.2564 110.259 69.946C122.03 79.6231 134.974 61.5181 123.186 51.8285Z" fill="#C2DA82"/>
<path id="Vector_5" d="M83.2202 47.573C83.9164 48.146 84.6862 47.0783 83.9855 46.497C83.2893 45.9241 82.5195 46.9918 83.2202 47.573Z" fill="#C2DA82"/>
<path id="Vector_6" d="M85.2972 51.6989C85.9934 52.2718 86.7632 51.2042 86.0625 50.6229C85.3663 50.05 84.5965 51.1176 85.2972 51.6989Z" fill="#C2DA82"/>
<path id="Vector_7" d="M85.4418 56.9301C86.138 57.5031 86.9078 56.4354 86.2071 55.8541C85.5109 55.2812 84.7411 56.3489 85.4418 56.9301Z" fill="#C2DA82"/>
<path id="Vector_8" d="M83.141 62.3237C83.1484 62.3737 83.1605 62.4321 83.1679 62.4821C83.3103 63.3779 84.6204 63.2492 84.4781 62.3533C84.4706 62.3033 84.4586 62.2449 84.4511 62.1949C84.3088 61.2991 82.9986 61.4279 83.141 62.3237Z" fill="#C2DA82"/>
<path id="Vector_9" d="M79.658 69.6581L79.746 69.7292C80.4422 70.3022 81.212 69.2345 80.5113 68.6532L80.4233 68.5821C79.7271 68.0092 78.9573 69.0769 79.658 69.6581Z" fill="#C2DA82"/>
<path id="Vector_10" d="M76.6428 77.1274C76.7113 77.0902 76.7874 77.0488 76.8604 77.0199C77.6134 76.6643 77.0663 75.3506 76.3133 75.7062C76.2448 75.7434 76.1688 75.7848 76.0957 75.8137C75.3427 76.1693 75.8898 77.483 76.6428 77.1274Z" fill="#C2DA82"/>
<path id="Vector_11" d="M74.3561 84.341C75.0523 84.9139 75.8221 83.8463 75.1214 83.265C74.4252 82.6921 73.6554 83.7597 74.3561 84.341Z" fill="#C2DA82"/>
<path id="Vector_12" d="M74.5066 91.6129C74.5613 91.6047 74.6084 91.6007 74.6632 91.5926C75.5067 91.5122 75.282 90.1204 74.4384 90.2009L74.2894 90.217C73.4459 90.2974 73.6706 91.6891 74.5142 91.6087L74.5066 91.6129Z" fill="#C2DA82"/>
<path id="Vector_13" d="M75.7675 98.4429C76.4636 99.0159 77.2335 97.9482 76.5327 97.3669C75.8366 96.794 75.0667 97.8617 75.7675 98.4429Z" fill="#C2DA82"/>
<path id="Vector_14" d="M79.0978 102.028C78.6054 102.717 79.6837 103.612 80.1837 102.918L80.2447 102.831C80.7371 102.141 79.6587 101.247 79.1587 101.94L79.0978 102.028Z" fill="#C2DA82"/>
<path id="Vector_15" d="M88.8776 106.775L88.7287 106.791C87.8851 106.872 88.1099 108.264 88.9534 108.183C89.0082 108.175 89.0553 108.171 89.11 108.163C89.9535 108.082 89.7288 106.691 88.8852 106.771L88.8776 106.775Z" fill="#C2DA82"/>
<path id="Vector_16" d="M94.5482 110.33C95.2443 110.903 96.0142 109.836 95.3134 109.254C94.6173 108.681 93.8474 109.749 94.5482 110.33Z" fill="#C2DA82"/>
<path id="Vector_17" d="M100.954 109.203L100.866 109.132C100.17 108.559 99.4003 109.627 100.101 110.208L100.189 110.279C100.885 110.852 101.655 109.784 100.954 109.203Z" fill="#C2DA82"/>
<path id="Vector_18" d="M105.365 108.847C106.061 109.42 106.831 108.353 106.13 107.771C105.434 107.198 104.664 108.266 105.365 108.847Z" fill="#C2DA82"/>
<path id="Vector_19" d="M110.003 104.561C110.7 105.134 111.469 104.066 110.769 103.485C110.072 102.912 109.303 103.98 110.003 104.561Z" fill="#C2DA82"/>
<path id="Vector_20" d="M114.462 99.1291C114.531 99.0919 114.607 99.0505 114.68 99.0216C115.433 98.666 114.886 97.3523 114.133 97.7079C114.064 97.7451 113.988 97.7865 113.915 97.8154C113.162 98.171 113.709 99.4847 114.462 99.1291Z" fill="#C2DA82"/>
<path id="Vector_21" d="M118.456 92.3171C117.76 91.7441 116.99 92.8118 117.691 93.3931C118.387 93.966 119.157 92.8983 118.456 92.3171Z" fill="#C2DA82"/>
<path id="Vector_22" d="M122.934 90.4541C123.63 91.0271 124.4 89.9594 123.699 89.3781C123.003 88.8052 122.233 89.8729 122.934 90.4541Z" fill="#C2DA82"/>
<path id="Vector_23" d="M129.319 87.7482C128.623 87.1752 127.853 88.2429 128.554 88.8242C129.25 89.3971 130.02 88.3294 129.319 87.7482Z" fill="#C2DA82"/>
<path id="Vector_24" d="M133.791 87.3053C133.095 86.7324 132.325 87.8001 133.026 88.3814C133.722 88.9543 134.492 87.8866 133.791 87.3053Z" fill="#C2DA82"/>
<path id="Vector_25" d="M137.679 89.505C138.375 90.078 139.145 89.0103 138.444 88.429C137.748 87.8561 136.978 88.9238 137.679 89.505Z" fill="#C2DA82"/>
<path id="Vector_26" d="M66.9193 63.6759C70.4404 63.588 73.9124 64.3703 77.1832 66.0515C77.7039 66.3198 78.1387 65.5425 77.6105 65.2783C74.2577 63.5552 70.7327 62.6936 67.1266 62.7521C67.0552 62.7476 66.9762 62.7474 66.9093 62.7513C66.4519 62.7622 66.373 63.3783 66.6688 63.5959C66.7355 63.6461 66.8129 63.6797 66.9193 63.6759Z" fill="#C2DA82"/>
<path id="Vector_27" d="M75.666 68.3368C76.1867 68.6051 76.6215 67.8278 76.0933 67.5637C72.7542 65.8115 69.2258 65.1247 65.6782 65.5082C65.435 65.5324 65.1994 65.5524 64.9532 65.589C64.3983 65.6746 64.6363 66.5833 65.1836 66.5019C68.7163 65.9642 72.3194 66.5887 75.6584 68.341L75.666 68.3368Z" fill="#C2DA82"/>
</g>
<path id="Vector_28" d="M163.092 57.8037C159.587 51.3616 150.454 56.3195 153.963 62.77C157.472 69.2204 166.601 64.2541 163.092 57.8037Z" fill="#C2DA82"/>
<path id="Vector_29" d="M164.906 70.5077C162.863 66.7526 157.534 69.6412 159.581 73.4047C161.629 77.1682 166.954 74.2712 164.906 70.5077Z" fill="#C2DA82"/>
<path id="Vector_30" d="M51.3832 122.177C49.9214 119.49 46.1177 121.559 47.5795 124.246C49.0413 126.933 52.845 124.864 51.3832 122.177Z" fill="#C2DA82"/>
<path id="Vector_31" d="M47.7624 130.635C45.7196 126.88 40.3899 129.769 42.4373 133.532C44.4847 137.296 49.8098 134.399 47.7624 130.635Z" fill="#C2DA82"/>
<path id="Vector_32" d="M53.9193 130.173C52.7526 128.029 49.7051 129.676 50.8764 131.829C52.0476 133.982 55.0906 132.326 53.9193 130.173Z" fill="#C2DA82"/>
<path id="Vector_33" d="M81.8034 29.2024C80.6367 27.0578 77.5892 28.7049 78.7605 30.8578C79.9317 33.0107 82.9747 31.3553 81.8034 29.2024Z" fill="#C2DA82"/>
<path id="Vector_34" d="M79.0804 37.1724C77.0375 33.4173 71.7078 36.306 73.7552 40.0694C75.8026 43.8329 81.1278 40.9359 79.0804 37.1724Z" fill="#C2DA82"/>
</g>
<defs>
<clipPath id="clip0_934_4337">
<rect width="101.218" height="149.866" fill="white" transform="translate(131.646) rotate(61.4529)"/>
</clipPath>
</defs>
</svg>
