<svg width="414" height="386" viewBox="0 0 414 386" fill="none" xmlns="http://www.w3.org/2000/svg">
<g clip-path="url(#clip0_934_4211)">
<path d="M288.715 224.948C308.386 223.556 325.551 209.512 334.202 192.315C346.577 167.696 339.289 136.003 315.748 120.84C274.844 98.8795 228.442 146.764 239.982 188.125C243.657 201.26 252.382 212.628 263.834 219.16C265.429 217.368 268.955 218.768 267.866 221.214C274.247 224.066 281.313 225.481 288.731 224.966L288.715 224.948ZM269.34 216.841C241.488 204.331 235.821 168.075 252.283 144.495C265.681 125.327 290.969 112.871 313.135 124.765C337.508 140.454 341.879 173.747 326.048 196.903C313.749 214.93 290.488 226.342 269.34 216.841Z" fill="#79A10E"/>
<path d="M194.36 382.104C211.476 389.801 229.67 381.825 247.297 372.156C277.901 355.33 306.274 335.759 329.373 309.221C364.983 268.312 390.099 207.644 374.154 153.314C367.195 129.577 352.655 108.214 329.92 97.2825C307.313 86.4269 281.284 87.5067 258.007 95.5604C202.144 114.889 167.464 169.258 156.11 225.147C151 250.225 151.851 276.055 155.296 301.316C158.747 326.51 164.836 355.28 182.944 374.355C185.295 376.557 187.692 378.345 190.11 379.835C183.274 405.009 173.256 428.857 159.979 451.324C158.428 453.921 162.369 456.553 163.905 453.938C177.24 431.358 187.4 407.386 194.36 382.104ZM189.766 377.105C190.139 376.313 190.494 375.536 190.866 374.744C189.403 373.706 187.928 372.583 186.518 371.248C184.448 369.082 182.589 366.764 180.852 364.371C180.724 365.731 178.532 365.544 178.535 364.074C178.523 363.055 178.575 362.073 178.611 361.073C173.219 352.678 169.472 343.196 166.662 333.462C166.536 333.821 166.396 334.162 166.27 334.521C165.754 335.937 163.518 335.196 164.052 333.764C164.566 332.38 165.08 330.996 165.612 329.597C164.031 323.541 162.77 317.456 161.701 311.486C161.389 309.727 161.096 307.953 160.818 306.196C160.539 306.594 160.228 306.99 159.965 307.406C159.141 308.684 157.179 307.36 158.001 306.115C158.747 304.999 159.506 303.933 160.283 302.852C159.192 295.527 158.371 288.154 157.854 280.735C157.34 281.15 156.827 281.565 156.331 281.965C155.162 282.918 153.617 281.139 154.786 280.186C155.723 279.433 156.714 278.634 157.688 277.851C157.415 273.155 157.259 268.451 157.236 263.757C157.063 263.845 156.905 263.95 156.75 264.023C155.429 264.765 154.41 262.623 155.746 261.898C156.25 261.616 156.754 261.334 157.256 261.086C157.275 257.947 157.329 254.778 157.463 251.664C157.504 250.598 157.579 249.534 157.638 248.453C156.527 248.575 155.848 246.824 157.026 246.205C157.286 246.073 157.546 245.941 157.806 245.809C158.071 242.487 158.439 239.139 158.873 235.796C158.425 235.28 158.372 234.358 159.138 233.911C159.657 230.306 160.312 226.678 161.063 223.089C160.699 222.563 160.72 221.796 161.412 221.444C162.195 217.891 163.06 214.361 164.024 210.838C162.63 211.425 161.611 209.282 163.02 208.713C163.621 208.471 164.238 208.247 164.855 208.023C165.4 206.208 165.944 204.392 166.555 202.581C165.694 202.237 165.621 200.645 166.797 200.31C167.001 200.257 167.188 200.22 167.358 200.166C169.164 194.881 171.215 189.664 173.477 184.545C173.444 184.542 173.393 184.555 173.36 184.553C171.863 184.699 171.423 182.396 172.919 182.251C173.491 182.191 174.048 182.113 174.602 182.068C176.06 178.897 177.614 175.766 179.249 172.691C178.002 172.369 178.213 170.313 179.626 170.396C179.892 170.414 180.194 170.402 180.46 170.421C184.212 163.569 188.396 156.998 192.99 150.757C192.864 150.648 192.756 150.523 192.612 150.43C191.425 149.495 192.715 147.531 193.902 148.466C194.077 148.595 194.234 148.74 194.39 148.884C196.763 145.761 199.231 142.71 201.809 139.751C201.717 139.645 201.624 139.538 201.496 139.462C199.299 137.437 202.713 134.47 204.923 136.295C210.179 130.635 215.821 125.419 221.845 120.714C262.695 88.7076 329.448 79.8964 359.546 131.011C373.999 155.541 376.72 183.523 372.208 210.798C372.85 211.177 373.489 211.589 374.108 212.05C376.592 213.794 373.979 217.72 371.496 215.975C371.434 215.904 371.352 215.882 371.288 215.844C370.824 218.183 370.311 220.502 369.747 222.834C370.243 222.902 370.74 222.97 371.236 223.039C372.725 223.243 372.578 225.588 371.071 225.399C370.426 225.303 369.797 225.226 369.152 225.13C367.252 232.496 364.859 239.727 362.059 246.812C362.713 248.211 363.296 249.672 363.81 251.161C364.295 252.581 362.186 253.602 361.685 252.164C361.422 251.394 361.125 250.622 360.826 249.883C358.72 254.929 356.421 259.862 353.963 264.683C354.659 266.669 355.222 268.646 355.566 270.658C355.83 272.146 353.51 272.601 353.264 271.097C353.062 269.931 352.775 268.775 352.422 267.615C351.097 270.077 349.757 272.522 348.338 274.911C333.7 299.871 313.851 321.026 291.181 338.792C291.098 339.271 291.014 339.749 290.88 340.241C290.624 341.275 289.46 341.193 288.919 340.571C285.495 343.203 281.976 345.762 278.446 348.237C274.179 351.228 269.737 354.089 265.269 356.849C265.234 357.348 265.232 357.848 265.264 358.352C265.328 359.826 263.116 359.688 262.93 358.288C253.723 363.855 244.18 368.964 234.632 373.672C221.052 380.386 207.408 383.721 194.912 377.316C194.696 377.785 194.479 378.254 194.263 378.723C192.986 381.456 188.516 379.94 189.793 377.207L189.766 377.105Z" fill="#79A10E"/>
<path d="M194.219 378.636C194.435 378.167 194.652 377.698 194.868 377.229C206.06 353.296 217.25 329.396 228.442 305.463C238.328 308.111 248.661 308.902 258.652 307.649C262.951 314.966 263.555 324.495 264.379 332.77C264.825 337.377 265.019 342.017 264.548 346.61C264.13 350.439 262.697 354.213 262.877 358.084C262.893 358.102 262.906 358.153 262.904 358.186C263.09 359.585 265.301 359.724 265.237 358.25C265.206 357.746 265.207 357.245 265.242 356.747C265.399 352.833 266.781 348.821 267.056 344.899C267.1 344.267 267.111 343.634 267.139 342.984C267.334 343.065 267.531 343.112 267.786 343.046C275.389 341.559 282.541 338.871 289.254 335.066C289.205 336.482 289.005 337.905 288.653 339.366C288.538 339.809 288.679 340.187 288.911 340.453C289.467 341.094 290.615 341.157 290.871 340.123C291.006 339.632 291.089 339.153 291.173 338.675C292.273 332.973 291.204 327.47 288.928 322.049C286.064 315.235 282.435 307.648 276.517 302.957C285.927 299.024 294.407 292.872 301.053 284.286C310.892 271.582 315.018 255.57 324.105 242.396C325.982 239.671 328.118 237.066 330.456 234.691C338.781 243.659 348.895 255.225 352.398 267.479C352.718 268.637 353.022 269.778 353.24 270.962C353.504 272.45 355.821 272.028 355.542 270.522C355.198 268.511 354.62 266.516 353.939 264.548C352.867 261.483 351.423 258.492 349.741 255.552C349.759 255.536 349.794 255.505 349.812 255.49C353.081 251.961 355.725 248.072 357.893 243.814C358.982 245.678 359.98 247.652 360.802 249.747C361.116 250.504 361.398 251.259 361.661 252.029C362.162 253.467 364.289 252.43 363.786 251.026C363.256 249.519 362.689 248.076 362.035 246.677C357.86 237.599 351.082 230.627 341.67 226.693C343.29 225.971 344.972 225.321 346.722 224.893C354.047 223.085 361.718 223.974 369.111 225.011C369.755 225.106 370.385 225.183 371.029 225.279C372.534 225.501 372.698 223.141 371.194 222.919C370.698 222.851 370.202 222.782 369.705 222.714C356.8 220.973 344.269 220.562 333.331 228.914C321.068 238.291 315.353 253.155 308.821 266.576C301.161 282.256 290.606 294.927 274.028 301.53C269.321 303.404 264.474 304.651 259.546 305.374C259.298 305.34 259.079 305.374 258.872 305.46C249.096 306.745 239.084 305.892 229.478 303.314C231.756 298.43 234.035 293.546 236.347 288.664C236.653 289.304 237.234 289.829 238.145 289.943C248.737 291.321 259.778 292.496 269.776 287.803C280.793 282.631 288.163 272.041 293.99 261.794C301.528 248.561 307.726 235.401 320.38 226.151C334.616 215.776 354.412 204.004 371.282 215.693C371.343 215.764 371.425 215.787 371.49 215.825C373.973 217.569 376.586 213.644 374.102 211.899C373.465 211.454 372.841 211.059 372.202 210.647C351.916 198.368 325.922 213.529 310.715 227.995C300.481 237.732 295.191 250.822 287.98 262.709C282.978 270.959 276.716 279.305 267.722 283.501C258.485 287.813 248.159 286.454 238.444 285.187C238.244 285.173 238.091 285.213 237.907 285.217C247.901 263.855 257.894 242.493 267.87 221.147C267.87 221.147 267.888 221.132 267.89 221.098C268.98 218.653 265.471 217.238 263.859 219.045C263.696 219.217 263.534 219.39 263.416 219.649C253.246 241.382 243.073 263.149 232.903 284.882C232.667 284.682 232.361 284.51 231.983 284.433C213.694 279.91 210.459 259.274 208.959 243.218C207.36 226.187 213.413 212.466 219.207 196.939C222.865 187.141 225.822 176.61 224.386 166.087C222.667 153.407 214.082 144.571 205.061 136.238C205.03 136.203 204.981 136.183 204.933 136.162C202.722 134.337 199.308 137.304 201.505 139.329C201.598 139.436 201.708 139.527 201.819 139.618C216.574 153.364 223.322 166.981 217.527 187.285C213.654 200.892 206.273 213.301 204.364 227.48C201.526 248.492 206.104 282.885 230.483 288.921C230.665 288.951 230.829 288.995 231.013 288.992C229.011 293.26 227.009 297.529 225.007 301.798C209.32 298.76 196.753 286.922 190.726 272.303C184.443 257.064 185.407 239.679 190.016 224.152C193.538 212.224 201.423 197.378 204.475 183.112C204.677 182.842 204.736 182.479 204.677 182.124C207.131 169.72 205.741 157.814 194.435 148.72C194.261 148.591 194.121 148.431 193.947 148.302C192.76 147.367 191.452 149.346 192.657 150.266C192.783 150.375 192.909 150.484 193.035 150.593C199.281 155.624 202.128 162.204 202.883 169.322C195.396 167.961 188.033 170.551 180.52 170.274C180.236 170.271 179.968 170.286 179.687 170.249C178.257 170.149 178.047 172.205 179.309 172.544C179.391 172.567 179.455 172.605 179.522 172.609C187.384 173.144 195.272 169.973 203.066 171.723C203.205 174.756 202.989 177.847 202.522 180.937C193.319 179.507 183.886 180.899 174.662 181.922C174.09 181.982 173.534 182.06 172.979 182.105C171.465 182.266 171.921 184.586 173.42 184.407C173.453 184.409 173.504 184.396 173.537 184.398C183.009 183.41 192.656 181.832 202.145 183.232C201.612 186.068 200.865 188.871 200.008 191.584C200.023 191.134 199.8 190.734 199.209 190.592C189.879 188.585 180.483 188.727 171.259 191.186C169.795 191.585 170.236 193.887 171.7 193.489C180.513 191.168 189.55 190.9 198.468 192.828C199.092 192.972 199.568 192.622 199.815 192.188C199.045 194.606 198.198 196.935 197.291 199.159C194.826 205.266 192.338 211.238 190.16 217.315C190.166 216.747 189.82 216.205 189.104 216.172C179.57 215.653 170.298 217.374 161.544 221.236C161.526 221.251 161.508 221.267 161.49 221.282C160.78 221.65 160.777 222.401 161.142 222.928C161.428 223.365 161.962 223.62 162.581 223.363C170.973 219.659 179.789 218.023 188.939 218.532C189.356 218.544 189.651 218.381 189.869 218.129C188.766 221.242 187.777 224.413 186.902 227.608C186.82 227.586 186.756 227.548 186.656 227.541C177.012 226.931 167.696 229.033 159.252 233.718C159.252 233.718 159.252 233.718 159.234 233.734C158.468 234.181 158.52 235.103 158.969 235.619C159.262 235.957 159.734 236.14 160.256 235.843C168.336 231.349 177.113 229.309 186.343 229.874C185.685 232.6 185.139 235.384 184.74 238.229C184.586 238.051 184.36 237.935 184.061 237.914C175.585 237.069 165.401 241.799 157.899 245.665C157.64 245.797 157.362 245.945 157.12 246.061C155.923 246.696 156.587 248.429 157.731 248.309C157.866 248.285 158.002 248.261 158.157 248.188C165.453 244.408 175.505 239.418 183.929 240.276C184.195 240.295 184.399 240.243 184.557 240.137C184.429 241.247 184.286 242.339 184.209 243.436C184.062 245.781 184.046 248.168 184.131 250.529C184.047 250.539 183.983 250.502 183.898 250.512C174.29 252.026 165.756 256.321 157.349 260.942C156.845 261.224 156.341 261.506 155.84 261.754C154.519 262.497 155.522 264.622 156.844 263.879C157.017 263.791 157.174 263.685 157.33 263.613C165.894 258.886 174.493 254.378 184.255 252.825C184.475 255.881 184.916 258.901 185.558 261.902C175.649 264.364 165.968 271.217 157.781 277.707C156.808 278.491 155.817 279.29 154.879 280.042C153.71 280.996 155.256 282.774 156.425 281.821C156.905 281.404 157.434 281.006 157.947 280.591C166.036 274.061 176.005 266.677 186.031 264.207C186.031 264.207 186.031 264.207 186.049 264.191C187.145 268.577 188.668 272.843 190.659 276.857C178.506 282.986 168.273 291.755 160.359 302.723C159.582 303.805 158.789 304.868 158.077 305.987C157.252 307.265 159.199 308.571 160.041 307.277C160.303 306.861 160.615 306.466 160.893 306.068C168.77 294.445 179.181 285.271 191.749 278.938C193.466 282.098 195.429 285.075 197.694 287.79C189.749 291.792 182.291 299.803 177.266 306.949C172.443 313.826 168.743 321.6 165.706 329.454C165.158 330.835 164.644 332.218 164.145 333.62C163.629 335.037 165.863 335.811 166.364 334.377C166.489 334.018 166.63 333.677 166.755 333.319C169.78 325.163 173.381 317.132 178.148 309.867C183.008 302.459 191.113 293.541 199.269 289.637C201.115 291.654 203.089 293.529 205.242 295.217C191.526 314.881 179.472 336.566 178.687 360.945C178.65 361.945 178.614 362.944 178.611 363.946C178.626 365.4 180.8 365.603 180.928 364.242C180.931 364.209 180.951 364.16 180.953 364.127C180.794 338.913 193.098 316.762 207.115 296.618C212.018 300.068 217.653 302.601 224.023 303.934C212.989 327.51 201.974 351.072 190.94 374.648C190.567 375.441 190.212 376.217 189.84 377.01C188.563 379.743 193.018 381.241 194.31 378.526L194.219 378.636ZM349.032 239.401C347.63 242.025 345.511 244.148 343.381 246.187C341.836 244.158 340.219 242.19 338.614 240.307C341.618 237.946 344.026 235.042 345.737 231.588C345.772 231.557 345.762 231.473 345.782 231.424C347.735 232.63 349.528 233.975 351.177 235.477C350.105 236.471 349.779 238.034 349.05 239.386L349.032 239.401ZM356.413 241.573C354.371 245.939 351.687 249.926 348.449 253.49C347.309 251.64 346.082 249.833 344.802 248.073C346.325 246.594 347.866 245.098 349.186 243.421C349.9 242.519 350.55 241.579 351.088 240.581C351.547 239.745 352.027 237.891 352.878 237.183C354.153 238.542 355.336 240.011 356.413 241.573ZM339.074 228.231C340.719 228.831 342.272 229.541 343.755 230.313C342.18 233.493 340.042 236.132 337.333 238.33C337.231 238.356 337.126 238.416 337.022 238.475C335.383 236.59 333.738 234.804 332.169 233.108C332.169 233.108 332.169 233.108 332.154 233.09C334.241 231.182 336.496 229.503 338.915 228.119C338.979 228.157 339.01 228.193 339.092 228.215L339.074 228.231ZM279.625 309.622C281.196 311.753 282.519 314.101 283.721 316.49C281.017 317.185 277.947 317.387 275.277 317.835C271.864 318.397 268.482 318.744 265.008 318.517C264.687 316.891 264.282 315.276 263.824 313.707C269.085 313.225 274.163 312.028 279.089 310.119C279.364 310.005 279.545 309.817 279.658 309.624L279.625 309.622ZM267.328 340.759C267.328 340.759 267.224 340.819 267.173 340.832C267.171 337.993 266.985 335.157 266.715 332.332C266.654 331.76 266.612 331.173 266.552 330.6C273.802 329.857 280.952 328.638 288.021 326.896C288.057 326.865 288.074 326.85 288.125 326.837C288.665 328.678 289.069 330.544 289.22 332.442C282.376 336.454 275.135 339.22 267.346 340.744L267.328 340.759ZM287.361 324.628C280.412 326.329 273.413 327.541 266.298 328.261C266.05 325.822 265.772 323.347 265.392 320.899C268.854 321.075 272.268 320.73 275.699 320.152C278.622 319.673 281.848 319.398 284.741 318.632C285.135 319.445 285.511 320.273 285.887 321.101C286.44 322.276 286.908 323.461 287.343 324.644L287.361 324.628ZM274.044 303.919C274.119 304.041 274.228 304.166 274.369 304.293C275.833 305.331 277.115 306.59 278.305 307.959C278.221 307.97 278.154 307.966 278.068 308.01C273.225 309.908 268.237 311.028 263.08 311.451C262.561 310.028 261.905 308.663 261.18 307.326C265.589 306.616 269.895 305.465 274.044 303.919Z" fill="#79A10E"/>
<path d="M307.1 135.131C272.378 118.882 247.081 172.807 281.852 189.076C316.575 205.324 341.871 151.399 307.1 135.131Z" fill="#79A10E"/>
<path d="M202.031 151.391C204.085 152.354 205.594 149.169 203.525 148.189C201.471 147.227 199.962 150.411 202.031 151.391Z" fill="#79A10E"/>
<path d="M209.242 160.298C211.296 161.261 212.804 158.076 210.735 157.096C208.681 156.133 207.173 159.318 209.242 160.298Z" fill="#79A10E"/>
<path d="M211.96 173.265C214.014 174.228 215.522 171.044 213.453 170.063C211.399 169.101 209.891 172.285 211.96 173.265Z" fill="#79A10E"/>
<path d="M208.439 188.284C208.481 188.404 208.538 188.541 208.579 188.661C209.348 190.803 212.672 189.6 211.904 187.458C211.862 187.338 211.805 187.2 211.763 187.081C210.994 184.939 207.67 186.142 208.439 188.284Z" fill="#79A10E"/>
<path d="M202.736 208.944L202.995 209.063C205.049 210.025 206.557 206.841 204.488 205.861L204.229 205.742C202.175 204.78 200.667 207.964 202.736 208.944Z" fill="#79A10E"/>
<path d="M198.301 229.627C198.461 229.488 198.639 229.333 198.815 229.212C200.599 227.817 198.598 224.905 196.814 226.299C196.654 226.438 196.476 226.593 196.3 226.714C194.516 228.109 196.517 231.022 198.301 229.627Z" fill="#79A10E"/>
<path d="M195.632 249.181C197.686 250.144 199.195 246.959 197.125 245.979C195.072 245.016 193.563 248.201 195.632 249.181Z" fill="#79A10E"/>
<path d="M199.281 267.241C199.418 267.184 199.538 267.142 199.676 267.085C201.817 266.317 200.613 262.992 198.472 263.76L198.094 263.901C195.953 264.669 197.157 267.994 199.298 267.226L199.281 267.241Z" fill="#79A10E"/>
<path d="M205.597 283.45C207.65 284.413 209.159 281.229 207.09 280.248C205.036 279.286 203.527 282.47 205.597 283.45Z" fill="#79A10E"/>
<path d="M215.8 290.162C214.838 292.216 218.022 293.725 219.002 291.656L219.12 291.397C220.082 289.344 216.898 287.834 215.918 289.903L215.8 290.162Z" fill="#79A10E"/>
<path d="M243.172 295.44L242.795 295.58C240.653 296.349 241.857 299.673 243.999 298.905C244.136 298.848 244.256 298.806 244.394 298.749C246.535 297.981 245.331 294.656 243.19 295.424L243.172 295.44Z" fill="#79A10E"/>
<path d="M259.402 300.504C261.456 301.466 262.965 298.282 260.895 297.301C258.842 296.339 257.333 299.523 259.402 300.504Z" fill="#79A10E"/>
<path d="M275.432 293.378L275.173 293.259C273.12 292.297 271.611 295.481 273.68 296.462L273.939 296.58C275.993 297.542 277.502 294.358 275.432 293.378Z" fill="#79A10E"/>
<path d="M286.658 289.522C288.712 290.485 290.22 287.3 288.151 286.32C286.097 285.358 284.589 288.542 286.658 289.522Z" fill="#79A10E"/>
<path d="M296.709 275.697C298.763 276.66 300.272 273.475 298.202 272.495C296.149 271.533 294.64 274.717 296.709 275.697Z" fill="#79A10E"/>
<path d="M305.783 259.131C305.943 258.992 306.121 258.838 306.297 258.716C308.081 257.322 306.08 254.409 304.296 255.803C304.136 255.943 303.958 256.097 303.782 256.218C301.998 257.613 303.999 260.526 305.783 259.131Z" fill="#79A10E"/>
<path d="M313.039 239.431C310.985 238.469 309.477 241.653 311.546 242.634C313.6 243.596 315.108 240.412 313.039 239.431Z" fill="#79A10E"/>
<path d="M323.762 231.766C325.816 232.729 327.325 229.544 325.255 228.564C323.202 227.601 321.693 230.786 323.762 231.766Z" fill="#79A10E"/>
<path d="M339.031 220.712C336.978 219.75 335.469 222.934 337.538 223.914C339.592 224.877 341.101 221.692 339.031 220.712Z" fill="#79A10E"/>
<path d="M350.375 216.598C348.321 215.635 346.813 218.82 348.882 219.8C350.936 220.762 352.444 217.578 350.375 216.598Z" fill="#79A10E"/>
<path d="M361.397 219.476C363.451 220.438 364.96 217.254 362.89 216.273C360.837 215.311 359.328 218.495 361.397 219.476Z" fill="#79A10E"/>
<path d="M167.173 202.574C176.223 199.986 185.535 199.604 194.732 201.602C196.196 201.922 196.97 199.688 195.488 199.383C186.061 197.336 176.576 197.555 167.294 200.128C167.108 200.165 166.904 200.217 166.733 200.272C165.557 200.607 165.63 202.199 166.491 202.543C166.686 202.624 166.901 202.655 167.173 202.574Z" fill="#79A10E"/>
<path d="M191.84 208.33C193.304 208.65 194.078 206.416 192.596 206.112C183.192 203.982 173.776 204.641 164.791 207.985C164.174 208.209 163.575 208.418 162.956 208.675C161.562 209.262 162.584 211.371 163.96 210.8C172.838 207.08 182.418 206.216 191.822 208.346L191.84 208.33Z" fill="#79A10E"/>
<path d="M412.784 123.205C400.85 109.474 379.497 128.001 391.446 141.75C403.396 155.499 424.733 136.954 412.784 123.205Z" fill="#79A10E"/>
<path d="M423.161 153.713C416.205 145.709 403.743 156.509 410.714 164.53C417.686 172.552 430.133 161.734 423.161 153.713Z" fill="#79A10E"/>
<path d="M153.294 359.13C148.316 353.403 139.426 361.13 144.403 366.857C149.381 372.584 158.272 364.857 153.294 359.13Z" fill="#79A10E"/>
<path d="M147.74 382.69C140.783 374.687 128.321 385.487 135.293 393.508C142.265 401.53 154.711 390.712 147.74 382.69Z" fill="#79A10E"/>
<path d="M163.425 377.394C159.452 372.823 152.324 378.987 156.312 383.576C160.301 388.165 167.413 381.983 163.425 377.394Z" fill="#79A10E"/>
<path d="M190.14 106.465C186.167 101.893 179.039 108.057 183.027 112.646C187.016 117.235 194.128 111.053 190.14 106.465Z" fill="#79A10E"/>
<path d="M186.683 128.201C179.727 120.198 167.265 130.998 174.237 139.019C181.208 147.041 193.655 136.223 186.683 128.201Z" fill="#79A10E"/>
</g>
<defs>
<clipPath id="clip0_934_4211">
<rect width="251.086" height="407.677" fill="white" transform="translate(305.703) rotate(49.0054)"/>
</clipPath>
</defs>
</svg>
