<svg width="152" height="278" viewBox="0 0 152 278" fill="none" xmlns="http://www.w3.org/2000/svg">
<path d="M8.83949 205.106C14.4758 203.898 22.5423 200.931 20.2776 194.059C18.4963 188.664 14.4758 183.308 11.7658 178.312C8.49596 172.262 1.24378 163.437 1.73998 156.026C2.0835 150.875 5.12433 145.121 6.81651 140.342C15.0865 116.965 23.8655 93.7413 33.0516 70.7235C37.2248 60.255 41.3979 49.7351 46.2963 39.5748C46.589 38.9968 46.8689 38.4188 47.1742 37.8536C47.1742 37.8922 47.1615 37.9178 47.1615 37.9564C47.2124 39.5877 47.3651 41.1933 47.6068 42.786C43.51 51.4434 39.7312 60.2678 36.156 69.1949C35.9652 68.8995 35.7616 68.6041 35.5707 68.3086C35.1254 67.615 34.0312 68.2573 34.4766 68.9509C34.8328 69.5161 35.2145 70.0684 35.5835 70.6336C34.8201 72.5603 34.044 74.487 33.2933 76.4266C33.2551 76.388 33.2297 76.3495 33.1915 76.311C32.161 75.0265 30.367 76.8633 31.3976 78.1221C31.6775 78.4689 31.9701 78.79 32.25 79.124C30.736 83.0673 29.2219 87.0107 27.746 90.954C27.2498 90.8127 26.6518 91.3137 27.0081 91.866C27.0972 91.9944 27.1862 92.1101 27.2626 92.2385C25.6467 96.5544 24.0309 100.883 22.415 105.186C22.326 105.083 22.2242 104.981 22.1351 104.878C21.6008 104.248 20.7102 105.16 21.2318 105.79C21.4481 106.047 21.6771 106.291 21.9061 106.535C21.6262 107.28 21.3463 108.038 21.0664 108.783C20.6974 109.746 20.3539 110.722 19.9849 111.686C19.9595 111.686 19.9468 111.686 19.934 111.686C19.2724 111.686 19.1579 112.52 19.5651 112.842C19.3488 113.42 19.1325 114.01 18.9162 114.601C18.8399 114.537 18.7635 114.473 18.6872 114.409C17.4658 113.317 15.6591 115.128 16.8932 116.22C17.2495 116.528 17.6184 116.836 17.9747 117.145C16.3843 121.435 14.8066 125.725 13.2417 130.015C12.7709 130.195 12.3002 130.388 11.8294 130.619C11.0915 130.978 11.7403 132.096 12.4656 131.723C12.5292 131.698 12.5801 131.672 12.6437 131.646C11.3968 135.089 10.1372 138.518 8.92854 141.974C7.99976 144.607 7.08369 147.24 6.2058 149.873C5.21339 150.451 4.19554 151.093 3.13953 151.813C1.79087 152.738 3.06319 154.96 4.42456 154.035C4.61541 153.906 4.81898 153.765 5.00983 153.637C4.94621 153.894 4.88259 154.163 4.8317 154.407C4.69175 154.382 4.56451 154.343 4.42456 154.317C3.62301 154.202 3.27947 155.435 4.08103 155.551C4.27188 155.576 4.43728 155.628 4.62813 155.666C4.36094 158.274 5.12433 160.354 6.81651 163.733C7.529 165.171 8.26694 166.597 9.03033 168.01C8.33055 167.959 8.06337 169.063 8.81403 169.256C9.15755 169.346 9.50108 169.436 9.8446 169.513C11.9948 173.52 14.2468 177.477 16.397 181.458C16.6006 181.831 16.8296 182.229 17.0713 182.627C16.5497 182.82 16.4097 183.693 17.0713 183.835C17.3512 183.899 17.6312 183.95 17.9111 184.015C19.7177 186.892 21.9697 190.154 23.1657 193.186C22.9494 193.16 22.7458 193.134 22.5295 193.109C21.7153 193.019 21.728 194.303 22.5295 194.393C22.8985 194.432 23.2548 194.483 23.6237 194.522C23.7255 194.868 23.8146 195.228 23.8782 195.562C24.7688 200.572 19.5014 204.014 14.5776 205.954C19.9468 206.339 25.5831 205.016 30.4052 202.909C31.1049 201.317 31.8301 199.737 32.5681 198.17C32.6063 198.247 32.6444 198.311 32.6826 198.388C33.0516 199.133 34.1458 198.478 33.7768 197.746C33.6114 197.399 33.4333 197.065 33.2551 196.731C34.5147 194.085 35.8252 191.465 37.1611 188.87C37.1611 188.883 37.1739 188.896 37.1866 188.908C37.5683 189.641 38.6625 188.986 38.2808 188.266C38.1408 188.009 38.0009 187.752 37.8736 187.483C40.1002 183.167 42.4031 178.902 44.7059 174.625C44.7696 174.766 44.8459 174.895 44.9095 175.036C45.2658 175.781 46.3727 175.126 46.0037 174.394C45.8129 174.008 45.622 173.649 45.4312 173.264C47.8358 168.794 50.2405 164.311 52.5561 159.789C53.892 157.169 55.1389 154.51 56.3476 151.838C56.7929 152.005 57.2382 152.134 57.6708 152.314C59.1976 152.917 59.8592 150.425 58.3451 149.835C58.027 149.706 57.709 149.603 57.3909 149.475C58.9686 145.853 60.4444 142.205 61.844 138.518C61.8949 138.518 61.933 138.544 61.9839 138.544C63.5489 138.852 64.2105 136.515 62.76 136.103C63.5616 133.92 64.3504 131.736 65.1138 129.54C65.3556 129.617 65.5973 129.681 65.839 129.758C66.0299 129.81 66.1953 129.784 66.3225 129.694C66.3734 129.797 66.437 129.899 66.5643 129.977C66.6024 130.002 66.6406 130.028 66.6788 130.054C66.9078 130.195 67.2768 130.156 67.4549 129.951C67.4803 129.925 67.5058 129.899 67.5312 129.874C67.6076 129.784 67.6457 129.681 67.6712 129.578C67.7348 129.514 67.7857 129.45 67.862 129.399C67.2259 131.222 66.5897 133.034 65.9281 134.845C65.9281 134.845 65.9027 134.845 65.8899 134.845C65.1393 134.575 64.8212 135.705 65.4828 136.039C62.4801 144.209 59.1594 152.237 55.2152 160.085C54.2101 160.997 53.205 161.909 52.1108 162.718C51.4492 163.193 52.0853 164.311 52.7469 163.823C53.065 163.591 53.3704 163.322 53.6885 163.078C53.5103 163.424 53.3322 163.771 53.1541 164.118C51.9199 163.925 51.0039 165.557 52.0345 166.276C45.4693 178.748 38.4462 190.964 32.7335 203.885C35.2908 209.165 37.8609 214.444 40.431 219.71C41.7796 216.024 43.1156 212.35 44.4642 208.664C44.8841 207.495 46.5381 207.392 46.9198 208.664C48.6374 214.315 52.0345 218.85 56.7547 221.894C55.2916 219.184 54.3119 216.268 54.0956 213.07C53.803 208.895 55.3806 207.7 59.0703 206.185C62.2257 204.887 65.4064 203.641 68.6 202.408C68.9689 202.974 69.9868 202.665 69.745 201.959C73.6892 200.443 77.6334 198.94 81.5521 197.412C83.3588 196.705 85.5726 196.05 87.7864 195.241C88.1299 195.716 88.4735 196.179 88.8043 196.654C88.9697 196.885 89.1732 197.039 89.3895 197.129C83.9313 199.454 78.2695 201.419 72.7477 203.577C69.0325 205.029 64.2868 206.069 60.9152 208.189C57.4927 210.346 56.0804 211.631 57.0601 215.767C57.8107 218.952 59.3503 221.753 61.3223 224.322C61.9839 225.182 61.4241 227.019 60.0882 226.467C53.4722 223.756 48.5229 218.991 45.6983 212.62C44.4006 216.165 43.1028 219.71 41.8178 223.255C41.4743 224.206 40.0238 224.63 39.4895 223.564C36.9067 218.31 34.362 213.044 31.8047 207.777C24.7561 230.05 23.5092 253.428 22.4659 276.664C22.3896 278.308 19.845 278.321 19.9213 276.664C20.9901 252.786 22.2751 228.74 29.7436 205.889C23.153 208.42 15.5573 209.563 8.80131 207.482C7.65623 207.135 7.51627 205.286 8.80131 205.003L8.83949 205.106Z" fill="#57B4E4"/>
<path d="M102.672 174.137C103.423 172.108 104.174 170.091 104.912 168.061C104.912 168.087 104.937 168.1 104.95 168.113C105.395 168.806 106.489 168.164 106.044 167.471C105.853 167.162 105.65 166.867 105.459 166.571C106.731 163.09 107.978 159.609 109.225 156.116C112.736 146.277 116.197 136.425 119.569 126.547C120.383 126.072 121.121 125.494 121.77 124.774C122.584 123.875 121.821 122.668 120.93 122.565C123.093 116.181 125.243 109.785 127.343 103.375C128.64 99.3802 129.925 95.3855 131.185 91.3908C132.317 91.3137 132.546 89.9008 131.859 89.2071C132.737 86.3427 133.615 83.4655 134.442 80.5883C135.256 77.7753 136.071 74.9494 136.719 72.085C137.381 69.1564 137.457 66.5104 137.127 64.0313C137.432 63.8387 137.737 63.6588 138.043 63.4662C138.73 63.0166 138.094 61.9119 137.407 62.3615C137.241 62.4643 137.088 62.5542 136.923 62.6569C136.554 60.7944 135.969 59.0219 135.218 57.3007C135.574 56.9795 135.943 56.6841 136.3 56.3501C136.898 55.785 135.994 54.873 135.396 55.4382C135.167 55.6565 134.913 55.862 134.671 56.0676C132.979 52.5224 130.701 49.0928 128.449 45.3421C127.126 43.1328 125.803 40.9364 124.48 38.7271C124.607 38.1747 124.722 37.6353 124.823 37.0701C125.078 35.7214 123.437 35.0535 122.699 35.7728C120.065 31.3927 117.431 27.0126 114.798 22.6325C113.716 20.8343 112.635 19.0231 111.553 17.2249C110.904 16.1459 110.255 15.067 109.607 13.9751C109.479 13.821 109.378 13.7054 109.263 13.5641C109.25 13.6155 109.263 13.6797 109.225 13.7311C101.171 32.9084 93.9062 52.3297 87.0612 71.918C86.9976 71.9437 86.9339 71.9823 86.8703 72.008C86.8067 71.8281 86.6922 71.6483 86.5014 71.4942C85.967 71.0574 85.4453 70.6079 84.9364 70.1455C86.0051 67.0884 87.0866 64.0313 88.1808 60.9743C88.3589 61.1669 88.5371 61.3853 88.7279 61.578C89.3132 62.1688 90.2038 61.2569 89.6312 60.666C89.3004 60.332 88.9951 59.9724 88.6897 59.6256C90.5219 54.5519 92.4049 49.491 94.3133 44.443C94.8986 44.7898 95.6238 43.9806 95.0767 43.454C94.9749 43.364 94.8986 43.2484 94.8095 43.1457C96.3109 39.1895 97.8377 35.2461 99.3899 31.3156C99.6825 31.6239 99.9624 31.945 100.28 32.2404C100.878 32.8056 101.782 31.8936 101.184 31.3285C100.739 30.9046 100.319 30.455 99.9115 30.0055C102.176 24.2895 104.479 18.5993 106.858 12.9219C105.764 13.3457 104.695 13.7953 104.581 13.8339C102.202 14.6302 99.8225 15.4395 97.456 16.2358C96.5908 16.5313 95.7256 16.8267 94.8604 17.1093C94.8604 16.8395 94.8223 16.5826 94.835 16.3257C94.835 15.5037 93.5754 15.5037 93.5627 16.3257C93.5627 16.7368 93.5881 17.135 93.6136 17.5332C91.9596 18.0855 90.3056 18.6507 88.6516 19.203C88.6516 19.036 88.6516 18.8819 88.6516 18.7149C88.6897 17.8928 87.4174 17.8928 87.3792 18.7149C87.3665 19.0231 87.3538 19.3314 87.3411 19.6397C84.9364 20.4489 82.519 21.271 80.1143 22.0802C80.1143 22.016 80.1143 21.9518 80.1271 21.8875C80.2161 21.0655 78.9311 21.0783 78.8548 21.8875C78.8293 22.0931 78.8166 22.3114 78.8039 22.5169C76.7427 23.2106 74.6943 23.9042 72.6332 24.5978C72.684 24.4565 72.7349 24.3152 72.7858 24.1868C73.3965 22.6454 70.941 21.9903 70.3303 23.506C70.0504 24.1996 69.8086 24.9061 69.5796 25.6125C65.8772 26.7943 62.0221 27.8861 58.5614 29.5816C56.7674 30.4679 55.317 31.5083 54.0574 32.7029C54.1337 32.2918 54.1846 31.8808 54.2864 31.4698C54.4645 30.6605 53.2304 30.3266 53.065 31.123C52.836 32.1762 52.6833 33.2295 52.5688 34.2699C51.0547 36.0939 49.8588 38.2004 48.6755 40.5896C48.5865 39.7033 48.5229 38.8041 48.4974 37.8922C48.4847 37.2885 47.8104 37.1343 47.4541 37.4041C49.2354 34.0644 51.271 31.0587 54.5536 28.9008C59.3248 25.7538 65.3174 24.3666 70.6484 22.5555C83.4224 18.2396 96.1836 13.9366 108.958 9.62076C109.492 9.44093 110.115 9.7492 110.395 10.2116C117.164 21.4765 123.92 32.7286 130.689 43.9934C133.501 48.6818 136.821 53.3316 138.844 58.4438C140.918 63.6974 140.244 68.5399 138.933 73.8961C135.892 86.3556 131.656 98.5838 127.622 110.735C120.218 133.034 112.889 155.602 104.314 177.528C103.779 176.372 103.258 175.216 102.723 174.06L102.672 174.137Z" fill="#57B4E4"/>
<path d="M91.0563 195.446C90.8018 195.074 90.5347 194.727 90.2675 194.355C92.8757 193.211 95.2549 191.773 96.6163 189.666C98.0158 187.508 98.9828 184.811 99.848 182.165C100.064 182.627 100.268 183.077 100.471 183.539C100.815 184.284 101.909 183.642 101.566 182.897C101.184 182.062 100.802 181.227 100.421 180.405C100.751 179.416 101.069 178.44 101.413 177.528C101.629 176.963 101.833 176.398 102.036 175.832C102.405 176.642 102.774 177.451 103.143 178.26C103.309 178.607 103.627 178.645 103.894 178.517C102.609 181.78 101.311 185.016 99.9625 188.253C98.194 192.518 95.9674 194.342 91.4634 196.358C91.3744 196.397 91.2726 196.436 91.1835 196.474C91.298 196.166 91.2726 195.819 91.0181 195.459L91.0563 195.446Z" fill="#57B4E4"/>
<path d="M68.4728 119.688C69.4143 116.798 70.3558 113.895 71.2719 110.992C71.3482 110.735 71.4373 110.478 71.5136 110.234C71.9971 109.887 72.2261 109.245 72.0098 108.706C72.6205 106.779 73.244 104.852 73.8674 102.938C74.1091 103.054 74.3636 103.169 74.6053 103.285C75.3433 103.606 75.9921 102.502 75.2415 102.18C74.9107 102.039 74.5799 101.872 74.2491 101.731C77.3917 92.0458 80.6234 82.3994 83.9695 72.7915C84.1986 72.9842 84.4276 73.1768 84.6566 73.3695C84.9111 73.575 85.1782 73.6649 85.4454 73.6649C85.5345 74.0246 85.7889 74.3457 86.1198 74.5384C85.2291 77.0816 84.364 79.6378 83.4861 82.1939C83.2443 82.4765 83.1171 82.8361 83.1425 83.1958C79.491 93.9469 75.9413 104.749 72.4551 115.59C71.45 115.616 70.7884 117.106 71.7045 117.902C71.0174 120.048 70.3176 122.18 69.6051 124.299C69.0708 124.556 68.5746 124.864 68.1674 125.275C67.6331 125.828 68.371 126.637 68.9435 126.264C68.7781 126.74 68.6255 127.215 68.4601 127.69C67.6839 128.037 67.0096 128.448 66.5516 128.936C66.488 128.795 66.3607 128.666 66.1572 128.615C65.9409 128.551 65.7246 128.487 65.5083 128.422C66.3862 125.892 67.2259 123.349 68.0656 120.805C68.5491 120.805 68.7527 120.112 68.4219 119.714L68.4728 119.688Z" fill="#57B4E4"/>
<path d="M48.701 84.3903C48.9045 84.4417 49.0699 84.5958 49.1336 84.8014C56.4621 91.7889 64.9484 97.4663 74.2871 101.692C74.6179 101.846 74.936 102.001 75.2796 102.142C76.0302 102.476 75.3813 103.58 74.6434 103.246C74.3889 103.131 74.1472 103.015 73.9055 102.9C72.7731 102.386 71.6662 101.859 70.5593 101.307C70.572 101.358 70.5974 101.397 70.5974 101.461C70.6865 103.478 70.9919 105.443 71.5008 107.395C71.5644 107.639 71.4881 107.845 71.3481 107.986C71.399 108.012 71.4626 108.05 71.5135 108.076C71.7934 108.23 71.9461 108.436 72.0352 108.667C72.2515 109.206 72.0224 109.849 71.539 110.196C71.1827 110.452 70.712 110.555 70.2285 110.285C55.6351 102.424 42.8611 91.9174 32.2754 79.1111C31.9955 78.7772 31.7029 78.4432 31.423 78.1092C30.3924 76.8376 32.1864 75.0136 33.2169 76.2981C33.2551 76.3366 33.2806 76.3752 33.3187 76.4137C34.4384 77.7881 35.5962 79.1368 36.754 80.4598C36.843 78.546 37.4156 76.722 38.4843 75.1292C38.5352 75.0522 38.5988 75.0008 38.6624 74.9623C37.6064 73.5493 36.5886 72.1107 35.5962 70.6336C35.2272 70.0812 34.8455 69.5289 34.4892 68.9509C34.0439 68.2573 35.1508 67.6022 35.5834 68.3086C35.7743 68.6041 35.9778 68.8995 36.1687 69.1949C39.7948 74.7696 43.9934 79.8561 48.6882 84.3903H48.701ZM65.6227 99.0848C65.6227 98.9563 65.6736 98.8536 65.7245 98.7765C64.6939 98.1856 63.6761 97.5691 62.6709 96.9397C62.531 98.9563 62.5946 100.96 62.8618 102.964C63.9178 103.645 64.9738 104.351 66.0553 105.006C66.0298 104.955 66.0044 104.916 65.9917 104.865C65.6227 102.951 65.4827 101.037 65.5973 99.0976L65.6227 99.0848ZM61.4241 96.5158C61.4241 96.3874 61.475 96.2846 61.5386 96.1947C60.2027 95.3341 58.8922 94.435 57.5944 93.5101C57.2891 95.2442 57.1618 96.9782 57.2255 98.738C57.2255 98.8536 57.2 98.9563 57.1618 99.0462C58.5868 100.087 60.0245 101.101 61.5004 102.078C61.3096 100.228 61.2841 98.3912 61.4368 96.5158H61.4241ZM56.4366 92.7523C56.4366 92.7523 56.4621 92.7009 56.4621 92.6752C55.3424 91.8403 54.2482 90.9797 53.1795 90.0934C52.607 91.8917 52.467 93.7157 52.8487 95.591C52.8614 95.6552 52.8487 95.7066 52.8487 95.7708C53.8665 96.58 54.8844 97.4021 55.9404 98.1857C55.915 96.3617 56.0804 94.5506 56.4239 92.7523H56.4366ZM52.1235 89.22C51.0038 88.2695 49.9097 87.2804 48.8409 86.2785C48.3702 87.974 47.9757 89.6824 47.6704 91.4036C48.9173 92.5083 50.1768 93.6001 51.4619 94.6533C51.271 92.8037 51.4619 90.9797 52.1235 89.2071V89.22ZM69.6941 100.896C68.7526 100.408 67.8111 99.9068 66.8823 99.3931C66.806 101.114 66.9077 102.81 67.2385 104.505C67.3276 104.968 66.9714 105.263 66.6151 105.302C67.7856 105.995 68.9816 106.663 70.1776 107.331C69.7068 105.404 69.4142 103.465 69.3251 101.474C69.3124 101.166 69.4905 100.973 69.7068 100.896H69.6941ZM37.9881 81.3461C37.9881 81.5003 37.9372 81.6287 37.8736 81.7186C39.095 83.0673 40.3292 84.3903 41.5887 85.6877C41.7669 83.9279 42.2758 82.2453 43.1155 80.6525C43.141 80.6011 43.1919 80.5626 43.23 80.524C41.9323 79.0597 40.6854 77.5569 39.4767 76.0027C38.4461 77.6211 37.9372 79.4066 38.0008 81.3461H37.9881ZM44.1206 81.5131C43.2682 83.1958 42.8356 84.9684 42.7974 86.8437C44.0316 88.0639 45.2784 89.2714 46.5635 90.4402C46.8943 88.7062 47.2887 86.985 47.7976 85.2766C46.538 84.0564 45.3166 82.7976 44.1334 81.5003L44.1206 81.5131Z" fill="#57B4E4"/>
<path d="M83.7914 84.0821C83.3843 83.8637 83.2189 83.5297 83.1807 83.1701C83.1425 82.8104 83.2825 82.4508 83.5242 82.1682C83.8805 81.7443 84.453 81.5259 85.0765 81.8599C98.7793 89.4255 115.879 88.1539 131.032 88.8346C131.389 88.8475 131.656 89.0016 131.859 89.1943C132.546 89.8751 132.33 91.288 131.185 91.3779C131.134 91.3779 131.096 91.4036 131.032 91.4036C115.383 90.71 97.965 91.9045 83.7914 84.0821Z" fill="#57B4E4"/>
<path d="M87.3666 74.6026C86.9086 74.8081 86.4887 74.7182 86.1452 74.5127C85.8144 74.3072 85.5599 73.9861 85.4709 73.6392C85.2037 73.6392 84.9365 73.5493 84.682 73.3438C84.453 73.1511 84.224 72.9585 83.995 72.7658C71.3355 62.0147 64.3759 41.7328 69.5288 25.6768C69.7578 24.9703 69.9996 24.2638 70.2795 23.5702C70.8775 22.0545 73.3457 22.7224 72.735 24.251C72.6841 24.3923 72.6333 24.5207 72.5824 24.662C66.8188 39.7932 73.0277 59.3815 84.9238 70.1712C85.4327 70.6336 85.9543 71.096 86.4887 71.5199C86.6796 71.674 86.7941 71.8538 86.8577 72.0337C86.9213 72.008 86.9849 71.9694 87.0485 71.9437C102.851 64.7763 118.895 54.9629 122.355 36.4022C122.406 36.1324 122.533 35.9398 122.686 35.7856C123.424 35.0535 125.065 35.7342 124.811 37.0829C124.709 37.6481 124.582 38.2004 124.467 38.7399C120.192 57.2364 103.601 67.3324 87.3793 74.5898L87.3666 74.6026Z" fill="#57B4E4"/>
<path d="M88.8552 196.731C88.5244 196.256 88.1681 195.78 87.8373 195.318C78.6512 182.64 66.5261 172.852 52.2635 166.481C52.1744 166.443 52.1363 166.392 52.0726 166.34C51.0548 165.621 51.9581 163.99 53.1923 164.182C53.3068 164.195 53.434 164.208 53.5485 164.259C59.3248 166.841 64.7576 169.988 69.7832 173.649C73.2693 164.041 76.7555 154.433 80.2543 144.825C79.491 145.493 78.6258 146.084 77.8369 146.7C74.9234 148.987 71.908 151.119 68.7781 153.097C65.9536 154.883 62.9891 156.424 60.1009 158.107C57.7344 159.481 55.8387 161.433 53.7267 163.142C53.4213 163.399 53.1159 163.656 52.7851 163.887C52.1235 164.375 51.4874 163.257 52.149 162.782C53.2432 161.973 54.2483 161.061 55.2534 160.149C56.1949 159.301 57.1492 158.466 58.2052 157.76C60.5717 156.18 63.1926 154.985 65.6355 153.534C68.3073 151.941 70.9156 150.233 73.4475 148.409C75.7376 146.765 79.9617 144.632 81.005 141.858C81.005 141.845 81.0177 141.832 81.0305 141.819C80.9668 141.819 80.8905 141.819 80.8142 141.781C75.7376 139.906 70.6611 138.017 65.5846 136.142C65.5591 136.142 65.5464 136.116 65.521 136.104C64.8594 135.77 65.1774 134.626 65.9281 134.909C65.9281 134.909 65.9536 134.909 65.9663 134.909C70.8647 136.72 75.7758 138.531 80.6742 140.355C80.3052 139.559 79.9363 138.75 79.5673 137.953C79.4528 138.005 79.3256 138.017 79.1602 137.953C75.2414 136.502 71.3227 135.05 67.404 133.599C66.6406 133.316 66.9714 132.07 67.7475 132.366C71.4627 133.74 75.1905 135.114 78.9057 136.489C78.5367 135.68 78.155 134.87 77.7861 134.048C77.7097 134.048 77.6334 134.048 77.5443 134.01C74.5162 132.892 71.5008 131.775 68.4727 130.657C67.7094 130.375 68.0402 129.129 68.8163 129.424C71.5645 130.439 74.3126 131.454 77.0608 132.481C76.2211 130.657 75.3941 128.846 74.5544 127.022C72.4932 127.575 69.4651 128.191 67.9002 129.463C67.8239 129.514 67.773 129.578 67.7094 129.643C67.6839 129.745 67.6457 129.848 67.5694 129.938C67.5439 129.964 67.5185 129.989 67.4931 130.015C67.3149 130.221 66.946 130.259 66.7169 130.118C66.6788 130.092 66.6406 130.066 66.6024 130.041C66.4879 129.964 66.4116 129.861 66.3607 129.758C66.2335 129.835 66.0681 129.874 65.8772 129.822C65.6355 129.758 65.3937 129.681 65.152 129.604C64.2741 129.347 63.3962 129.09 62.5056 128.821C60.5335 131.171 58.167 133.046 55.4824 134.408C57.8489 135.063 60.2536 135.641 62.6837 136.116C62.7219 136.116 62.7473 136.142 62.7855 136.155C64.2359 136.566 63.5743 138.891 62.0094 138.595C61.9585 138.595 61.9203 138.57 61.8694 138.57C45.533 135.346 30.6215 128.024 17.9747 117.145C17.6185 116.836 17.2495 116.541 16.8932 116.22C15.6591 115.128 17.4658 113.317 18.6872 114.409C18.7635 114.473 18.8399 114.537 18.9162 114.601C19.8323 115.411 20.7611 116.181 21.6898 116.952C21.728 116.952 21.7535 116.926 21.8044 116.926C24.9215 116.746 27.8606 115.924 30.6342 114.511C29.3237 113.548 28.0641 112.52 26.83 111.441C26.8173 111.441 26.8045 111.467 26.7918 111.467C24.6034 112.431 22.3387 112.944 19.9468 112.97C19.7941 112.97 19.6669 112.919 19.5778 112.842C19.1707 112.52 19.2852 111.698 19.9468 111.686C19.9722 111.686 19.9849 111.686 19.9977 111.686C21.9952 111.647 23.9164 111.262 25.7612 110.504C24.4253 109.271 23.1403 107.935 21.9189 106.535C21.7026 106.278 21.4608 106.047 21.2445 105.79C20.7229 105.16 21.6135 104.248 22.1479 104.878C22.2369 104.981 22.3387 105.083 22.4278 105.186C29.54 113.497 38.8533 118.827 48.8028 122.783C48.9809 122.758 49.1336 122.835 49.2481 122.963C53.4976 124.633 57.8617 126.072 62.213 127.382C62.3784 127.356 62.5565 127.408 62.6837 127.523C63.638 127.806 64.6049 128.101 65.5591 128.371C65.7754 128.435 65.9917 128.499 66.208 128.564C66.4116 128.615 66.5261 128.743 66.6024 128.885C67.0605 128.397 67.7348 127.986 68.5109 127.639C69.9613 126.997 71.7171 126.573 72.7986 126.226C76.0684 125.16 79.3892 124.209 82.7099 123.297C81.8702 122.989 81.0432 122.668 80.2289 122.321C80.2034 122.321 80.1907 122.334 80.178 122.347C78.3713 122.706 76.6283 123.31 74.8725 123.875C73.104 124.453 70.4448 124.774 69.1343 126.123C69.0962 126.162 69.058 126.187 69.0071 126.213C68.4346 126.586 67.6966 125.776 68.231 125.224C68.6381 124.8 69.1343 124.492 69.6687 124.248C70.6866 123.773 71.8444 123.516 72.8749 123.182C74.6689 122.604 76.4501 121.974 78.2695 121.486C76.0939 120.471 73.9691 119.303 71.908 117.967C71.8571 117.928 71.8062 117.89 71.768 117.851C70.852 117.068 71.5136 115.578 72.5187 115.539C72.735 115.539 72.964 115.59 73.2057 115.744C79.8345 120.073 87.163 122.604 94.9368 123.888C100.879 124.864 115.332 128.114 120.001 122.925C120.294 122.604 120.638 122.501 120.956 122.539C121.846 122.642 122.61 123.85 121.795 124.749C121.146 125.468 120.408 126.046 119.594 126.521C113.894 129.835 104.53 127.716 98.7283 127.009C96.8071 126.778 94.8986 126.47 93.0156 126.11C94.6696 129.707 96.3109 133.303 97.9649 136.887C97.9776 136.926 97.9776 136.951 97.9904 136.99C104.619 133.881 111.261 130.786 117.889 127.677C118.627 127.331 119.276 128.435 118.525 128.782C108.589 133.432 98.652 138.082 88.7025 142.731C94.6442 150.413 100.242 158.351 105.472 166.533C105.662 166.841 105.866 167.137 106.057 167.432C106.502 168.126 105.395 168.781 104.963 168.074C104.963 168.061 104.937 168.036 104.924 168.023C100.268 160.688 95.3058 153.572 90.0766 146.649C94.2752 155.795 98.4738 164.953 102.685 174.098C103.22 175.254 103.741 176.41 104.276 177.567C104.454 177.965 104.225 178.324 103.932 178.466C103.665 178.594 103.334 178.556 103.181 178.209C102.812 177.4 102.443 176.59 102.074 175.781C94.4024 159.083 86.7431 142.372 79.0711 125.674C79.0711 125.674 79.0711 125.674 79.0711 125.661C77.9769 125.982 76.8827 126.303 75.8013 126.637C84.0204 144.543 92.2395 162.448 100.459 180.354C100.84 181.189 101.222 182.024 101.604 182.846C101.947 183.591 100.853 184.246 100.51 183.488C100.306 183.026 100.09 182.576 99.8861 182.114C94.008 169.307 88.13 156.501 82.2519 143.695C82.4427 150.207 82.1246 156.668 81.3104 163.142C80.5088 169.513 79.5546 175.832 80.0253 182.255C83.7659 185.941 87.2012 189.962 90.3183 194.303C90.5728 194.663 90.8527 195.023 91.1072 195.395C91.3616 195.755 91.3871 196.114 91.2726 196.41C91.0435 197.039 90.1911 197.437 89.504 197.168C89.2878 197.078 89.0842 196.924 88.9188 196.692L88.8552 196.731ZM61.1697 128.422C59.4012 127.883 57.6326 127.318 55.8769 126.74C55.8769 126.74 55.8769 126.74 55.8641 126.752C53.1287 128.846 50.126 130.439 46.9071 131.582C49.1082 132.43 51.3347 133.201 53.6121 133.881C56.513 132.635 59.0576 130.786 61.1697 128.409V128.422ZM48.8919 124.209C45.9655 126.2 42.7593 127.562 39.3241 128.281C41.2071 129.206 43.1283 130.066 45.0749 130.876C48.4466 129.848 51.5383 128.294 54.3883 126.239C52.5434 125.609 50.7113 124.929 48.9046 124.222L48.8919 124.209ZM40.6855 120.934C38.9551 122.051 36.8812 122.051 34.9473 122.616C33.5096 123.027 32.2119 123.464 30.8123 123.516C33.1025 124.967 35.4563 126.303 37.8482 127.536C37.9118 127.382 38.039 127.241 38.2681 127.202C41.5634 126.598 44.5915 125.391 47.4033 123.631C45.2022 122.732 43.0265 121.756 40.9017 120.69C40.8509 120.78 40.7872 120.87 40.6855 120.934ZM31.8302 115.385C29.082 116.862 26.1684 117.735 23.1021 118.069C25.0233 119.572 26.9827 120.985 28.9929 122.321C29.1329 122.18 29.3237 122.103 29.5655 122.141C31.6266 122.539 33.3951 121.64 35.329 121.165C36.8049 120.805 38.3062 120.754 39.6422 120.035C36.9449 118.635 34.3366 117.08 31.8429 115.346C31.8429 115.346 31.8302 115.359 31.8174 115.372L31.8302 115.385ZM87.8246 141.768C90.84 140.355 93.8426 138.955 96.858 137.542C95.1404 133.791 93.41 130.028 91.6924 126.277C91.6288 126.136 91.6288 125.995 91.6543 125.866C89.0078 125.314 86.4123 124.595 83.8677 123.721C83.9186 124.017 83.8041 124.351 83.4351 124.453C82.3918 124.736 81.3358 125.044 80.2925 125.34C82.8117 130.811 85.3181 136.283 87.8373 141.768H87.8246ZM79.9999 163.193C80.6996 157.657 81.0305 152.108 80.9796 146.533C77.6207 155.795 74.249 165.056 70.8901 174.317C70.8774 174.368 70.8392 174.394 70.8265 174.432C73.5493 176.475 76.1448 178.658 78.6131 180.983C78.3586 175.01 79.2365 169.127 79.9999 163.193Z" fill="#57B4E4"/>
<path d="M27.7588 145.185C37.8991 145.313 47.8613 145.968 57.4164 149.539C57.7345 149.655 58.0526 149.77 58.3706 149.899C59.8847 150.49 59.2231 152.982 57.6963 152.378C57.251 152.198 56.8184 152.07 56.3731 151.903C48.2685 148.948 39.8458 148.062 31.2577 147.831C36.4105 156.09 41.1435 164.593 45.4567 173.315C45.6475 173.687 45.8384 174.06 46.0292 174.445C46.3854 175.19 45.2913 175.832 44.935 175.087C44.8714 174.946 44.7951 174.818 44.7314 174.676C42.9884 171.131 41.169 167.637 39.286 164.169C39.2605 164.169 39.2351 164.169 39.1969 164.157C33.9422 161.999 28.395 161.369 22.835 160.534C28.0896 169.41 33.1025 178.414 37.8864 187.547C38.0264 187.804 38.1663 188.061 38.2935 188.33C38.6752 189.063 37.581 189.705 37.1994 188.973C37.1994 188.96 37.1866 188.947 37.1739 188.934C34.6293 184.066 32.021 179.236 29.3365 174.432C26.3847 173.726 23.4457 173.007 20.5066 172.274C24.9088 180.367 29.1583 188.549 33.2679 196.795C33.4333 197.142 33.6114 197.476 33.7896 197.81C34.1585 198.542 33.0644 199.197 32.6954 198.452C32.6572 198.375 32.619 198.311 32.5809 198.234C32.1356 197.347 31.6775 196.474 31.2322 195.575C31.1432 195.601 31.0541 195.601 30.9523 195.575C28.5222 195.177 26.0921 194.843 23.6492 194.56C23.2803 194.522 22.924 194.47 22.5551 194.432C21.7535 194.342 21.7408 193.057 22.5551 193.147C22.7713 193.173 22.9749 193.199 23.1912 193.224C25.6595 193.494 28.1023 193.841 30.5579 194.226C29.1329 191.388 27.7079 188.549 26.2448 185.736C26.143 185.774 26.0157 185.8 25.8758 185.774C23.2294 185.196 20.583 184.631 17.9366 184.053C17.6566 183.989 17.3767 183.938 17.0968 183.873C16.4225 183.732 16.5625 182.846 17.0968 182.666C17.1986 182.627 17.3131 182.615 17.4404 182.64C20.1377 183.218 22.835 183.809 25.5323 184.387C23.522 180.534 21.4863 176.693 19.4124 172.878C19.2216 172.531 19.387 172.21 19.6415 172.03C16.3843 171.221 13.1272 170.386 9.88283 169.539C9.53931 169.449 9.19577 169.372 8.85225 169.282C8.10159 169.089 8.36878 167.984 9.06855 168.036C9.10672 168.036 9.14489 168.036 9.19578 168.036C15.621 169.718 22.0461 171.324 28.4967 172.865C26.2575 168.871 23.98 164.902 21.639 160.958C21.499 160.727 21.5372 160.496 21.6517 160.316C21.6008 160.316 21.5372 160.303 21.4863 160.29C18.5854 159.828 15.6973 159.237 12.9109 158.274C10.1627 157.323 7.52905 156.193 4.66634 155.679C4.48822 155.64 4.3101 155.589 4.11925 155.563C3.3177 155.448 3.66122 154.202 4.46278 154.33C4.60273 154.356 4.72997 154.394 4.86992 154.42C7.60539 154.895 10.1118 155.936 12.7328 156.861C15.6846 157.914 18.7254 158.569 21.8171 159.057C27.4153 159.956 33.0389 160.496 38.3826 162.461C35.6471 157.477 32.7717 152.571 29.7563 147.754C25.9394 147.664 21.9952 147.433 18.191 147.869C13.1781 148.435 9.11944 150.875 5.06077 153.637C4.86992 153.765 4.66635 153.894 4.47551 154.035C3.11413 154.972 1.84182 152.738 3.19047 151.813C4.23376 151.093 5.25161 150.451 6.25673 149.873C13.1399 145.878 19.1071 145.056 27.797 145.159L27.7588 145.185Z" fill="#57B4E4"/>
<path d="M78.753 22.5683C78.7785 22.3628 78.7912 22.1444 78.8039 21.9389C78.8803 21.1297 80.1653 21.1169 80.0762 21.9389C80.0762 22.0031 80.0762 22.0674 80.0635 22.1316C78.8166 34.8094 79.7963 49.7736 88.6516 59.6512C88.9697 59.9981 89.2623 60.3577 89.5931 60.6917C90.1784 61.2825 89.2751 62.1817 88.6898 61.6037C88.4989 61.411 88.3335 61.2055 88.1427 61C78.7658 50.9939 77.4934 35.6829 78.7403 22.5683H78.753Z" fill="#57B4E4"/>
<path d="M88.7915 33.2038C87.5956 28.7852 87.1375 24.251 87.3029 19.6911C87.3029 19.3828 87.3157 19.0745 87.3411 18.7663C87.3793 17.9442 88.6516 17.9442 88.6134 18.7663C88.6134 18.9332 88.6134 19.0874 88.6134 19.2544C88.4226 23.4803 88.7534 27.6677 89.7585 31.7909C90.6873 35.6315 92.0105 40.2428 94.7969 43.1714C94.8859 43.2741 94.975 43.3769 95.064 43.4796C95.6111 44.0191 94.8732 44.8155 94.3007 44.4687C94.2498 44.443 94.2116 44.4302 94.1734 44.3788C91.2726 41.5529 89.8476 37.0316 88.8043 33.191L88.7915 33.2038Z" fill="#57B4E4"/>
<path d="M93.5118 16.3643C93.5118 15.5422 94.7969 15.5422 94.7841 16.3643C94.7841 16.634 94.8096 16.8909 94.8096 17.1478C94.9368 22.016 96.6799 26.4603 99.8734 30.0311C100.281 30.4807 100.7 30.9303 101.146 31.3542C101.744 31.9193 100.84 32.8313 100.242 32.2661C99.9243 31.9707 99.6444 31.6496 99.3517 31.3413C95.7893 27.5778 93.7663 22.7867 93.55 17.5717C93.5373 17.1735 93.4991 16.7625 93.4991 16.3643H93.5118Z" fill="#57B4E4"/>
<path d="M109.352 40.6409L109.199 40.5896C106.388 39.5491 104.606 36.0554 105.79 33.1781C106.986 30.288 110.128 28.6311 113.131 29.7357L113.284 29.7871C116.095 30.8275 117.877 34.3213 116.693 37.1985C115.497 40.0886 112.355 41.7456 109.352 40.6409Z" fill="#57B4E4"/>
<path d="M106.439 42.1309L106.388 42.2851C105.548 44.61 101.96 43.287 102.8 40.9621L102.851 40.8079C103.69 38.483 107.278 39.806 106.439 42.1309Z" fill="#57B4E4"/>
<path d="M106.477 46.2413C107.634 46.6652 106.973 48.4763 105.815 48.0524C104.657 47.6285 105.319 45.8174 106.477 46.2413Z" fill="#57B4E4"/>
<path d="M78.9948 12.3053C76.6919 11.4576 78.0024 7.83533 80.3053 8.68309C82.6081 9.53084 81.2977 13.1531 78.9948 12.3053Z" fill="#57B4E4"/>
<path d="M18.1401 79.8176C11.2187 77.2615 15.1501 66.3948 22.0842 68.9637C29.0056 71.5198 25.0742 82.3865 18.1401 79.8176Z" fill="#57B4E4"/>
<path d="M67.6966 16.8395C60.7753 14.2834 64.7067 3.41672 71.6408 5.98568C78.5622 8.54179 74.6307 19.4085 67.6966 16.8395Z" fill="#57B4E4"/>
<path d="M74.8089 5.62602C71.3482 4.34154 73.3203 -1.07897 76.781 0.19267C80.2416 1.47715 78.2696 6.89766 74.8089 5.62602Z" fill="#57B4E4"/>
<path d="M144.073 37.4169C147.534 38.7014 145.562 44.1219 142.101 42.8503C138.641 41.5658 140.613 36.1453 144.073 37.4169Z" fill="#57B4E4"/>
<path d="M140.906 47.5258C141.936 44.6871 145.397 42.8888 148.247 44.0834C151.11 45.2908 152.751 48.4634 151.657 51.4948L151.491 51.9444C150.461 54.7831 147 56.5813 144.15 55.3868C141.287 54.1794 139.646 51.0067 140.74 47.9753L140.906 47.5258Z" fill="#57B4E4"/>
<path d="M127.419 136.425C122.813 134.716 125.421 127.485 130.053 129.193C134.658 130.901 132.05 138.133 127.419 136.425Z" fill="#57B4E4"/>
<path d="M129.913 144.273L130.358 144.44C133.641 145.66 135.727 149.732 134.328 153.097C132.928 156.475 129.277 158.415 125.752 157.105L125.307 156.938C122.024 155.718 119.938 151.646 121.337 148.28C122.737 144.902 126.388 142.963 129.913 144.273Z" fill="#57B4E4"/>
<path d="M60.5463 61.2312C60.8898 61.9762 59.7956 62.6312 59.4521 61.8734C55.4443 53.1518 51.5128 44.0063 52.518 34.3341C52.6325 33.2937 52.7724 32.2404 53.0142 31.1872C53.1923 30.378 54.4137 30.7248 54.2356 31.534C54.1465 31.945 54.0829 32.356 54.0066 32.7671C52.289 42.786 56.4367 52.2783 60.5463 61.2312Z" fill="#57B4E4"/>
<path d="M48.4466 37.9564C48.472 38.8684 48.5356 39.7547 48.6247 40.6538C49.0064 44.4302 49.9352 48.0652 51.4492 51.5847C51.7673 52.3297 50.6731 52.9848 50.355 52.227C49.0318 49.1571 48.1285 46.0229 47.6196 42.786C47.3778 41.2061 47.2124 39.5877 47.1743 37.9564C47.1743 37.9179 47.187 37.8922 47.187 37.8536C47.2124 37.6866 47.2761 37.5454 47.3906 37.4683C47.7468 37.1985 48.4211 37.3527 48.4339 37.9564H48.4466Z" fill="#57B4E4"/>
<path d="M115.421 67.0884C122.241 64.1598 129.073 61.1027 134.658 56.0804C134.9 55.862 135.155 55.6694 135.384 55.451C135.982 54.8858 136.885 55.7978 136.287 56.363C135.943 56.6969 135.562 56.9924 135.205 57.3135C129.607 62.2331 122.851 65.2901 116.07 68.2059C115.319 68.527 114.67 67.4224 115.434 67.1012L115.421 67.0884Z" fill="#57B4E4"/>
<path d="M120.956 69.8372C126.63 68.2187 131.923 65.8296 136.91 62.6698C137.076 62.567 137.241 62.4771 137.394 62.3743C138.081 61.9248 138.73 63.0423 138.03 63.479C137.725 63.6717 137.419 63.8515 137.114 64.0442C132.165 67.1269 126.897 69.4775 121.286 71.0831C120.498 71.3143 120.167 70.0684 120.943 69.85L120.956 69.8372Z" fill="#57B4E4"/>
<path d="M28.115 91.2238C30.9141 95.4882 34.1076 99.4444 37.6828 103.08C38.2553 103.67 37.3647 104.57 36.7794 103.991C33.2297 100.395 30.0744 96.4644 27.2753 92.2513C27.1862 92.1229 27.0971 92.0073 27.0208 91.8788C26.6646 91.3394 27.2626 90.8256 27.7588 90.9669C27.8987 91.0054 28.0259 91.0825 28.115 91.2238Z" fill="#57B4E4"/>
<path d="M68.1165 120.78C68.0402 120.78 67.9638 120.78 67.8875 120.728C63.3326 118.802 58.7777 116.888 54.1974 114.999C53.4467 114.691 53.7775 113.445 54.5409 113.766C59.1085 115.655 63.6761 117.568 68.231 119.495C68.3455 119.547 68.4219 119.611 68.4855 119.688C68.8163 120.086 68.6127 120.78 68.1292 120.78H68.1165Z" fill="#57B4E4"/>
<path d="M60.9789 189.153C60.47 188.523 61.3606 187.598 61.8822 188.241C65.2538 192.402 67.8875 196.988 69.7706 202.01C69.7706 202.01 69.7706 202.023 69.7706 202.036C70.0123 202.742 68.9944 203.051 68.6255 202.485C68.6 202.447 68.5619 202.408 68.5491 202.357C66.7297 197.54 64.2105 193.147 60.9789 189.153Z" fill="#57B4E4"/>
<path d="M24.3998 130.76C25.1251 131.145 24.4889 132.25 23.7637 131.865C20.2267 130.015 16.257 129.951 12.6691 131.659C12.6055 131.685 12.5546 131.711 12.491 131.736C11.7531 132.096 11.1169 130.991 11.8549 130.632C12.3129 130.4 12.7836 130.208 13.2671 130.028C16.9441 128.666 20.8501 128.898 24.4126 130.76H24.3998Z" fill="#57B4E4"/>
</svg>
