<svg width="101" height="186" viewBox="0 0 101 186" fill="none" xmlns="http://www.w3.org/2000/svg">
<g clip-path="url(#clip0_934_4478)">
<path d="M96.2198 137.229C92.4315 136.421 87.01 134.436 88.5321 129.838C89.7293 126.229 92.4315 122.645 94.253 119.302C96.4507 115.254 101.325 109.35 100.991 104.391C100.761 100.945 98.7168 97.095 97.5794 93.8981C92.0211 78.257 86.1206 62.719 79.9466 47.3186C77.1417 40.3145 74.3369 33.276 71.0446 26.4781C70.8479 26.0914 70.6598 25.7047 70.4546 25.3265C70.4546 25.3523 70.4631 25.3695 70.4631 25.3953C70.4289 26.4867 70.3263 27.561 70.1638 28.6266C72.9173 34.419 75.4571 40.3231 77.86 46.2959C77.9883 46.0982 78.1251 45.9006 78.2534 45.7029C78.5527 45.2388 79.2881 45.6685 78.9888 46.1326C78.7494 46.5107 78.4928 46.8803 78.2448 47.2584C78.7579 48.5475 79.2796 49.8366 79.7841 51.1343C79.8097 51.1085 79.8268 51.0828 79.8525 51.057C80.5451 50.1976 81.7509 51.4265 81.0582 52.2687C80.8701 52.5008 80.6734 52.7156 80.4853 52.9391C81.5029 55.5774 82.5205 58.2158 83.5125 60.8541C83.846 60.7596 84.2479 61.0948 84.0084 61.4643C83.9486 61.5502 83.8887 61.6276 83.8374 61.7135C84.9234 64.6011 86.0095 67.4973 87.0955 70.3763C87.1553 70.3075 87.2238 70.2388 87.2836 70.17C87.6428 69.7489 88.2414 70.3591 87.8908 70.7802C87.7454 70.9521 87.5915 71.1154 87.4375 71.2787C87.6257 71.7771 87.8138 72.2842 88.0019 72.7826C88.2499 73.4272 88.4808 74.0803 88.7288 74.7248C88.7459 74.7248 88.7544 74.7248 88.763 74.7248C89.2077 74.7248 89.2846 75.2835 89.011 75.4983C89.1564 75.885 89.3017 76.2804 89.4471 76.6757C89.4984 76.6327 89.5497 76.5897 89.601 76.5468C90.422 75.8163 91.6363 77.028 90.8068 77.7585C90.5673 77.9648 90.3193 78.171 90.0799 78.3773C91.1488 81.2477 92.2092 84.1181 93.261 86.9885C93.5774 87.1088 93.8938 87.2377 94.2102 87.3924C94.7062 87.633 94.2701 88.3807 93.7826 88.1315C93.7399 88.1143 93.7057 88.0971 93.6629 88.0799C94.501 90.3831 95.3475 92.6777 96.1599 94.9895C96.7842 96.7513 97.3999 98.513 97.9899 100.275C98.6569 100.662 99.341 101.091 100.051 101.573C100.957 102.191 100.102 103.678 99.1871 103.059C99.0588 102.973 98.922 102.879 98.7937 102.793C98.8365 102.965 98.8792 103.145 98.9134 103.309C99.0075 103.291 99.093 103.266 99.1871 103.248C99.7258 103.171 99.9567 103.996 99.418 104.073C99.2897 104.091 99.1785 104.125 99.0503 104.151C99.2299 105.895 98.7168 107.288 97.5794 109.548C97.1006 110.51 96.6046 111.464 96.0915 112.41C96.5618 112.375 96.7414 113.114 96.2369 113.243C96.006 113.303 95.7751 113.363 95.5442 113.415C94.099 116.096 92.5855 118.743 91.1403 121.407C91.0035 121.657 90.8495 121.923 90.6871 122.19C91.0377 122.318 91.1317 122.903 90.6871 122.997C90.4989 123.04 90.3108 123.075 90.1227 123.118C88.9084 125.043 87.3948 127.226 86.591 129.254C86.7363 129.237 86.8732 129.219 87.0185 129.202C87.5658 129.142 87.5573 130.001 87.0185 130.062C86.7705 130.087 86.5311 130.122 86.2831 130.148C86.2147 130.38 86.1548 130.62 86.1121 130.844C85.5135 134.195 89.0537 136.499 92.3631 137.796C88.7544 138.054 84.9662 137.169 81.7252 135.759C81.2549 134.694 80.7675 133.637 80.2715 132.588C80.2459 132.64 80.2202 132.683 80.1945 132.734C79.9466 133.233 79.2111 132.795 79.4591 132.305C79.5703 132.073 79.69 131.849 79.8097 131.626C78.9632 129.855 78.0824 128.102 77.1845 126.366C77.1845 126.375 77.1759 126.383 77.1674 126.392C76.9108 126.882 76.1754 126.444 76.4319 125.962C76.526 125.79 76.6201 125.619 76.7056 125.438C75.2091 122.55 73.6613 119.697 72.1135 116.835C72.0708 116.93 72.0195 117.016 71.9767 117.11C71.7373 117.609 70.9933 117.171 71.2413 116.681C71.3696 116.423 71.4978 116.182 71.6261 115.924C70.0099 112.934 68.3937 109.934 66.8373 106.909C65.9394 105.156 65.1014 103.377 64.289 101.59C63.9897 101.701 63.6904 101.787 63.3997 101.908C62.3735 102.312 61.9289 100.644 62.9465 100.249C63.1603 100.163 63.374 100.094 63.5878 100.008C62.5275 97.5849 61.5355 95.1442 60.5949 92.6777C60.5606 92.6777 60.535 92.6949 60.5008 92.6949C59.449 92.9012 59.0043 91.3371 59.9792 91.062C59.4404 89.6011 58.9102 88.1401 58.3972 86.6705C58.2347 86.7221 58.0722 86.765 57.9097 86.8166C57.7815 86.851 57.6703 86.8338 57.5848 86.7736C57.5506 86.8424 57.5078 86.9111 57.4223 86.9627C57.3966 86.9799 57.371 86.9971 57.3453 87.0143C57.1914 87.1088 56.9434 87.083 56.8237 86.9455C56.8066 86.9283 56.7895 86.9111 56.7724 86.894C56.7211 86.8338 56.6954 86.765 56.6783 86.6963C56.6356 86.6533 56.6014 86.6104 56.5501 86.576C56.9776 87.7963 57.4052 89.0081 57.8499 90.2198C57.8499 90.2198 57.867 90.2198 57.8755 90.2198C58.3801 90.0394 58.5938 90.7956 58.1492 91.0191C60.1673 96.4849 62.3992 101.856 65.0501 107.107C65.7257 107.717 66.4012 108.327 67.1366 108.869C67.5813 109.187 67.1537 109.934 66.7091 109.608C66.4953 109.453 66.29 109.273 66.0763 109.109C66.196 109.341 66.3157 109.574 66.4354 109.806C67.2649 109.677 67.8806 110.768 67.1879 111.249C71.6004 119.594 76.3208 127.767 80.1603 136.413C78.4415 139.945 76.7141 143.477 74.9868 147C74.0803 144.534 73.1824 142.076 72.276 139.61C71.9938 138.828 70.8821 138.759 70.6256 139.61C69.4711 143.391 67.1879 146.425 64.0154 148.461C64.9988 146.648 65.6572 144.697 65.8026 142.557C65.9993 139.764 64.9389 138.965 62.459 137.951C60.3383 137.083 58.2005 136.249 56.0541 135.424C55.8061 135.802 55.122 135.596 55.2845 135.123C52.6335 134.109 49.9826 133.104 47.3488 132.081C46.1345 131.609 44.6466 131.17 43.1586 130.629C42.9278 130.947 42.6969 131.256 42.4745 131.574C42.3634 131.729 42.2265 131.832 42.0812 131.892C45.7497 133.448 49.5551 134.763 53.2663 136.206C55.7633 137.177 58.953 137.874 61.2191 139.292C63.5194 140.735 64.4686 141.595 63.8102 144.362C63.3056 146.493 62.2709 148.367 60.9455 150.086C60.5008 150.661 60.877 151.89 61.7749 151.521C66.2216 149.708 69.5481 146.519 71.4465 142.257C72.3188 144.628 73.191 147 74.0547 149.372C74.2856 150.008 75.2604 150.292 75.6196 149.579C77.3555 146.064 79.0658 142.54 80.7846 139.017C85.522 153.919 86.3601 169.56 87.0613 185.106C87.1126 186.206 88.8229 186.215 88.7715 185.106C88.0532 169.13 87.1895 153.042 82.1699 137.753C86.5995 139.446 91.7047 140.211 96.2454 138.819C97.0151 138.587 97.1091 137.349 96.2454 137.16L96.2198 137.229Z" fill="#85C9EC"/>
<path d="M33.1536 116.509C32.649 115.151 32.1445 113.802 31.6485 112.444C31.6485 112.461 31.6314 112.47 31.6229 112.478C31.3236 112.942 30.5882 112.513 30.8875 112.049C31.0157 111.842 31.1525 111.645 31.2808 111.447C30.4257 109.118 29.5877 106.789 28.7496 104.452C26.3894 97.8685 24.0635 91.2769 21.7974 84.6681C21.2501 84.3501 20.7541 83.9634 20.318 83.4821C19.7707 82.8806 20.2838 82.0727 20.8824 82.004C19.4286 77.7327 17.9835 73.4529 16.5725 69.1645C15.7003 66.4918 14.8366 63.8191 13.99 61.1463C13.2289 61.0948 13.075 60.1494 13.5368 59.6853C12.9467 57.7689 12.3567 55.8438 11.8008 53.9188C11.2536 52.0367 10.7063 50.146 10.2702 48.2295C9.82548 46.2701 9.77417 44.4997 9.99651 42.8411C9.79127 42.7122 9.58604 42.5919 9.38081 42.463C8.91904 42.1622 9.3466 41.4231 9.80838 41.7239C9.91954 41.7926 10.0222 41.8528 10.1333 41.9215C10.3813 40.6754 10.7747 39.4894 11.2792 38.3378C11.0398 38.123 10.7918 37.9253 10.5523 37.7019C10.1504 37.3238 10.7576 36.7136 11.1595 37.0917C11.3134 37.2378 11.4844 37.3753 11.6469 37.5128C12.7842 35.1409 14.3149 32.8463 15.8285 30.3368C16.7179 28.8587 17.6072 27.3891 18.4965 25.9109C18.411 25.5414 18.3341 25.1804 18.2657 24.8023C18.0946 23.8999 19.1978 23.453 19.6937 23.9343C21.4639 21.0037 23.234 18.0732 25.0041 15.1426C25.731 13.9395 26.4579 12.7277 27.1847 11.5246C27.6208 10.8027 28.057 10.0808 28.4931 9.35028C28.5786 9.24715 28.647 9.1698 28.724 9.07527C28.7325 9.10964 28.724 9.15261 28.7496 9.18699C34.1626 22.0178 39.0454 35.012 43.6461 48.1178C43.6888 48.135 43.7316 48.1608 43.7743 48.178C43.8171 48.0577 43.8941 47.9373 44.0223 47.8342C44.3815 47.542 44.7321 47.2412 45.0741 46.9319C44.3558 44.8865 43.629 42.8411 42.8936 40.7957C42.7738 40.9246 42.6541 41.0707 42.5258 41.1996C42.1325 41.595 41.5339 40.9848 41.9187 40.5895C42.141 40.366 42.3463 40.1254 42.5515 39.8934C41.3201 36.4987 40.0545 33.1127 38.7718 29.7352C38.3784 29.9673 37.891 29.4259 38.2587 29.0735C38.3271 29.0134 38.3784 28.936 38.4383 28.8673C37.4292 26.2203 36.4031 23.5819 35.3598 20.9522C35.1631 21.1584 34.975 21.3733 34.7612 21.5709C34.3593 21.9491 33.7522 21.3389 34.1541 20.9608C34.4534 20.6772 34.7356 20.3764 35.0092 20.0756C33.4871 16.2513 31.9393 12.4441 30.3402 8.64557C31.0756 8.92917 31.7939 9.22996 31.8709 9.25574C33.47 9.78857 35.0691 10.33 36.6596 10.8628C37.2411 11.0605 37.8226 11.2581 38.4041 11.4472C38.4041 11.2667 38.4297 11.0949 38.4212 10.923C38.4212 10.373 39.2678 10.373 39.2763 10.923C39.2763 11.198 39.2592 11.4644 39.2421 11.7308C40.3538 12.1004 41.4655 12.4785 42.5772 12.848C42.5772 12.7363 42.5772 12.6332 42.5772 12.5215C42.5515 11.9714 43.4066 11.9714 43.4323 12.5215C43.4408 12.7277 43.4494 12.934 43.4579 13.1402C45.0741 13.6817 46.6989 14.2317 48.3151 14.7731C48.3151 14.7301 48.3151 14.6872 48.3066 14.6442C48.2467 14.0942 49.1104 14.1028 49.1617 14.6442C49.1788 14.7817 49.1873 14.9278 49.1959 15.0653C50.5812 15.5294 51.958 15.9934 53.3433 16.4575C53.3091 16.363 53.2749 16.2684 53.2407 16.1825C52.8302 15.1512 54.4806 14.7129 54.8911 15.727C55.0792 16.1911 55.2417 16.6638 55.3956 17.1364C57.8841 17.9271 60.4751 18.6576 62.8011 19.792C64.0068 20.385 64.9817 21.0811 65.8283 21.8803C65.777 21.6053 65.7428 21.3303 65.6744 21.0553C65.5546 20.5139 66.3841 20.2904 66.4953 20.8233C66.6492 21.528 66.7518 22.2327 66.8288 22.9288C67.8464 24.1491 68.6502 25.5586 69.4455 27.157C69.5054 26.5641 69.5481 25.9625 69.5652 25.3523C69.5738 24.9484 70.027 24.8453 70.2664 25.0257C69.0692 22.7913 67.701 20.7803 65.4948 19.3365C62.288 17.231 58.2603 16.3028 54.6773 15.0911C46.0918 12.2035 37.5148 9.32449 28.9292 6.43691C28.57 6.31659 28.151 6.52285 27.9629 6.83223C23.4136 14.3692 18.8728 21.8975 14.3235 29.4345C12.4336 32.5713 10.2017 35.6823 8.84207 39.1027C7.4482 42.6177 7.90143 45.8576 8.78222 49.4413C10.826 57.7775 13.6736 65.959 16.3844 74.0889C21.3613 89.0081 26.2868 104.108 32.0504 118.778C32.4096 118.004 32.7602 117.231 33.1194 116.457L33.1536 116.509Z" fill="#85C9EC"/>
<path d="M40.961 130.766C41.132 130.517 41.3116 130.285 41.4911 130.036C39.7381 129.271 38.139 128.308 37.224 126.899C36.2834 125.455 35.6335 123.651 35.052 121.88C34.9066 122.19 34.7698 122.49 34.633 122.8C34.4021 123.298 33.6667 122.868 33.8975 122.37C34.1541 121.811 34.4106 121.253 34.6672 120.703C34.4448 120.041 34.231 119.388 34.0002 118.778C33.8548 118.4 33.718 118.021 33.5811 117.643C33.3331 118.185 33.0852 118.726 32.8372 119.268C32.726 119.5 32.5122 119.525 32.3326 119.439C33.1963 121.622 34.0686 123.788 34.975 125.954C36.1636 128.807 37.6601 130.027 40.6873 131.377C40.7472 131.402 40.8156 131.428 40.8754 131.454C40.7985 131.248 40.8156 131.016 40.9866 130.775L40.961 130.766Z" fill="#85C9EC"/>
<path d="M56.1396 80.0789C55.5068 78.1453 54.874 76.203 54.2583 74.2608C54.207 74.0889 54.1471 73.917 54.0958 73.7537C53.7709 73.5217 53.6169 73.092 53.7623 72.731C53.3519 71.4419 52.9328 70.1528 52.5138 68.8723C52.3513 68.9497 52.1803 69.027 52.0178 69.1044C51.5219 69.3192 51.0857 68.5801 51.5903 68.3653C51.8126 68.2708 52.0349 68.159 52.2573 68.0645C50.1451 61.5846 47.9731 55.1305 45.724 48.7022C45.5701 48.8311 45.4162 48.96 45.2623 49.0889C45.0912 49.2265 44.9117 49.2866 44.7321 49.2866C44.6722 49.5272 44.5012 49.7421 44.2789 49.871C44.8775 51.5726 45.459 53.2828 46.049 54.993C46.2115 55.1821 46.297 55.4227 46.2799 55.6634C48.7341 62.8565 51.12 70.0841 53.463 77.3374C54.1386 77.3546 54.5832 78.3515 53.9676 78.8844C54.4293 80.3196 54.8996 81.7462 55.3785 83.1642C55.7377 83.336 56.0712 83.5423 56.3448 83.8173C56.704 84.1869 56.208 84.7283 55.8232 84.4791C55.9344 84.797 56.037 85.115 56.1481 85.433C56.6698 85.665 57.123 85.94 57.4309 86.2666C57.4736 86.1721 57.5591 86.0861 57.6959 86.0518C57.8413 86.0088 57.9867 85.9658 58.1321 85.9228C57.542 84.2298 56.9776 82.5282 56.4132 80.8266C56.0883 80.8266 55.9515 80.3625 56.1738 80.0961L56.1396 80.0789Z" fill="#85C9EC"/>
<path d="M69.4284 56.4626C69.2916 56.497 69.1804 56.6001 69.1377 56.7376C64.2121 61.4127 58.5083 65.2113 52.2316 68.0387C52.0093 68.1418 51.7955 68.245 51.5646 68.3395C51.0601 68.563 51.4962 69.302 51.9922 69.0786C52.1632 69.0012 52.3257 68.9239 52.4882 68.8466C53.2493 68.5028 53.9932 68.1504 54.7372 67.7809C54.7286 67.8153 54.7115 67.8411 54.7115 67.884C54.6517 69.2333 54.4464 70.5482 54.1044 71.8545C54.0616 72.0177 54.1129 72.1552 54.207 72.2498C54.1728 72.267 54.13 72.2928 54.0958 72.3099C53.9077 72.4131 53.8051 72.5506 53.7452 72.7053C53.5999 73.0662 53.7538 73.4959 54.0787 73.728C54.3182 73.8998 54.6346 73.9686 54.9595 73.7881C64.7679 68.5286 73.3535 61.4987 80.4682 52.9305C80.6563 52.707 80.853 52.4836 81.0411 52.2601C81.7338 51.4093 80.5281 50.189 79.8354 51.0484C79.8097 51.0742 79.7926 51.0999 79.767 51.1257C79.0145 52.0453 78.2363 52.9477 77.4581 53.8328C77.3983 52.5523 77.0135 51.332 76.2951 50.2663C76.2609 50.2148 76.2182 50.1804 76.1754 50.1546C76.8852 49.2093 77.5693 48.2467 78.2363 47.2584C78.4843 46.8889 78.7408 46.5193 78.9803 46.1326C79.2796 45.6685 78.5356 45.2302 78.2449 45.7029C78.1166 45.9006 77.9798 46.0982 77.8515 46.2959C75.4144 50.0257 72.5924 53.4289 69.437 56.4626H69.4284ZM58.0551 66.2941C58.0551 66.2082 58.0209 66.1394 57.9867 66.0879C58.6794 65.6926 59.3635 65.28 60.039 64.8589C60.1331 66.2082 60.0903 67.5489 59.9108 68.8895C59.201 69.345 58.4912 69.8177 57.7644 70.256C57.7815 70.2216 57.7986 70.1958 57.8071 70.1614C58.0551 68.8809 58.1492 67.6004 58.0722 66.3027L58.0551 66.2941ZM60.8771 64.5753C60.8771 64.4894 60.8428 64.4206 60.8001 64.3605C61.698 63.7847 62.5788 63.1831 63.451 62.5643C63.6562 63.7245 63.7418 64.8847 63.699 66.0621C63.699 66.1394 63.7161 66.2082 63.7418 66.2684C62.784 66.9645 61.8177 67.6434 60.8257 68.2965C60.954 67.059 60.9711 65.8301 60.8685 64.5753H60.8771ZM64.2292 62.0573C64.2292 62.0573 64.2121 62.0229 64.2121 62.0057C64.9646 61.4471 65.7 60.8713 66.4183 60.2783C66.8031 61.4815 66.8972 62.7018 66.6407 63.9566C66.6321 63.9995 66.6407 64.0339 66.6407 64.0769C65.9566 64.6183 65.2725 65.1683 64.5627 65.6926C64.5798 64.4722 64.4686 63.2605 64.2377 62.0573H64.2292ZM67.1281 59.6939C67.8806 59.058 68.616 58.3962 69.3343 57.7259C69.6507 58.8603 69.9158 60.0033 70.1211 61.1549C69.283 61.894 68.4364 62.6245 67.5728 63.3292C67.701 62.0917 67.5728 60.8713 67.1281 59.6853V59.6939ZM55.3187 67.5059C55.9515 67.1793 56.5843 66.8442 57.2085 66.5004C57.2598 67.652 57.1914 68.7864 56.9691 69.9208C56.9092 70.2302 57.1487 70.4279 57.3881 70.4536C56.6014 70.9177 55.7976 71.3646 54.9937 71.8115C55.3101 70.5224 55.5068 69.2247 55.5667 67.8926C55.5752 67.6864 55.4555 67.5575 55.3101 67.5059H55.3187ZM76.6286 54.4258C76.6286 54.529 76.6628 54.6149 76.7056 54.675C75.8847 55.5774 75.0552 56.4626 74.2086 57.3306C74.0889 56.1532 73.7468 55.0274 73.1825 53.9617C73.1653 53.9274 73.1311 53.9016 73.1055 53.8758C73.9777 52.8961 74.8158 51.8906 75.6281 50.8507C76.3208 51.9336 76.6628 53.1281 76.6201 54.4258H76.6286ZM72.5069 54.5375C73.0798 55.6634 73.3706 56.8493 73.3962 58.1041C72.5668 58.9205 71.7287 59.7283 70.865 60.5104C70.6427 59.3502 70.3776 58.1986 70.0356 57.0556C70.8821 56.2392 71.7031 55.3969 72.4983 54.5289L72.5069 54.5375Z" fill="#85C9EC"/>
<path d="M45.8438 56.2563C46.1174 56.1102 46.2286 55.8868 46.2542 55.6462C46.2799 55.4055 46.1858 55.1649 46.0233 54.9758C45.7839 54.6922 45.3991 54.5461 44.9801 54.7696C35.7703 59.8314 24.2773 58.9806 14.0926 59.4361C13.8532 59.4447 13.6736 59.5478 13.5368 59.6768C13.075 60.1322 13.2204 61.0776 13.99 61.1377C14.0242 61.1377 14.0498 61.1549 14.0926 61.1549C24.6108 60.6909 36.3176 61.4901 45.8438 56.2563Z" fill="#85C9EC"/>
<path d="M43.4409 49.914C43.7487 50.0515 44.0309 49.9913 44.2618 49.8538C44.4841 49.7163 44.6552 49.5015 44.715 49.2694C44.8946 49.2694 45.0742 49.2093 45.2452 49.0718C45.3991 48.9428 45.553 48.8139 45.707 48.685C54.2156 41.4918 58.8932 27.9219 55.4299 17.1794C55.2759 16.7067 55.1135 16.2341 54.9253 15.77C54.5234 14.7559 52.8645 15.2028 53.2749 16.2255C53.3091 16.32 53.3433 16.406 53.3775 16.5005C57.2513 26.6242 53.0782 39.7301 45.0827 46.949C44.7407 47.2584 44.3901 47.5678 44.0309 47.8514C43.9026 47.9545 43.8257 48.0749 43.7829 48.1952C43.7402 48.178 43.6974 48.1522 43.6546 48.135C33.0339 43.3396 22.2506 36.7737 19.9247 24.3554C19.8904 24.1749 19.8049 24.046 19.7023 23.9429C19.2063 23.453 18.1032 23.9085 18.2742 24.8109C18.3427 25.189 18.4282 25.5586 18.5051 25.9195C21.3784 38.2949 32.5293 45.0498 43.4323 49.9054L43.4409 49.914Z" fill="#85C9EC"/>
<path d="M42.4403 131.626C42.6627 131.308 42.9021 130.99 43.1244 130.68C49.2985 122.198 57.4479 115.649 67.034 111.387C67.0939 111.361 67.1195 111.327 67.1623 111.292C67.8464 110.811 67.2392 109.72 66.4098 109.849C66.3328 109.857 66.2473 109.866 66.1703 109.9C62.288 111.627 58.6366 113.733 55.2588 116.182C52.9157 109.754 50.5727 103.326 48.221 96.8974C48.7341 97.3443 49.3156 97.7396 49.8458 98.1521C51.8041 99.6818 53.8307 101.108 55.9344 102.432C57.8328 103.626 59.8252 104.658 61.7664 105.784C63.3569 106.703 64.6311 108.009 66.0506 109.152C66.2558 109.324 66.4611 109.496 66.6834 109.651C67.1281 109.977 67.5556 109.23 67.111 108.912C66.3756 108.37 65.7 107.76 65.0244 107.15C64.3916 106.583 63.7503 106.024 63.0405 105.552C61.45 104.494 59.6884 103.695 58.0465 102.724C56.2508 101.658 54.4977 100.515 52.796 99.2951C51.2568 98.1951 48.4177 96.7685 47.7165 94.9122C47.7165 94.9036 47.708 94.895 47.6994 94.8864C47.7422 94.8864 47.7935 94.8864 47.8448 94.8606C51.2568 93.6059 54.6688 92.3426 58.0807 91.0878C58.0978 91.0878 58.1064 91.0706 58.1235 91.0621C58.5682 90.8386 58.3544 90.0737 57.8499 90.2628C57.8499 90.2628 57.8328 90.2628 57.8242 90.2628C54.5319 91.4746 51.2311 92.6863 47.9388 93.9067C48.1868 93.3738 48.4348 92.8324 48.6828 92.2996C48.7598 92.334 48.8453 92.3426 48.9565 92.2996C51.5903 91.3285 54.2241 90.3573 56.8579 89.3862C57.371 89.1972 57.1486 88.3635 56.627 88.5612C54.13 89.4808 51.6245 90.4003 49.1275 91.3199C49.3755 90.7785 49.632 90.237 49.88 89.687C49.9313 89.687 49.9826 89.687 50.0425 89.6612C52.0777 88.9136 54.1044 88.1659 56.1396 87.4182C56.6527 87.2291 56.4303 86.3955 55.9087 86.5932C54.0616 87.2721 52.2145 87.951 50.3674 88.6385C50.9318 87.4182 51.4877 86.2064 52.052 84.9861C53.4374 85.3556 55.4726 85.7681 56.5244 86.619C56.5757 86.6533 56.6099 86.6963 56.6527 86.7393C56.6698 86.808 56.6954 86.8768 56.7467 86.9369C56.7638 86.9541 56.7809 86.9713 56.798 86.9885C56.9178 87.126 57.1657 87.1518 57.3197 87.0573C57.3453 87.0401 57.371 87.0229 57.3966 87.0057C57.4736 86.9541 57.5249 86.8854 57.5591 86.8166C57.6446 86.8682 57.7558 86.894 57.8841 86.8596C58.0465 86.8166 58.209 86.7651 58.3715 86.7135C58.9615 86.5416 59.5516 86.3697 60.1502 86.1893C61.4756 87.762 63.0662 89.0167 64.8705 89.9276C63.28 90.3659 61.6638 90.7527 60.0304 91.0706C60.0048 91.0706 59.9877 91.0878 59.962 91.0964C58.9872 91.3714 59.4319 92.927 60.4837 92.7293C60.5179 92.7293 60.5435 92.7121 60.5777 92.7121C71.5577 90.555 81.5798 85.6564 90.0799 78.3773C90.3193 78.171 90.5673 77.9734 90.8068 77.7585C91.6362 77.0281 90.4219 75.8163 89.601 76.5468C89.5497 76.5898 89.4984 76.6327 89.4471 76.6757C88.8314 77.2171 88.2071 77.7328 87.5829 78.2484C87.5572 78.2484 87.5401 78.2312 87.5059 78.2312C85.4109 78.1109 83.4355 77.5609 81.5713 76.6155C82.4521 75.971 83.2987 75.2835 84.1282 74.5616C84.1367 74.5616 84.1453 74.5788 84.1538 74.5788C85.6246 75.2233 87.1468 75.5671 88.7544 75.5843C88.857 75.5843 88.9426 75.5499 89.0024 75.4983C89.2761 75.2835 89.1991 74.7334 88.7544 74.7249C88.7373 74.7249 88.7288 74.7249 88.7202 74.7249C87.3777 74.6991 86.0864 74.4413 84.8465 73.9342C85.7444 73.1092 86.608 72.2154 87.429 71.2787C87.5743 71.1068 87.7368 70.9521 87.8822 70.7802C88.2328 70.3591 87.6342 69.7489 87.275 70.17C87.2152 70.2388 87.1468 70.3075 87.0869 70.3763C82.3067 75.9366 76.0471 79.5031 69.36 82.1501C69.2403 82.1329 69.1376 82.1845 69.0607 82.2704C66.2045 83.3876 63.2714 84.3501 60.3469 85.2267C60.2357 85.2095 60.116 85.2439 60.0304 85.3213C59.3891 85.5103 58.7392 85.708 58.0978 85.8885C57.9525 85.9314 57.8071 85.9744 57.6617 86.0174C57.5249 86.0517 57.4479 86.1377 57.3966 86.2322C57.0888 85.9056 56.6356 85.6306 56.1139 85.3986C55.1391 84.9689 53.959 84.6853 53.2321 84.4533C51.0344 83.74 48.8025 83.104 46.5706 82.4938C47.135 82.2876 47.6909 82.0727 48.2381 81.8407C48.2552 81.8407 48.2638 81.8493 48.2723 81.8579C49.4866 82.0985 50.6582 82.5024 51.8383 82.8806C53.0269 83.2673 54.8141 83.4821 55.6949 84.3845C55.7206 84.4103 55.7462 84.4275 55.7804 84.4447C56.1652 84.6939 56.6612 84.1525 56.3021 83.7829C56.0284 83.4993 55.6949 83.2931 55.3358 83.1298C54.6516 82.8118 53.8735 82.6399 53.1808 82.4165C51.9751 82.0298 50.7779 81.6087 49.555 81.2821C51.0173 80.6032 52.4454 79.8211 53.8307 78.9273C53.8649 78.9015 53.8991 78.8758 53.9248 78.85C54.5405 78.3257 54.0958 77.3288 53.4203 77.3031C53.2749 77.3031 53.121 77.3374 52.9585 77.4406C48.5032 80.3367 43.5777 82.0298 38.3528 82.8892C34.3593 83.5423 24.645 85.7166 21.5066 82.2446C21.3099 82.0298 21.0791 81.961 20.8653 81.9868C20.2667 82.0555 19.7536 82.8634 20.3009 83.465C20.737 83.9462 21.233 84.3329 21.7803 84.6509C25.6113 86.8682 31.9051 85.4502 35.8045 84.9775C37.0957 84.8228 38.3784 84.6166 39.644 84.3759C38.5324 86.7822 37.4292 89.1886 36.3176 91.5863C36.309 91.6121 36.309 91.6293 36.3005 91.655C31.8452 89.5753 27.3814 87.5041 22.9261 85.4244C22.4302 85.1924 21.994 85.9314 22.4986 86.1635C29.1772 89.2745 35.8558 92.3855 42.5429 95.4966C38.5495 100.636 34.7869 105.947 31.2723 111.421C31.144 111.627 31.0072 111.825 30.8789 112.023C30.5796 112.487 31.3236 112.925 31.6143 112.453C31.6143 112.444 31.6314 112.427 31.64 112.418C34.7698 107.511 38.1048 102.75 41.6194 98.1177C38.7974 104.237 35.9755 110.364 33.145 116.483C32.7858 117.257 32.4352 118.03 32.0761 118.803C31.9564 119.07 32.1103 119.311 32.307 119.405C32.4866 119.491 32.7089 119.465 32.8115 119.233C33.0595 118.692 33.3075 118.15 33.5555 117.609C38.7119 106.437 43.8598 95.2559 49.0163 84.0837C49.0163 84.0837 49.0163 84.0837 49.0163 84.0751C49.7517 84.29 50.4871 84.5048 51.214 84.7283C45.6898 96.7083 40.1657 108.688 34.6415 120.668C34.385 121.227 34.1284 121.786 33.8719 122.336C33.641 122.834 34.3764 123.272 34.6073 122.765C34.7441 122.456 34.8895 122.155 35.0263 121.846C38.977 113.278 42.9278 104.709 46.8785 96.1411C46.7502 100.498 46.964 104.821 47.5113 109.152C48.05 113.415 48.6914 117.643 48.375 121.94C45.8609 124.407 43.552 127.097 41.4569 130.001C41.2859 130.242 41.0978 130.483 40.9267 130.732C40.7557 130.973 40.7386 131.213 40.8156 131.411C40.9695 131.832 41.5424 132.098 42.0042 131.918C42.1496 131.858 42.2864 131.755 42.3976 131.6L42.4403 131.626ZM61.0481 85.9228C62.2367 85.5619 63.4253 85.1838 64.6054 84.797C64.6054 84.797 64.6054 84.797 64.614 84.8056C66.4525 86.2064 68.4706 87.2721 70.6341 88.037C69.1547 88.6042 67.6583 89.1198 66.1276 89.5753C64.1779 88.7417 62.4676 87.5041 61.0481 85.9142V85.9228ZM69.3001 83.104C71.2669 84.4361 73.4219 85.347 75.7307 85.8283C74.4651 86.4471 73.1739 87.0229 71.8655 87.5643C69.5994 86.8768 67.5214 85.8369 65.6059 84.4619C66.8459 84.0408 68.0773 83.5853 69.2916 83.1126L69.3001 83.104ZM74.8157 80.9125C75.9787 81.6602 77.3726 81.6602 78.6724 82.0384C79.6387 82.3134 80.5109 82.6056 81.4516 82.6399C79.9123 83.6111 78.3303 84.5048 76.7227 85.3299C76.6799 85.2267 76.5944 85.1322 76.4405 85.1064C74.2257 84.7025 72.1905 83.8947 70.3006 82.7173C71.78 82.1157 73.2423 81.4626 74.6704 80.7493C74.7046 80.8094 74.7473 80.8696 74.8157 80.9125ZM80.7675 77.1999C82.6146 78.1882 84.5728 78.7726 86.6337 78.9961C85.3424 80.0016 84.0255 80.9469 82.6744 81.8407C82.5804 81.7462 82.4521 81.6946 82.2896 81.7204C80.9043 81.9868 79.7157 81.3852 78.4158 81.0672C77.4239 80.8266 76.4148 80.7922 75.5169 80.311C77.3298 79.3742 79.0829 78.3343 80.7589 77.1741C80.7589 77.1741 80.7675 77.1827 80.776 77.1913L80.7675 77.1999ZM43.133 94.852C41.1063 93.9067 39.0882 92.9699 37.0615 92.0246C38.216 89.5151 39.3789 86.9971 40.5334 84.4876C40.5761 84.3931 40.5761 84.2986 40.559 84.2126C42.3377 83.8431 44.0822 83.3618 45.7925 82.7774C45.7582 82.9751 45.8352 83.1985 46.0832 83.2673C46.7844 83.4564 47.4942 83.6626 48.1954 83.8603C46.5022 87.5213 44.8176 91.1824 43.1244 94.852H43.133ZM48.3921 109.187C47.9217 105.483 47.6994 101.77 47.7336 98.0404C49.9912 104.237 52.2573 110.433 54.5148 116.629C54.5234 116.664 54.549 116.681 54.5576 116.707C52.7276 118.073 50.9831 119.534 49.3242 121.089C49.4952 117.093 48.9051 113.157 48.3921 109.187Z" fill="#85C9EC"/>
<path d="M83.5039 97.138C76.6885 97.224 69.9928 97.6622 63.5707 100.051C63.357 100.129 63.1432 100.206 62.9294 100.292C61.9118 100.687 62.3565 102.355 63.3826 101.951C63.6819 101.83 63.9727 101.744 64.272 101.633C69.7192 99.6561 75.3802 99.0631 81.1523 98.9084C77.689 104.434 74.5079 110.124 71.609 115.959C71.4807 116.208 71.3525 116.457 71.2242 116.715C70.9848 117.214 71.7202 117.643 71.9596 117.145C72.0024 117.05 72.0537 116.964 72.0964 116.87C73.268 114.498 74.4908 112.16 75.7564 109.84C75.7735 109.84 75.7906 109.84 75.8163 109.831C79.348 108.388 83.0764 107.966 86.8133 107.408C83.2816 113.346 79.9124 119.371 76.6971 125.481C76.603 125.653 76.5089 125.825 76.4234 126.005C76.1669 126.495 76.9023 126.925 77.1588 126.435C77.1588 126.426 77.1674 126.418 77.1759 126.409C78.8862 123.152 80.6392 119.921 82.4436 116.707C84.4275 116.234 86.4028 115.753 88.3782 115.263C85.4194 120.677 82.5633 126.151 79.8012 131.669C79.69 131.901 79.5703 132.124 79.4506 132.348C79.2026 132.838 79.938 133.276 80.186 132.777C80.2117 132.726 80.2373 132.683 80.263 132.631C80.5623 132.038 80.8701 131.454 81.1694 130.852C81.2293 130.869 81.2891 130.869 81.3576 130.852C82.9909 130.586 84.6242 130.362 86.266 130.173C86.514 130.148 86.7535 130.113 87.0014 130.087C87.5402 130.027 87.5487 129.168 87.0014 129.228C86.8561 129.245 86.7192 129.262 86.5739 129.28C84.9149 129.46 83.2731 129.692 81.6226 129.95C82.5804 128.051 83.5381 126.151 84.5215 124.269C84.59 124.295 84.6755 124.312 84.7695 124.295C86.5482 123.908 88.3269 123.53 90.1056 123.143C90.2937 123.1 90.4818 123.066 90.67 123.023C91.1232 122.929 91.0291 122.336 90.67 122.215C90.6016 122.19 90.5246 122.181 90.4391 122.198C88.6262 122.585 86.8133 122.98 85.0004 123.367C86.3515 120.789 87.7198 118.219 89.1136 115.667C89.2419 115.435 89.1307 115.22 88.9597 115.099C91.1488 114.558 93.338 113.999 95.5186 113.432C95.7495 113.372 95.9804 113.321 96.2113 113.26C96.7158 113.131 96.5362 112.392 96.0659 112.427C96.0402 112.427 96.0146 112.427 95.9804 112.427C91.6619 113.553 87.3435 114.627 83.008 115.658C84.513 112.985 86.0437 110.33 87.6171 107.691C87.7112 107.537 87.6856 107.382 87.6086 107.262C87.6428 107.262 87.6856 107.253 87.7198 107.245C89.6695 106.935 91.6106 106.54 93.4834 105.895C95.3305 105.259 97.1006 104.503 99.0246 104.159C99.1444 104.134 99.2641 104.099 99.3924 104.082C99.9311 104.005 99.7002 103.171 99.1615 103.257C99.0674 103.274 98.9819 103.3 98.8878 103.317C97.0493 103.635 95.3647 104.331 93.6031 104.95C91.6192 105.655 89.5754 106.093 87.4974 106.42C83.7348 107.021 79.9551 107.382 76.3636 108.697C78.2021 105.362 80.1347 102.08 82.1614 98.8568C84.7268 98.7967 87.3777 98.642 89.9346 98.9342C93.3038 99.3123 96.0317 100.945 98.7595 102.793C98.8878 102.879 99.0246 102.965 99.1529 103.059C100.068 103.687 100.923 102.191 100.017 101.573C99.3154 101.091 98.6313 100.662 97.9557 100.275C93.3294 97.6021 89.3189 97.0521 83.4783 97.1208L83.5039 97.138Z" fill="#85C9EC"/>
<path d="M49.2301 15.0997C49.213 14.9622 49.2045 14.8161 49.1959 14.6786C49.1446 14.1371 48.2809 14.1285 48.3408 14.6786C48.3408 14.7215 48.3408 14.7645 48.3493 14.8075C49.1874 23.2898 48.5289 33.3018 42.5772 39.9106C42.3634 40.1426 42.1667 40.3832 41.9444 40.6067C41.551 41.002 42.1582 41.6036 42.5515 41.2168C42.6798 41.0879 42.791 40.9504 42.9192 40.8129C49.2216 34.1182 50.0767 23.8741 49.2387 15.0997H49.2301Z" fill="#85C9EC"/>
<path d="M42.4831 22.2155C43.2869 19.2592 43.5948 16.2255 43.4836 13.1746C43.4836 12.9684 43.475 12.7621 43.4579 12.5558C43.4323 12.0058 42.5771 12.0058 42.6028 12.5558C42.6028 12.6676 42.6028 12.7707 42.6028 12.8824C42.7311 15.7098 42.5087 18.5115 41.8332 21.2702C41.2089 23.8398 40.3196 26.925 38.4468 28.8844C38.387 28.9532 38.3271 29.0219 38.2673 29.0907C37.8996 29.4516 38.3955 29.9845 38.7803 29.7524C38.8146 29.7353 38.8402 29.7267 38.8659 29.6923C40.8156 27.8016 41.7733 24.7765 42.4745 22.2069L42.4831 22.2155Z" fill="#85C9EC"/>
<path d="M39.3106 10.9488C39.3106 10.3987 38.4469 10.3987 38.4554 10.9488C38.4554 11.1292 38.4383 11.3011 38.4383 11.473C38.3528 14.7301 37.1813 17.7036 35.0349 20.0928C34.7612 20.3936 34.479 20.6944 34.1798 20.978C33.7778 21.3561 34.385 21.9663 34.7869 21.5881C35.0007 21.3905 35.1888 21.1756 35.3855 20.9694C37.7799 18.4513 39.1395 15.2458 39.2849 11.7566C39.2935 11.4902 39.3191 11.2152 39.3191 10.9488H39.3106Z" fill="#85C9EC"/>
<path d="M28.6641 27.1914L28.7667 27.157C30.6566 26.4609 31.8538 24.1234 31.0585 22.1983C30.2547 20.2647 28.1425 19.156 26.1244 19.8951L26.0217 19.9295C24.1319 20.6256 22.9347 22.9632 23.73 24.8882C24.5338 26.8219 26.646 27.9305 28.6641 27.1914Z" fill="#85C9EC"/>
<path d="M30.6224 28.1883L30.6566 28.2915C31.221 29.847 33.6324 28.9618 33.0681 27.4063L33.0339 27.3031C32.4695 25.7476 30.058 26.6328 30.6224 28.1883Z" fill="#85C9EC"/>
<path d="M30.5967 30.9384C29.8186 31.222 30.2632 32.4338 31.0414 32.1502C31.8196 31.8666 31.3749 30.6548 30.5967 30.9384Z" fill="#85C9EC"/>
<path d="M49.0676 8.23305C50.6154 7.66585 49.7346 5.24234 48.1868 5.80955C46.639 6.37675 47.5198 8.80026 49.0676 8.23305Z" fill="#85C9EC"/>
<path d="M89.9688 53.4031C94.6207 51.6929 91.9783 44.4224 87.3178 46.1412C82.6659 47.8514 85.3083 55.1219 89.9688 53.4031Z" fill="#85C9EC"/>
<path d="M56.6613 11.2667C61.3132 9.55653 58.6708 2.286 54.0103 4.0048C49.3584 5.71501 52.0008 12.9855 56.6613 11.2667Z" fill="#85C9EC"/>
<path d="M51.881 3.76417C54.207 2.90477 52.8815 -0.721894 50.5556 0.128912C48.2296 0.988312 49.5551 4.61498 51.881 3.76417Z" fill="#85C9EC"/>
<path d="M5.32747 25.0343C3.0015 25.8937 4.32696 29.5204 6.65293 28.6696C8.9789 27.8102 7.65344 24.1835 5.32747 25.0343Z" fill="#85C9EC"/>
<path d="M7.45676 31.7978C6.7641 29.8985 4.43814 28.6954 2.52263 29.4946C0.598579 30.3025 -0.504546 32.4252 0.23087 34.4534L0.342038 34.7541C1.0347 36.6534 3.36066 37.8566 5.27617 37.0573C7.20022 36.2495 8.30335 34.1268 7.56793 32.0986L7.45676 31.7978Z" fill="#85C9EC"/>
<path d="M16.5212 91.2769C19.6168 90.1339 17.8638 85.2955 14.7511 86.4385C11.6555 87.5815 13.4085 92.4199 16.5212 91.2769Z" fill="#85C9EC"/>
<path d="M14.8452 96.5278L14.5459 96.6396C12.3396 97.456 10.9372 100.18 11.8778 102.432C12.8185 104.692 15.2727 105.99 17.6415 105.113L17.9408 105.002C20.147 104.185 21.5494 101.461 20.6088 99.2092C19.6681 96.9489 17.2139 95.6513 14.8452 96.5278Z" fill="#85C9EC"/>
<path d="M61.4671 40.9676C61.2362 41.4661 61.9716 41.9044 62.2025 41.3973C64.8962 35.562 67.5386 29.4431 66.863 22.9718C66.786 22.2757 66.692 21.571 66.5295 20.8662C66.4098 20.3248 65.5888 20.5569 65.7086 21.0983C65.7684 21.3733 65.8112 21.6483 65.8625 21.9233C67.0169 28.6266 64.2292 34.9776 61.4671 40.9676Z" fill="#85C9EC"/>
<path d="M69.5995 25.3953C69.5824 26.0055 69.5396 26.5984 69.4797 27.2C69.2232 29.7267 68.5989 32.1588 67.5813 34.5135C67.3676 35.012 68.103 35.4503 68.3168 34.9432C69.2061 32.8892 69.8132 30.7923 70.1553 28.6266C70.3178 27.5696 70.4289 26.4867 70.4546 25.3953C70.4546 25.3695 70.446 25.3523 70.446 25.3265C70.4289 25.2148 70.3862 25.1203 70.3092 25.0687C70.0698 24.8882 69.6166 24.9914 69.608 25.3953H69.5995Z" fill="#85C9EC"/>
<path d="M24.5851 44.8865C20.0016 42.927 15.4095 40.8817 11.6555 37.5214C11.493 37.3753 11.322 37.2464 11.1681 37.1003C10.7661 36.7222 10.159 37.3324 10.5609 37.7105C10.7918 37.9339 11.0483 38.1316 11.2878 38.3464C15.0504 41.6379 19.5911 43.6833 24.149 45.6342C24.6535 45.849 25.0897 45.1099 24.5766 44.8951L24.5851 44.8865Z" fill="#85C9EC"/>
<path d="M20.8653 46.7256C17.0514 45.6427 13.494 44.0443 10.1419 41.9301C10.0307 41.8614 9.91957 41.8012 9.81695 41.7325C9.35518 41.4317 8.91906 42.1794 9.38938 42.4716C9.59462 42.6005 9.79985 42.7208 10.0051 42.8497C13.3316 44.9123 16.8718 46.485 20.643 47.5592C21.1731 47.7139 21.3955 46.8803 20.8738 46.7342L20.8653 46.7256Z" fill="#85C9EC"/>
<path d="M83.2645 61.0346C81.3832 63.8878 79.2368 66.5348 76.8339 68.9669C76.4491 69.3622 77.0477 69.9638 77.441 69.577C79.8269 67.1707 81.9476 64.541 83.8289 61.7221C83.8888 61.6362 83.9486 61.5588 83.9999 61.4729C84.2394 61.112 83.8375 60.7682 83.504 60.8627C83.4099 60.8885 83.3244 60.9401 83.2645 61.0346Z" fill="#85C9EC"/>
<path d="M56.379 80.8094C56.4304 80.8094 56.4817 80.8094 56.533 80.775C59.5944 79.4859 62.6557 78.2054 65.7342 76.9421C66.2388 76.7358 66.0164 75.9022 65.5033 76.1171C62.4334 77.3804 59.3635 78.6609 56.3021 79.95C56.2251 79.9844 56.1738 80.0274 56.1311 80.0789C55.9087 80.3453 56.0455 80.8094 56.3705 80.8094H56.379Z" fill="#85C9EC"/>
<path d="M61.1764 126.555C61.5184 126.134 60.9198 125.515 60.5692 125.945C58.3031 128.73 56.533 131.798 55.2674 135.158C55.2674 135.158 55.2674 135.166 55.2674 135.175C55.1049 135.648 55.789 135.854 56.037 135.476C56.0541 135.45 56.0798 135.424 56.0883 135.39C57.3112 132.167 59.0043 129.228 61.1764 126.555Z" fill="#85C9EC"/>
<path d="M85.7615 87.487C85.2741 87.7448 85.7016 88.4839 86.1891 88.226C88.5663 86.9885 91.2344 86.9455 93.6459 88.0885C93.6886 88.1057 93.7228 88.1229 93.7656 88.1401C94.2615 88.3807 94.6891 87.6416 94.1931 87.401C93.8853 87.2463 93.5689 87.1174 93.2439 86.9971C90.7726 86.0861 88.1473 86.2408 85.753 87.487H85.7615Z" fill="#85C9EC"/>
</g>
<defs>
<clipPath id="clip0_934_4478">
<rect width="101" height="186" fill="white"/>
</clipPath>
</defs>
</svg>
