<svg width="230" height="346" viewBox="0 0 230 346" fill="none" xmlns="http://www.w3.org/2000/svg">
<g clip-path="url(#clip0_934_4400)">
<path d="M219.114 312.085C210.488 310.248 198.142 305.733 201.608 295.277C204.334 287.069 210.488 278.918 214.636 271.316C219.64 262.11 230.74 248.683 229.981 237.406C229.455 229.569 224.801 220.813 222.211 213.542C209.553 177.972 196.116 142.635 182.057 107.612C175.669 91.6829 169.282 75.676 161.785 60.2164C161.337 59.3369 160.909 58.4574 160.441 57.5974C160.441 57.656 160.461 57.6951 160.461 57.7538C160.383 60.2359 160.149 62.679 159.779 65.1025C166.049 78.2754 171.833 91.7024 177.305 105.286C177.597 104.836 177.909 104.387 178.201 103.937C178.882 102.882 180.557 103.859 179.876 104.914C179.33 105.774 178.746 106.615 178.181 107.475C179.35 110.406 180.538 113.338 181.687 116.289C181.745 116.231 181.784 116.172 181.842 116.113C183.42 114.159 186.165 116.954 184.588 118.869C184.16 119.397 183.712 119.885 183.283 120.394C185.601 126.394 187.918 132.394 190.177 138.394C190.936 138.179 191.852 138.941 191.306 139.782C191.17 139.977 191.034 140.153 190.917 140.349C193.39 146.915 195.863 153.502 198.336 160.049C198.473 159.893 198.628 159.737 198.765 159.58C199.583 158.623 200.946 160.01 200.147 160.968C199.816 161.359 199.466 161.73 199.115 162.101C199.544 163.235 199.972 164.388 200.401 165.522C200.965 166.988 201.491 168.473 202.056 169.939C202.095 169.939 202.114 169.939 202.134 169.939C203.146 169.939 203.322 171.209 202.698 171.698C203.029 172.577 203.36 173.476 203.691 174.375C203.808 174.278 203.925 174.18 204.042 174.082C205.911 172.421 208.677 175.177 206.788 176.838C206.243 177.307 205.678 177.776 205.133 178.245C207.567 184.773 209.981 191.301 212.377 197.829C213.097 198.102 213.818 198.395 214.538 198.747C215.668 199.294 214.674 200.995 213.564 200.428C213.467 200.389 213.389 200.35 213.292 200.311C215.2 205.549 217.128 210.767 218.978 216.025C220.4 220.031 221.802 224.038 223.145 228.044C224.664 228.924 226.222 229.901 227.838 230.996C229.903 232.403 227.955 235.784 225.872 234.377C225.58 234.181 225.268 233.966 224.976 233.771C225.073 234.162 225.171 234.572 225.249 234.944C225.463 234.904 225.657 234.846 225.872 234.807C227.098 234.631 227.624 236.507 226.397 236.683C226.105 236.722 225.852 236.8 225.56 236.859C225.969 240.826 224.801 243.993 222.211 249.133C221.12 251.322 219.991 253.491 218.822 255.641C219.893 255.563 220.302 257.244 219.153 257.537C218.628 257.674 218.102 257.811 217.576 257.928C214.285 264.026 210.838 270.045 207.547 276.104C207.236 276.671 206.885 277.277 206.515 277.883C207.314 278.176 207.528 279.505 206.515 279.72C206.087 279.818 205.658 279.896 205.23 279.993C202.465 284.371 199.018 289.336 197.187 293.948C197.518 293.909 197.83 293.87 198.161 293.831C199.407 293.694 199.388 295.648 198.161 295.785C197.596 295.844 197.051 295.922 196.486 295.981C196.331 296.508 196.194 297.056 196.097 297.564C194.734 305.186 202.796 310.424 210.332 313.375C202.114 313.962 193.487 311.949 186.107 308.743C185.036 306.32 183.926 303.916 182.797 301.531C182.738 301.649 182.68 301.746 182.621 301.864C182.057 302.997 180.382 302 180.947 300.886C181.2 300.359 181.472 299.851 181.745 299.342C179.817 295.316 177.811 291.329 175.767 287.381C175.767 287.401 175.747 287.42 175.728 287.44C175.144 288.554 173.469 287.557 174.053 286.463C174.267 286.072 174.481 285.681 174.676 285.27C171.268 278.704 167.744 272.215 164.219 265.706C164.122 265.921 164.005 266.117 163.907 266.332C163.362 267.465 161.668 266.469 162.233 265.355C162.525 264.768 162.817 264.221 163.109 263.635C159.429 256.833 155.748 250.012 152.204 243.133C150.159 239.146 148.251 235.1 146.401 231.035C145.719 231.289 145.038 231.484 144.376 231.758C142.039 232.676 141.026 228.885 143.344 227.986C143.83 227.79 144.317 227.634 144.804 227.438C142.389 221.927 140.13 216.376 137.988 210.767C137.91 210.767 137.852 210.806 137.774 210.806C135.379 211.275 134.366 207.718 136.586 207.093C135.359 203.77 134.152 200.448 132.984 197.106C132.614 197.223 132.244 197.32 131.874 197.438C131.582 197.516 131.328 197.477 131.134 197.34C131.056 197.496 130.958 197.653 130.764 197.77C130.705 197.809 130.647 197.848 130.588 197.887C130.238 198.102 129.673 198.044 129.401 197.731C129.362 197.692 129.323 197.653 129.284 197.614C129.167 197.477 129.108 197.32 129.07 197.164C128.972 197.066 128.894 196.969 128.777 196.891C129.751 199.666 130.725 202.422 131.737 205.177C131.737 205.177 131.776 205.177 131.796 205.177C132.945 204.767 133.432 206.487 132.419 206.995C137.015 219.425 142.097 231.641 148.134 243.582C149.672 244.97 151.211 246.357 152.885 247.589C153.898 248.312 152.924 250.012 151.912 249.27C151.425 248.918 150.958 248.507 150.471 248.136C150.743 248.664 151.016 249.191 151.289 249.719C153.178 249.426 154.58 251.908 153.002 253.003C163.051 271.98 173.8 290.567 182.543 310.229C178.629 318.261 174.696 326.294 170.762 334.307C168.698 328.698 166.653 323.108 164.589 317.499C163.946 315.721 161.415 315.564 160.831 317.499C158.202 326.099 153.002 332.998 145.778 337.63C148.017 333.506 149.517 329.069 149.848 324.203C150.296 317.851 147.881 316.033 142.234 313.727C137.404 311.753 132.536 309.857 127.648 307.981C127.083 308.841 125.525 308.372 125.895 307.297C119.859 304.991 113.822 302.704 107.824 300.378C105.059 299.303 101.671 298.307 98.2821 297.075C97.7564 297.798 97.2306 298.502 96.7243 299.225C96.4711 299.577 96.1595 299.811 95.8285 299.948C104.183 303.486 112.848 306.476 121.3 309.76C126.986 311.968 134.249 313.551 139.41 316.776C144.648 320.06 146.81 322.014 145.31 328.307C144.161 333.154 141.805 337.415 138.787 341.324C137.774 342.633 138.631 345.428 140.676 344.588C150.802 340.464 158.377 333.213 162.7 323.519C164.686 328.913 166.673 334.307 168.639 339.702C169.165 341.148 171.385 341.793 172.203 340.171C176.156 332.177 180.051 324.164 183.965 316.151C194.753 350.041 196.662 385.611 198.258 420.967C198.375 423.469 202.27 423.489 202.153 420.967C200.517 384.634 198.551 348.047 187.12 313.278C197.207 317.128 208.832 318.867 219.173 315.701C220.925 315.173 221.14 312.359 219.173 311.929L219.114 312.085Z" fill="#1B99DA"/>
<path d="M75.4983 264.964C74.3494 261.876 73.2004 258.807 72.071 255.719C72.071 255.758 72.032 255.778 72.0126 255.797C71.331 256.853 69.6563 255.876 70.3378 254.82C70.6299 254.351 70.9415 253.902 71.2336 253.452C69.2863 248.156 67.3779 242.859 65.4695 237.543C60.0949 222.572 54.7981 207.581 49.6377 192.552C48.3914 191.829 47.2619 190.949 46.2688 189.855C45.0225 188.486 46.1909 186.649 47.554 186.493C44.2435 176.779 40.9525 167.046 37.7394 157.294C35.7531 151.215 33.7863 145.137 31.8585 139.059C30.1253 138.941 29.7748 136.791 30.8264 135.736C29.4827 131.378 28.139 127 26.8733 122.622C25.627 118.342 24.3807 114.042 23.3875 109.683C22.3749 105.227 22.2581 101.201 22.7644 97.429C22.297 97.1358 21.8297 96.8622 21.3623 96.569C20.3108 95.885 21.2844 94.2041 22.336 94.8882C22.5891 95.0445 22.8228 95.1814 23.076 95.3377C23.6407 92.5038 24.5365 89.8066 25.6854 87.1877C25.1401 86.6991 24.5754 86.2495 24.0302 85.7414C23.1149 84.8814 24.4975 83.4938 25.4128 84.3537C25.7633 84.686 26.1528 84.9987 26.5228 85.3114C29.1127 79.9172 32.5985 74.6988 36.0452 68.9918C38.0705 65.6302 40.0957 62.2881 42.1209 58.9264C41.9262 58.086 41.7509 57.2652 41.5951 56.4052C41.2057 54.3531 43.7177 53.3367 44.8472 54.4312C48.8782 47.7666 52.9092 41.1019 56.9402 34.4373C58.5954 31.7011 60.2506 28.9453 61.9059 26.2091C62.899 24.5673 63.8922 22.9256 64.8853 21.2643C65.08 21.0298 65.2358 20.8539 65.4111 20.6389C65.4306 20.7171 65.4111 20.8148 65.4695 20.893C77.7961 50.0728 88.9155 79.624 99.3921 109.429C99.4895 109.468 99.5869 109.527 99.6842 109.566C99.7816 109.292 99.9568 109.019 100.249 108.784C101.067 108.12 101.865 107.436 102.644 106.732C101.008 102.081 99.3532 97.429 97.6785 92.7774C97.4058 93.0706 97.1332 93.4028 96.8411 93.696C95.9453 94.595 94.5822 93.2074 95.4585 92.3083C95.9648 91.8002 96.4322 91.2529 96.8995 90.7252C94.0954 83.0052 91.2133 75.3047 88.2923 67.6237C87.3965 68.1514 86.2865 66.9201 87.1239 66.1188C87.2797 65.982 87.3965 65.8061 87.5328 65.6497C85.235 59.63 82.8982 53.6299 80.5224 47.6493C80.0745 48.1184 79.6461 48.607 79.1593 49.0565C78.244 49.9165 76.8614 48.5288 77.7767 47.6689C78.4582 47.0239 79.1009 46.3398 79.724 45.6558C76.2578 36.9585 72.7331 28.3003 69.0916 19.6617C70.7663 20.3067 72.402 20.9907 72.5773 21.0493C76.2188 22.2611 79.8603 23.4924 83.4824 24.7042C84.8066 25.1537 86.1308 25.6032 87.4549 26.0332C87.4549 25.6227 87.5134 25.2319 87.4939 24.841C87.4939 23.5901 89.4218 23.5901 89.4412 24.841C89.4412 25.4664 89.4023 26.0723 89.3633 26.6781C91.8949 27.5186 94.4264 28.3785 96.958 29.2189C96.958 28.9648 96.958 28.7303 96.958 28.4762C96.8995 27.2254 98.8469 27.2254 98.9053 28.4762C98.9248 28.9453 98.9442 29.4144 98.9637 29.8834C102.644 31.1147 106.344 32.3656 110.025 33.5969C110.025 33.4991 110.025 33.4014 110.005 33.3037C109.869 32.0529 111.836 32.0724 111.952 33.3037C111.991 33.6164 112.011 33.9487 112.03 34.2614C115.185 35.3168 118.32 36.3722 121.475 37.4276C121.397 37.2126 121.319 36.9976 121.241 36.8022C120.307 34.4568 124.065 33.4601 125 35.7663C125.428 36.8217 125.798 37.8966 126.149 38.9716C131.815 40.7697 137.716 42.4309 143.012 45.0108C145.758 46.3594 147.978 47.9425 149.906 49.7601C149.789 49.1347 149.711 48.5093 149.556 47.8838C149.283 46.6525 151.172 46.1444 151.425 47.3561C151.775 48.9588 152.009 50.5614 152.184 52.1445C154.502 54.9198 156.332 58.1251 158.143 61.7604C158.28 60.4118 158.377 59.0437 158.416 57.6561C158.435 56.7375 159.467 56.5029 160.013 56.9134C157.286 51.8318 154.171 47.2584 149.147 43.975C141.844 39.1866 132.672 37.0758 124.513 34.32C104.962 27.7531 85.4297 21.2057 65.8784 14.6388C65.0606 14.3652 64.1064 14.8342 63.678 15.5378C53.3181 32.6783 42.9778 49.7992 32.6179 66.9397C28.3143 74.0734 23.2318 81.1485 20.1355 88.9271C16.9613 96.9208 17.9934 104.289 19.9992 112.439C24.6533 131.397 31.1379 150.003 37.311 168.492C48.6445 202.422 59.8612 236.761 72.9862 270.124C73.8041 268.365 74.6025 266.606 75.4204 264.847L75.4983 264.964Z" fill="#1B99DA"/>
<path d="M93.2775 297.388C93.6669 296.821 94.0759 296.293 94.4848 295.727C90.4928 293.987 86.8513 291.798 84.7676 288.593C82.6255 285.31 81.1456 281.205 79.8214 277.179C79.4903 277.883 79.1788 278.567 78.8672 279.27C78.3414 280.404 76.6667 279.427 77.1925 278.293C77.7767 277.023 78.3609 275.752 78.9451 274.501C78.4388 272.997 77.9519 271.511 77.4261 270.124C77.0951 269.264 76.7835 268.404 76.472 267.544C75.9072 268.775 75.3425 270.006 74.7778 271.238C74.5246 271.765 74.0378 271.824 73.6288 271.628C75.5957 276.593 77.5819 281.518 79.6461 286.443C82.3529 292.932 85.7608 295.707 92.6543 298.776C92.7906 298.834 92.9464 298.893 93.0827 298.952C92.9075 298.482 92.9464 297.955 93.3359 297.408L93.2775 297.388Z" fill="#1B99DA"/>
<path d="M127.843 182.115C126.402 177.717 124.961 173.3 123.559 168.883C123.442 168.493 123.305 168.102 123.189 167.73C122.449 167.203 122.098 166.225 122.429 165.404C121.494 162.473 120.54 159.541 119.586 156.629C119.216 156.805 118.827 156.981 118.457 157.157C117.327 157.645 116.334 155.965 117.483 155.476C117.989 155.261 118.495 155.007 119.002 154.792C114.192 140.055 109.246 125.378 104.124 110.758C103.774 111.051 103.423 111.345 103.073 111.638C102.683 111.95 102.274 112.087 101.865 112.087C101.729 112.635 101.339 113.123 100.833 113.416C102.196 117.286 103.52 121.175 104.864 125.065C105.234 125.495 105.429 126.042 105.39 126.589C110.979 142.948 116.412 159.385 121.748 175.88C123.286 175.919 124.299 178.187 122.896 179.398C123.948 182.662 125.019 185.907 126.11 189.131C126.927 189.522 127.687 189.991 128.31 190.617C129.128 191.457 127.998 192.689 127.122 192.122C127.375 192.845 127.609 193.568 127.862 194.291C129.05 194.819 130.082 195.444 130.783 196.187C130.881 195.972 131.075 195.777 131.387 195.698C131.718 195.601 132.049 195.503 132.38 195.405C131.036 191.555 129.751 187.685 128.466 183.815C127.726 183.815 127.414 182.76 127.921 182.154L127.843 182.115Z" fill="#1B99DA"/>
<path d="M158.104 128.407C157.793 128.485 157.54 128.72 157.442 129.032C146.226 139.664 133.237 148.303 118.943 154.733C118.437 154.968 117.95 155.202 117.424 155.417C116.275 155.925 117.269 157.606 118.398 157.098C118.788 156.922 119.158 156.746 119.528 156.57C121.261 155.789 122.955 154.987 124.649 154.147C124.63 154.225 124.591 154.284 124.591 154.381C124.454 157.45 123.987 160.44 123.208 163.411C123.111 163.782 123.227 164.095 123.442 164.31C123.364 164.349 123.266 164.408 123.189 164.447C122.76 164.681 122.526 164.994 122.39 165.346C122.059 166.167 122.41 167.144 123.15 167.672C123.695 168.063 124.415 168.219 125.155 167.808C147.491 155.847 167.043 139.86 183.244 120.374C183.673 119.866 184.121 119.358 184.549 118.85C186.126 116.915 183.381 114.139 181.803 116.094C181.745 116.153 181.706 116.211 181.648 116.27C179.934 118.361 178.162 120.413 176.39 122.426C176.253 119.514 175.377 116.739 173.741 114.315C173.664 114.198 173.566 114.12 173.469 114.061C175.085 111.911 176.643 109.722 178.162 107.475C178.727 106.634 179.311 105.794 179.856 104.914C180.538 103.859 178.843 102.862 178.181 103.937C177.889 104.387 177.578 104.836 177.286 105.286C171.736 113.768 165.309 121.508 158.124 128.407H158.104ZM132.205 150.766C132.205 150.57 132.127 150.414 132.049 150.297C133.626 149.398 135.184 148.459 136.723 147.502C136.937 150.57 136.839 153.619 136.43 156.668C134.814 157.704 133.198 158.779 131.543 159.776C131.582 159.698 131.621 159.639 131.64 159.561C132.205 156.649 132.419 153.736 132.244 150.785L132.205 150.766ZM138.631 146.857C138.631 146.661 138.553 146.505 138.456 146.368C140.5 145.059 142.506 143.691 144.492 142.283C144.96 144.922 145.155 147.56 145.057 150.238C145.057 150.414 145.096 150.57 145.155 150.707C142.973 152.29 140.773 153.834 138.514 155.32C138.806 152.505 138.845 149.71 138.611 146.857H138.631ZM146.264 141.13C146.264 141.13 146.226 141.052 146.226 141.013C147.939 139.743 149.614 138.433 151.25 137.085C152.126 139.821 152.34 142.596 151.756 145.45C151.737 145.547 151.756 145.626 151.756 145.723C150.198 146.955 148.64 148.205 147.024 149.398C147.063 146.622 146.81 143.867 146.284 141.13H146.264ZM152.866 135.756C154.58 134.309 156.254 132.804 157.89 131.28C158.611 133.86 159.214 136.459 159.682 139.078C157.773 140.759 155.845 142.42 153.879 144.023C154.171 141.208 153.879 138.433 152.866 135.736V135.756ZM125.973 153.521C127.414 152.779 128.855 152.017 130.277 151.235C130.394 153.854 130.238 156.434 129.732 159.013C129.595 159.717 130.141 160.167 130.686 160.225C128.894 161.281 127.064 162.297 125.233 163.313C125.954 160.382 126.402 157.43 126.538 154.401C126.557 153.932 126.285 153.639 125.954 153.521H125.973ZM174.501 123.775C174.501 124.009 174.579 124.205 174.676 124.342C172.807 126.394 170.918 128.407 168.99 130.381C168.717 127.703 167.938 125.143 166.653 122.719C166.614 122.641 166.536 122.583 166.478 122.524C168.464 120.296 170.373 118.009 172.223 115.644C173.8 118.107 174.579 120.824 174.481 123.775H174.501ZM165.115 124.029C166.419 126.589 167.082 129.286 167.14 132.14C165.251 133.997 163.343 135.834 161.376 137.612C160.87 134.974 160.266 132.355 159.487 129.755C161.415 127.899 163.284 125.983 165.095 124.009L165.115 124.029Z" fill="#1B99DA"/>
<path d="M104.397 127.938C105.02 127.606 105.273 127.097 105.331 126.55C105.39 126.003 105.176 125.456 104.806 125.026C104.26 124.381 103.384 124.048 102.43 124.557C81.4571 136.068 55.2849 134.133 32.0921 135.169C31.5469 135.189 31.1379 135.423 30.8263 135.717C29.7748 136.752 30.1058 138.902 31.8584 139.039C31.9363 139.039 31.9947 139.078 32.0921 139.078C56.0444 138.023 82.7034 139.84 104.397 127.938Z" fill="#1B99DA"/>
<path d="M98.9247 113.514C99.6258 113.827 100.268 113.69 100.794 113.377C101.3 113.065 101.69 112.576 101.826 112.048C102.235 112.048 102.644 111.911 103.034 111.599C103.384 111.306 103.735 111.012 104.085 110.719C123.461 94.3605 134.113 63.4998 126.226 39.0693C125.876 37.9944 125.506 36.9194 125.077 35.864C124.162 33.5578 120.384 34.5741 121.319 36.8999C121.397 37.1149 121.475 37.3103 121.553 37.5253C130.374 60.5486 120.871 90.3539 102.664 106.771C101.885 107.475 101.086 108.178 100.268 108.823C99.9763 109.058 99.801 109.332 99.7037 109.605C99.6063 109.566 99.5089 109.507 99.4116 109.468C75.2256 98.5625 50.6697 83.6306 45.3729 55.3889C45.295 54.9785 45.1003 54.6853 44.8666 54.4508C43.7372 53.3367 41.2251 54.3726 41.6146 56.4248C41.7704 57.2847 41.9651 58.1251 42.1404 58.946C48.6834 87.09 74.0767 102.452 98.9053 113.494L98.9247 113.514Z" fill="#1B99DA"/>
<path d="M96.6463 299.342C97.1526 298.619 97.6979 297.896 98.2042 297.193C112.264 277.902 130.822 263.009 152.652 253.315C152.788 253.257 152.846 253.179 152.944 253.1C154.502 252.006 153.119 249.524 151.23 249.817C151.055 249.836 150.86 249.856 150.685 249.934C141.844 253.863 133.529 258.651 125.837 264.221C120.501 249.602 115.166 234.983 109.81 220.363C110.979 221.38 112.303 222.279 113.51 223.217C117.97 226.696 122.585 229.94 127.375 232.95C131.698 235.667 136.236 238.012 140.656 240.572C144.278 242.664 147.18 245.634 150.412 248.234C150.88 248.625 151.347 249.016 151.853 249.367C152.866 250.11 153.84 248.41 152.827 247.687C151.152 246.455 149.614 245.068 148.076 243.68C146.634 242.39 145.174 241.12 143.558 240.045C139.936 237.641 135.924 235.823 132.185 233.615C128.096 231.191 124.104 228.592 120.229 225.816C116.723 223.315 110.258 220.07 108.661 215.849C108.661 215.829 108.642 215.81 108.622 215.79C108.72 215.79 108.837 215.79 108.954 215.731C116.723 212.878 124.493 210.005 132.263 207.151C132.302 207.151 132.322 207.112 132.36 207.093C133.373 206.585 132.886 204.845 131.737 205.275C131.737 205.275 131.698 205.275 131.679 205.275C124.182 208.031 116.665 210.787 109.168 213.562C109.732 212.35 110.297 211.119 110.862 209.907C111.037 209.985 111.232 210.005 111.485 209.907C117.483 207.699 123.481 205.49 129.478 203.282C130.647 202.852 130.141 200.956 128.953 201.405C123.266 203.497 117.561 205.588 111.875 207.679C112.439 206.448 113.023 205.216 113.588 203.966C113.705 203.966 113.822 203.966 113.958 203.907C118.593 202.207 123.208 200.506 127.843 198.806C129.011 198.376 128.505 196.48 127.317 196.93C123.111 198.474 118.904 200.018 114.698 201.581C115.983 198.806 117.249 196.05 118.534 193.275C121.689 194.115 126.324 195.053 128.719 196.988C128.836 197.066 128.914 197.164 129.011 197.262C129.05 197.418 129.108 197.575 129.225 197.711C129.264 197.751 129.303 197.79 129.342 197.829C129.615 198.141 130.179 198.2 130.53 197.985C130.588 197.946 130.647 197.907 130.705 197.868C130.881 197.751 130.997 197.594 131.075 197.438C131.27 197.555 131.523 197.614 131.815 197.536C132.185 197.438 132.555 197.321 132.925 197.203C134.269 196.812 135.613 196.421 136.976 196.011C139.994 199.588 143.616 202.441 147.725 204.513C144.103 205.51 140.422 206.389 136.703 207.112C136.645 207.112 136.606 207.151 136.547 207.171C134.327 207.796 135.34 211.334 137.735 210.884C137.813 210.884 137.871 210.845 137.949 210.845C162.953 205.94 185.776 194.799 205.132 178.245C205.678 177.776 206.242 177.327 206.788 176.838C208.677 175.177 205.911 172.421 204.042 174.082C203.925 174.18 203.808 174.278 203.691 174.375C202.289 175.607 200.868 176.779 199.446 177.952C199.388 177.952 199.349 177.913 199.271 177.913C194.5 177.639 190.002 176.388 185.756 174.239C187.762 172.773 189.69 171.209 191.579 169.567C191.598 169.567 191.618 169.607 191.637 169.607C194.987 171.072 198.453 171.854 202.114 171.893C202.348 171.893 202.543 171.815 202.679 171.698C203.302 171.209 203.127 169.958 202.114 169.939C202.075 169.939 202.056 169.939 202.036 169.939C198.979 169.88 196.038 169.294 193.215 168.141C195.259 166.264 197.226 164.232 199.096 162.101C199.427 161.711 199.797 161.359 200.128 160.968C200.926 160.01 199.563 158.623 198.745 159.58C198.609 159.737 198.453 159.893 198.317 160.049C187.431 172.695 173.177 180.805 157.949 186.825C157.676 186.786 157.442 186.903 157.267 187.099C150.763 189.64 144.083 191.829 137.424 193.822C137.17 193.783 136.898 193.861 136.703 194.037C135.243 194.467 133.763 194.917 132.302 195.327C131.971 195.425 131.64 195.522 131.309 195.62C130.997 195.698 130.822 195.894 130.705 196.109C130.004 195.366 128.972 194.741 127.784 194.213C125.564 193.236 122.877 192.591 121.222 192.063C116.217 190.441 111.135 188.995 106.052 187.607C107.337 187.138 108.603 186.649 109.849 186.122C109.888 186.122 109.908 186.141 109.927 186.161C112.692 186.708 115.36 187.627 118.048 188.486C120.754 189.366 124.824 189.855 126.83 191.907C126.888 191.965 126.947 192.004 127.025 192.044C127.901 192.61 129.031 191.379 128.213 190.539C127.59 189.894 126.83 189.425 126.012 189.053C124.454 188.33 122.682 187.939 121.105 187.431C118.359 186.552 115.633 185.594 112.848 184.851C116.178 183.307 119.43 181.529 122.585 179.496C122.663 179.437 122.741 179.379 122.799 179.32C124.201 178.128 123.189 175.861 121.65 175.802C121.319 175.802 120.969 175.88 120.599 176.115C110.453 182.701 99.2363 186.552 87.3381 188.506C78.244 189.991 56.1222 194.936 48.9755 187.04C48.5276 186.552 48.0019 186.395 47.515 186.454C46.1519 186.61 44.9835 188.447 46.2298 189.815C47.2229 190.91 48.3524 191.789 49.5987 192.513C58.3227 197.555 72.6551 194.33 81.535 193.255C84.4755 192.903 87.3965 192.434 90.2785 191.887C87.747 197.36 85.2349 202.832 82.7034 208.285C82.6839 208.344 82.6839 208.383 82.6645 208.441C72.5188 203.712 62.3537 199.001 52.2081 194.272C51.0786 193.744 50.0855 195.425 51.2344 195.952C66.4431 203.028 81.6518 210.103 96.88 217.178C87.7859 228.865 79.2177 240.944 71.2141 253.393C70.922 253.863 70.6104 254.312 70.3183 254.762C69.6368 255.817 71.331 256.814 71.993 255.739C71.993 255.719 72.032 255.68 72.0515 255.661C79.1787 244.501 86.7733 233.673 94.7769 223.139C88.3507 237.054 81.9245 250.99 75.4788 264.905C74.6609 266.664 73.8625 268.423 73.0446 270.182C72.772 270.788 73.1225 271.335 73.5704 271.55C73.9793 271.746 74.4856 271.687 74.7193 271.159C75.284 269.928 75.8488 268.697 76.4135 267.465C88.1559 242.058 99.8789 216.63 111.621 191.223C111.621 191.223 111.621 191.223 111.621 191.203C113.296 191.692 114.971 192.18 116.626 192.688C104.046 219.933 91.4664 247.178 78.8866 274.423C78.3024 275.694 77.7182 276.964 77.134 278.215C76.6082 279.349 78.2829 280.345 78.8087 279.192C79.1203 278.489 79.4513 277.804 79.7629 277.101C88.7596 257.615 97.7563 238.129 106.753 218.644C106.461 228.553 106.948 238.383 108.194 248.234C109.421 257.928 110.881 267.544 110.161 277.316C104.436 282.925 99.1779 289.043 94.4069 295.649C94.0174 296.196 93.589 296.743 93.1996 297.31C92.8101 297.857 92.7711 298.404 92.9464 298.854C93.2969 299.812 94.6016 300.417 95.6532 300.007C95.9842 299.87 96.2958 299.636 96.549 299.284L96.6463 299.342ZM139.02 195.405C141.727 194.584 144.434 193.724 147.121 192.845C147.121 192.845 147.121 192.845 147.141 192.864C151.328 196.05 155.923 198.474 160.85 200.213C157.481 201.503 154.073 202.676 150.588 203.712C146.148 201.816 142.253 199.001 139.02 195.386V195.405ZM157.812 188.995C162.291 192.024 167.198 194.096 172.456 195.19C169.574 196.597 166.634 197.907 163.654 199.138C158.494 197.575 153.762 195.21 149.4 192.083C152.223 191.125 155.027 190.089 157.793 189.014L157.812 188.995ZM170.373 184.011C173.021 185.711 176.195 185.711 179.155 186.571C181.355 187.197 183.342 187.861 185.484 187.939C181.979 190.148 178.376 192.18 174.715 194.057C174.618 193.822 174.423 193.607 174.072 193.548C169.029 192.63 164.394 190.793 160.091 188.115C163.459 186.747 166.789 185.262 170.041 183.639C170.119 183.776 170.217 183.913 170.373 184.011ZM183.926 175.568C188.132 177.815 192.592 179.144 197.285 179.652C194.344 181.939 191.345 184.089 188.269 186.122C188.054 185.907 187.762 185.789 187.392 185.848C184.238 186.454 181.531 185.086 178.571 184.363C176.312 183.815 174.014 183.737 171.969 182.643C176.098 180.512 180.09 178.147 183.907 175.509C183.907 175.509 183.926 175.528 183.945 175.548L183.926 175.568ZM98.2237 215.712C93.6085 213.562 89.0128 211.432 84.3976 209.282C87.0265 203.575 89.6749 197.848 92.3038 192.141C92.4011 191.926 92.4011 191.711 92.3622 191.516C96.4127 190.675 100.385 189.581 104.28 188.252C104.202 188.701 104.377 189.21 104.942 189.366C106.539 189.796 108.155 190.265 109.752 190.715C105.896 199.04 102.06 207.366 98.2042 215.712H98.2237ZM110.2 248.312C109.129 239.888 108.622 231.445 108.7 222.963C113.841 237.054 119.002 251.146 124.143 265.237C124.162 265.316 124.221 265.355 124.24 265.413C120.073 268.521 116.1 271.843 112.322 275.381C112.712 266.293 111.368 257.341 110.2 248.312Z" fill="#1B99DA"/>
<path d="M190.157 220.911C174.637 221.106 159.39 222.103 144.765 227.536C144.278 227.712 143.791 227.888 143.305 228.083C140.987 228.982 142 232.774 144.337 231.856C145.018 231.582 145.68 231.386 146.362 231.132C158.766 226.637 171.658 225.289 184.802 224.937C176.916 237.504 169.671 250.442 163.07 263.713C162.778 264.28 162.486 264.847 162.194 265.433C161.648 266.566 163.323 267.544 163.868 266.41C163.966 266.195 164.083 266 164.18 265.785C166.848 260.39 169.633 255.074 172.515 249.797C172.554 249.797 172.592 249.797 172.651 249.778C180.693 246.494 189.184 245.537 197.694 244.266C189.651 257.771 181.979 271.472 174.657 285.368C174.442 285.759 174.228 286.15 174.034 286.56C173.449 287.674 175.124 288.652 175.708 287.538C175.708 287.518 175.728 287.499 175.747 287.479C179.642 280.072 183.634 272.723 187.743 265.413C192.261 264.338 196.759 263.244 201.257 262.13C194.519 274.443 188.015 286.893 181.725 299.44C181.472 299.968 181.2 300.476 180.927 300.984C180.362 302.098 182.037 303.095 182.602 301.961C182.66 301.844 182.719 301.746 182.777 301.629C183.459 300.281 184.16 298.952 184.841 297.583C184.978 297.623 185.114 297.623 185.27 297.583C188.989 296.978 192.708 296.469 196.447 296.039C197.012 295.981 197.557 295.903 198.122 295.844C199.349 295.707 199.368 293.753 198.122 293.89C197.791 293.929 197.479 293.968 197.148 294.007C193.371 294.417 189.632 294.945 185.873 295.531C188.054 291.212 190.235 286.893 192.475 282.612C192.631 282.671 192.825 282.71 193.04 282.671C197.09 281.792 201.14 280.932 205.191 280.052C205.619 279.954 206.048 279.876 206.476 279.778C207.508 279.563 207.294 278.215 206.476 277.941C206.32 277.883 206.145 277.863 205.95 277.902C201.822 278.782 197.694 279.681 193.565 280.56C196.642 274.697 199.758 268.853 202.932 263.048C203.224 262.521 202.971 262.032 202.581 261.758C207.567 260.527 212.552 259.257 217.518 257.967C218.043 257.83 218.569 257.713 219.095 257.576C220.244 257.283 219.835 255.602 218.764 255.68C218.705 255.68 218.647 255.68 218.569 255.68C208.735 258.241 198.901 260.684 189.028 263.029C192.455 256.951 195.941 250.911 199.524 244.911C199.738 244.559 199.68 244.208 199.505 243.934C199.583 243.934 199.68 243.914 199.758 243.895C204.198 243.191 208.618 242.292 212.883 240.826C217.089 239.38 221.12 237.66 225.502 236.878C225.774 236.82 226.047 236.742 226.339 236.703C227.566 236.527 227.04 234.631 225.813 234.826C225.599 234.865 225.404 234.924 225.19 234.963C221.003 235.686 217.167 237.269 213.156 238.677C208.638 240.279 203.984 241.276 199.252 242.019C190.683 243.387 182.076 244.208 173.897 247.198C178.084 239.615 182.485 232.149 187.1 224.82C192.942 224.683 198.979 224.331 204.801 224.995C212.474 225.855 218.686 229.569 224.898 233.771C225.19 233.966 225.502 234.162 225.794 234.377C227.877 235.803 229.825 232.403 227.761 230.996C226.164 229.901 224.606 228.924 223.067 228.044C212.532 221.966 203.399 220.715 190.099 220.872L190.157 220.911Z" fill="#1B99DA"/>
<path d="M112.108 34.3396C112.069 34.0268 112.05 33.6946 112.03 33.3819C111.913 32.1506 109.947 32.131 110.083 33.3819C110.083 33.4796 110.083 33.5773 110.102 33.675C112.011 52.9654 110.511 75.7346 96.9579 90.7643C96.471 91.292 96.0232 91.8393 95.5169 92.3474C94.6211 93.2465 96.0037 94.6146 96.8995 93.7351C97.1916 93.4419 97.4447 93.1292 97.7368 92.8165C112.089 77.5914 114.036 54.2944 112.128 34.3396H112.108Z" fill="#1B99DA"/>
<path d="M96.7437 50.5223C98.5742 43.7991 99.2752 36.8999 99.0221 29.9616C99.0221 29.4925 99.0026 29.0235 98.9637 28.5544C98.9052 27.3036 96.9579 27.3036 97.0163 28.5544C97.0163 28.8085 97.0163 29.043 97.0163 29.2971C97.3084 35.7272 96.8021 42.0987 95.2637 48.3725C93.8422 54.2162 91.8169 61.2327 87.5523 65.6888C87.4159 65.8452 87.2796 66.0015 87.1433 66.1579C86.306 66.9787 87.4354 68.1905 88.3117 67.6628C88.3896 67.6237 88.448 67.6042 88.5065 67.526C92.9464 63.2262 95.1274 56.3466 96.7242 50.5028L96.7437 50.5223Z" fill="#1B99DA"/>
<path d="M89.5191 24.8996C89.5191 23.6488 87.5523 23.6488 87.5717 24.8996C87.5717 25.31 87.5328 25.7009 87.5328 26.0918C87.3381 33.4992 84.6702 40.2615 79.7824 45.6949C79.1592 46.3789 78.5166 47.063 77.8351 47.708C76.9198 48.5679 78.3024 49.9556 79.2177 49.0956C79.7045 48.6461 80.1329 48.1575 80.5808 47.6884C86.0333 41.9619 89.1296 34.6718 89.4606 26.7368C89.4801 26.1309 89.5385 25.5055 89.5385 24.8996H89.5191Z" fill="#1B99DA"/>
<path d="M65.2747 61.8386L65.5084 61.7604C69.812 60.1773 72.5383 54.8612 70.7273 50.4833C68.8968 46.0858 64.0869 43.5645 59.4911 45.2453L59.2575 45.3235C54.9538 46.9066 52.2276 52.2227 54.0386 56.6007C55.8691 60.9981 60.679 63.5194 65.2747 61.8386Z" fill="#1B99DA"/>
<path d="M69.7342 64.1057L69.8121 64.3402C71.0973 67.8778 76.5888 65.8647 75.3036 62.3272L75.2257 62.0926C73.9404 58.5551 68.4489 60.5682 69.7342 64.1057Z" fill="#1B99DA"/>
<path d="M69.6757 70.3599C67.9036 71.0049 68.9163 73.7607 70.6883 73.1157C72.4604 72.4707 71.4478 69.715 69.6757 70.3599Z" fill="#1B99DA"/>
<path d="M111.738 18.7236C115.263 17.4336 113.257 11.9221 109.732 13.212C106.208 14.502 108.214 20.0135 111.738 18.7236Z" fill="#1B99DA"/>
<path d="M204.879 121.449C215.473 117.56 209.456 101.025 198.843 104.934C188.249 108.823 194.266 125.358 204.879 121.449Z" fill="#1B99DA"/>
<path d="M129.031 25.6227C139.624 21.7334 133.607 5.19882 122.994 9.1077C112.4 12.997 118.418 29.5316 129.031 25.6227Z" fill="#1B99DA"/>
<path d="M118.145 8.56046C123.442 6.60602 120.423 -1.64173 115.127 0.293167C109.83 2.24761 112.848 10.4954 118.145 8.56046Z" fill="#1B99DA"/>
<path d="M12.1319 56.9329C6.83514 58.8874 9.85352 67.1351 15.1503 65.2002C20.447 63.2458 17.4287 54.998 12.1319 56.9329Z" fill="#1B99DA"/>
<path d="M16.9808 72.3144C15.4035 67.9951 10.1067 65.2588 5.74466 67.0765C1.36315 68.9136 -1.14891 73.7411 0.5258 78.3536L0.778953 79.0377C2.3563 83.357 7.65305 86.0932 12.0151 84.2756C16.3966 82.4384 18.9087 77.6109 17.234 72.9984L16.9808 72.3144Z" fill="#1B99DA"/>
<path d="M37.6225 207.581C44.6719 204.982 40.6799 193.978 33.5916 196.578C26.5422 199.177 30.5342 210.181 37.6225 207.581Z" fill="#1B99DA"/>
<path d="M33.8058 219.523L33.1242 219.777C28.1001 221.634 24.9064 227.829 27.0485 232.95C29.1906 238.09 34.7794 241.041 40.1736 239.048L40.8551 238.794C45.8793 236.937 49.0729 230.742 46.9308 225.621C44.7887 220.481 39.1999 217.529 33.8058 219.523Z" fill="#1B99DA"/>
<path d="M139.975 93.1683C139.449 94.3018 141.123 95.2986 141.649 94.1455C147.783 80.8748 153.801 66.9592 152.262 52.2422C152.087 50.6591 151.873 49.0565 151.503 47.4539C151.23 46.2226 149.361 46.7503 149.633 47.9816C149.77 48.607 149.867 49.2324 149.984 49.8578C152.613 65.1025 146.264 79.5458 139.975 93.1683Z" fill="#1B99DA"/>
<path d="M158.494 57.7538C158.455 59.1414 158.357 60.49 158.221 61.8581C157.637 67.6042 156.215 73.1352 153.898 78.4904C153.411 79.624 155.086 80.6208 155.573 79.4676C157.598 74.7965 158.981 70.0277 159.76 65.1025C160.13 62.6985 160.383 60.2359 160.441 57.7538C160.441 57.6952 160.422 57.6561 160.422 57.5974C160.383 57.3434 160.285 57.1284 160.11 57.0111C159.565 56.6007 158.533 56.8352 158.513 57.7538H158.494Z" fill="#1B99DA"/>
<path d="M55.9859 102.081C45.5482 97.6244 35.091 92.9728 26.5422 85.331C26.1722 84.9987 25.7827 84.7055 25.4322 84.3733C24.517 83.5133 23.1343 84.901 24.0496 85.7609C24.5754 86.2691 25.1596 86.7186 25.7048 87.2072C34.2731 94.6927 44.6135 99.3443 54.9928 103.781C56.1417 104.27 57.1348 102.589 55.9664 102.1L55.9859 102.081Z" fill="#1B99DA"/>
<path d="M47.515 106.263C38.8299 103.8 30.729 100.165 23.0954 95.3573C22.8422 95.2009 22.5891 95.0641 22.3554 94.9077C21.3039 94.2237 20.3107 95.924 21.3817 96.5886C21.8491 96.8817 22.3165 97.1553 22.7838 97.4485C30.359 102.139 38.4209 105.716 47.0087 108.159C48.2161 108.511 48.7224 106.615 47.5345 106.283L47.515 106.263Z" fill="#1B99DA"/>
<path d="M189.612 138.805C185.328 145.293 180.44 151.313 174.968 156.844C174.092 157.743 175.455 159.111 176.351 158.232C181.784 152.759 186.613 146.779 190.897 140.368C191.034 140.173 191.17 139.997 191.287 139.801C191.832 138.98 190.917 138.199 190.158 138.414C189.943 138.472 189.749 138.59 189.612 138.805Z" fill="#1B99DA"/>
<path d="M128.388 183.776C128.505 183.776 128.622 183.776 128.738 183.698C135.71 180.766 142.681 177.854 149.692 174.981C150.841 174.512 150.334 172.616 149.166 173.105C142.175 175.978 135.184 178.89 128.213 181.822C128.037 181.9 127.921 181.998 127.823 182.115C127.317 182.721 127.628 183.776 128.368 183.776H128.388Z" fill="#1B99DA"/>
<path d="M139.313 287.811C140.091 286.853 138.728 285.446 137.93 286.424C132.769 292.756 128.738 299.733 125.856 307.375C125.856 307.375 125.856 307.395 125.856 307.414C125.486 308.489 127.044 308.958 127.609 308.098C127.648 308.04 127.706 307.981 127.726 307.903C130.511 300.574 134.366 293.889 139.313 287.811Z" fill="#1B99DA"/>
<path d="M195.298 198.962C194.188 199.549 195.162 201.229 196.272 200.643C201.686 197.829 207.761 197.731 213.253 200.33C213.35 200.369 213.428 200.409 213.526 200.448C214.655 200.995 215.629 199.314 214.499 198.767C213.798 198.415 213.078 198.122 212.338 197.848C206.71 195.777 200.731 196.128 195.279 198.962H195.298Z" fill="#1B99DA"/>
</g>
<defs>
<clipPath id="clip0_934_4400">
<rect width="230" height="423" fill="white"/>
</clipPath>
</defs>
</svg>
