<svg width="76" height="73" viewBox="0 0 76 73" fill="none" xmlns="http://www.w3.org/2000/svg">
<path d="M0.73968 30.0943C0.463759 30.0943 0.187838 29.9366 0.0695861 29.6607C-0.107792 29.2862 0.0695861 28.8526 0.424341 28.6753C6.80994 25.7584 40.4132 11.9623 74.8836 28.1628C75.258 28.3402 75.4157 28.7738 75.2383 29.1483C75.0609 29.5227 74.6273 29.6804 74.2529 29.503C40.3737 13.5981 7.32236 27.1577 1.03531 30.0351C0.936766 30.0746 0.838223 30.0943 0.719971 30.0943H0.73968Z" fill="url(#paint0_linear_1012_2341)"/>
<path d="M27.1895 21.186C27.7414 21.186 28.2144 21.186 28.7071 21.186C33.7919 21.0875 38.8965 20.9692 43.9813 20.9298C46.0704 20.9298 48.1595 21.1072 50.2486 21.2057C50.7217 21.2254 51.1355 21.2649 51.2538 20.6342C52.2786 14.9581 49.4603 9.59734 43.9025 7.31114C37.8913 4.84756 31.4072 7.17318 28.2341 12.7704C26.7362 15.3917 26.2632 18.2297 27.1895 21.2057V21.186Z" fill="url(#paint1_linear_1012_2341)"/>
<path d="M67.9663 49.6256C67.6115 48.0292 66.5867 46.9058 65.4239 45.8809C63.3742 44.0677 61.0092 42.7275 58.5062 41.683C54.3082 39.9289 50.0117 38.3522 45.7744 36.7164C44.1386 36.0857 42.4436 35.6127 40.9852 34.6076C38.8172 33.09 37.753 31.0797 38.1077 28.3797C38.3048 26.7833 38.9749 25.3839 39.8224 24.0438C40.3939 23.1372 41.0443 22.27 41.7538 21.2254C40.5516 21.2254 39.4479 21.2254 38.3639 21.2254C38.3245 21.2254 38.2851 21.2648 38.2457 21.2845C35.4274 22.6444 32.6681 24.0832 30.1257 25.9161C28.2928 27.2366 26.5585 28.6753 25.4548 30.7053C24.627 32.2228 24.5285 33.7404 25.573 35.2383C26.3614 36.4011 27.4059 37.288 28.5293 38.0763C31.663 40.3231 35.1711 41.8801 38.5413 43.713C40.0786 44.5604 41.6159 45.3882 42.8772 46.6298C44.8087 48.5416 44.0006 50.8672 42.2663 51.8723C41.3597 52.4045 40.3939 52.8775 39.3888 53.2322C36.4128 54.2768 33.4171 55.3016 30.3819 56.228C25.3168 57.7652 20.3108 59.4602 15.6005 61.904C12.0135 63.7764 8.68274 66.0034 5.8447 68.8809C4.62276 70.1225 3.53879 71.4627 2.37598 72.7635C2.41539 72.8226 2.47452 72.8817 2.51394 72.9606C2.6519 72.9606 2.78986 73 2.94753 73C14.2209 73 25.4942 73 36.7675 73C37.2011 73 37.7136 72.7832 38.088 72.5467C38.8567 72.0343 39.5662 71.4036 40.3151 70.832C43.9415 68.0728 47.8044 65.6881 51.9038 63.7172C55.2148 62.1208 58.5062 60.5441 61.561 58.4944C63.4924 57.2134 65.3451 55.8141 66.7247 53.922C67.6707 52.6607 68.3408 51.3008 67.9663 49.6256ZM30.7761 34.647C29.9878 34.647 29.3374 33.9572 29.3374 33.1491C29.3374 32.3214 29.9681 31.671 30.7958 31.671C31.6236 31.671 32.2543 32.3214 32.2543 33.1491C32.2543 33.9572 31.5645 34.647 30.7958 34.647H30.7761ZM35.2106 70.162C34.3828 70.162 33.7718 69.5116 33.7718 68.6838C33.7718 67.856 34.4025 67.2451 35.25 67.2648C36.0777 67.2648 36.7084 67.9152 36.6887 68.7232C36.6887 69.5313 36.0383 70.1817 35.2106 70.162ZM35.2106 61.2931C34.4025 61.2931 33.7521 60.623 33.7718 59.8149C33.7718 59.0069 34.4419 58.3368 35.25 58.3368C36.0383 58.3368 36.7084 59.0266 36.7084 59.8346C36.7084 60.6427 36.0383 61.2931 35.2303 61.2931H35.2106ZM54.4856 44.994C54.4856 44.2057 55.1754 43.5159 55.9637 43.5159C56.7324 43.5159 57.4419 44.2648 57.4419 45.0137C57.4419 45.8021 56.7324 46.4919 55.944 46.4722C55.136 46.4722 54.4856 45.8021 54.4856 44.9743V44.994ZM57.4222 50.9066C56.5944 50.9066 55.944 50.2562 55.9637 49.4285C55.9637 48.6401 56.6733 47.97 57.4616 47.97C58.2697 47.97 58.9003 48.6401 58.9003 49.4679C58.9003 50.3154 58.2894 50.9066 57.4222 50.9066ZM63.3742 49.4679C62.6056 49.4679 61.896 48.7584 61.896 47.9897C61.896 47.2014 62.5464 46.5116 63.3348 46.4919C64.1428 46.4919 64.872 47.1817 64.872 47.9897C64.872 48.7387 64.1231 49.4679 63.3742 49.4679Z" fill="url(#paint2_linear_1012_2341)"/>
<path d="M25.5314 13.48C25.5314 13.48 25.4132 13.48 25.3737 13.4603L22.0627 12.2581C21.8065 12.1595 21.6685 11.8836 21.7671 11.6274C21.8656 11.3712 22.1415 11.2529 22.3977 11.3318L25.7088 12.534C25.965 12.6325 26.103 12.9085 26.0044 13.1647C25.9256 13.3618 25.7482 13.4997 25.5314 13.4997V13.48Z" fill="url(#paint3_linear_1012_2341)"/>
<path d="M29.4356 7.68551C29.2976 7.68551 29.1596 7.62639 29.0611 7.52784L26.6961 4.92631C26.5187 4.72922 26.5384 4.41388 26.7355 4.2365C26.9326 4.05913 27.2479 4.07883 27.4253 4.27592L29.7903 6.87746C29.9677 7.07455 29.948 7.38988 29.7509 7.56726C29.6523 7.6461 29.5341 7.68551 29.4158 7.68551H29.4356Z" fill="url(#paint4_linear_1012_2341)"/>
<path d="M35.5833 4.39421C35.3665 4.39421 35.1694 4.23654 35.1103 4.01975L34.2431 0.610155C34.184 0.353943 34.3417 0.0780222 34.5979 0.0188964C34.8541 -0.0599382 35.13 0.11744 35.1891 0.373652L36.0563 3.78324C36.1154 4.03946 35.9578 4.31538 35.7016 4.3745C35.6621 4.3745 35.6227 4.3745 35.5833 4.3745V4.39421Z" fill="url(#paint5_linear_1012_2341)"/>
<path d="M42.5617 4.3745C42.5617 4.3745 42.4829 4.3745 42.4435 4.3745C42.1873 4.31538 42.0099 4.03946 42.0887 3.78324L42.9362 0.373652C42.9953 0.11744 43.2712 -0.0599382 43.5274 0.0188964C43.7837 0.0780222 43.961 0.353943 43.8822 0.610155L43.0347 4.01975C42.9756 4.23654 42.7785 4.39421 42.5617 4.39421V4.3745Z" fill="url(#paint6_linear_1012_2341)"/>
<path d="M48.7304 7.62658C48.6122 7.62658 48.4939 7.58716 48.3954 7.50833C48.1983 7.33095 48.1786 7.01561 48.356 6.81852L50.7013 4.19728C50.8787 4.00019 51.194 3.98048 51.3911 4.15786C51.5882 4.33524 51.6079 4.65058 51.4305 4.84766L49.0852 7.46891C48.9866 7.56745 48.8487 7.62658 48.7107 7.62658H48.7304Z" fill="url(#paint7_linear_1012_2341)"/>
<path d="M52.6315 13.4011C52.4344 13.4011 52.2373 13.2828 52.1782 13.0858C52.0797 12.8295 52.2176 12.5536 52.4738 12.4551L55.7652 11.2331C56.0214 11.1346 56.2973 11.2726 56.3958 11.5288C56.4944 11.785 56.3564 12.0609 56.1002 12.1594L52.8089 13.3814C52.8089 13.3814 52.6906 13.4208 52.6315 13.4208V13.4011Z" fill="url(#paint8_linear_1012_2341)"/>
<defs>
<linearGradient id="paint0_linear_1012_2341" x1="37.6555" y1="20.4214" x2="37.6555" y2="30.0943" gradientUnits="userSpaceOnUse">
<stop stop-color="#FAB7A7"/>
<stop offset="0.25" stop-color="#FBEAE6"/>
<stop offset="0.5" stop-color="#FBD6CD"/>
<stop offset="0.75" stop-color="#FFE4DD"/>
<stop offset="1" stop-color="#FAB7A7"/>
</linearGradient>
<linearGradient id="paint1_linear_1012_2341" x1="39.0883" y1="6.33315" x2="39.0883" y2="21.2144" gradientUnits="userSpaceOnUse">
<stop offset="0.163195" stop-color="#FAB7A7"/>
<stop offset="0.819445" stop-color="#FEE6E0"/>
</linearGradient>
<linearGradient id="paint2_linear_1012_2341" x1="35.2239" y1="21.2254" x2="35.2239" y2="73" gradientUnits="userSpaceOnUse">
<stop stop-color="#FAB7A7"/>
<stop offset="0.25" stop-color="#FBEAE6"/>
<stop offset="0.5" stop-color="#FBD6CD"/>
<stop offset="0.75" stop-color="#FFE4DD"/>
<stop offset="1" stop-color="#FAB7A7"/>
</linearGradient>
<linearGradient id="paint3_linear_1012_2341" x1="23.8857" y1="11.3076" x2="23.8857" y2="13.4997" gradientUnits="userSpaceOnUse">
<stop stop-color="#FAB7A7"/>
<stop offset="0.25" stop-color="#FBEAE6"/>
<stop offset="0.5" stop-color="#FBD6CD"/>
<stop offset="0.75" stop-color="#FFE4DD"/>
<stop offset="1" stop-color="#FAB7A7"/>
</linearGradient>
<linearGradient id="paint4_linear_1012_2341" x1="28.2432" y1="4.11491" x2="28.2432" y2="7.68551" gradientUnits="userSpaceOnUse">
<stop stop-color="#FAB7A7"/>
<stop offset="0.25" stop-color="#FBEAE6"/>
<stop offset="0.5" stop-color="#FBD6CD"/>
<stop offset="0.75" stop-color="#FFE4DD"/>
<stop offset="1" stop-color="#FAB7A7"/>
</linearGradient>
<linearGradient id="paint5_linear_1012_2341" x1="35.1497" y1="0" x2="35.1497" y2="4.39421" gradientUnits="userSpaceOnUse">
<stop stop-color="#FAB7A7"/>
<stop offset="0.25" stop-color="#FBEAE6"/>
<stop offset="0.5" stop-color="#FBD6CD"/>
<stop offset="0.75" stop-color="#FFE4DD"/>
<stop offset="1" stop-color="#FAB7A7"/>
</linearGradient>
<linearGradient id="paint6_linear_1012_2341" x1="42.9855" y1="0" x2="42.9855" y2="4.39421" gradientUnits="userSpaceOnUse">
<stop stop-color="#FAB7A7"/>
<stop offset="0.25" stop-color="#FBEAE6"/>
<stop offset="0.5" stop-color="#FBD6CD"/>
<stop offset="0.75" stop-color="#FFE4DD"/>
<stop offset="1" stop-color="#FAB7A7"/>
</linearGradient>
<linearGradient id="paint7_linear_1012_2341" x1="49.8932" y1="4.03627" x2="49.8932" y2="7.62658" gradientUnits="userSpaceOnUse">
<stop stop-color="#FAB7A7"/>
<stop offset="0.25" stop-color="#FBEAE6"/>
<stop offset="0.5" stop-color="#FBD6CD"/>
<stop offset="0.75" stop-color="#FFE4DD"/>
<stop offset="1" stop-color="#FAB7A7"/>
</linearGradient>
<linearGradient id="paint8_linear_1012_2341" x1="54.287" y1="11.2012" x2="54.287" y2="13.4208" gradientUnits="userSpaceOnUse">
<stop stop-color="#FAB7A7"/>
<stop offset="0.25" stop-color="#FBEAE6"/>
<stop offset="0.5" stop-color="#FBD6CD"/>
<stop offset="0.75" stop-color="#FFE4DD"/>
<stop offset="1" stop-color="#FAB7A7"/>
</linearGradient>
</defs>
</svg>
