<svg width="42" height="42" viewBox="0 0 42 42" fill="none" xmlns="http://www.w3.org/2000/svg">
<g filter="url(#filter0_b_852_3475)">
<rect width="42" height="42" rx="16" fill="#81D3D9" fill-opacity="0.1"/>
</g>
<path d="M21 19C20.6044 19 20.2178 19.1173 19.8889 19.3371C19.56 19.5568 19.3036 19.8692 19.1522 20.2346C19.0009 20.6001 18.9613 21.0022 19.0384 21.3902C19.1156 21.7781 19.3061 22.1345 19.5858 22.4142C19.8655 22.6939 20.2219 22.8844 20.6098 22.9616C20.9978 23.0387 21.3999 22.9991 21.7654 22.8478C22.1308 22.6964 22.4432 22.44 22.6629 22.1111C22.8827 21.7822 23 21.3956 23 21C23 20.4696 22.7893 19.9609 22.4142 19.5858C22.0391 19.2107 21.5304 19 21 19ZM14 19C13.6044 19 13.2178 19.1173 12.8889 19.3371C12.56 19.5568 12.3036 19.8692 12.1522 20.2346C12.0009 20.6001 11.9613 21.0022 12.0384 21.3902C12.1156 21.7781 12.3061 22.1345 12.5858 22.4142C12.8655 22.6939 13.2219 22.8844 13.6098 22.9616C13.9978 23.0387 14.3999 22.9991 14.7654 22.8478C15.1308 22.6964 15.4432 22.44 15.6629 22.1111C15.8827 21.7822 16 21.3956 16 21C16 20.4696 15.7893 19.9609 15.4142 19.5858C15.0391 19.2107 14.5304 19 14 19ZM28 19C27.6044 19 27.2178 19.1173 26.8889 19.3371C26.56 19.5568 26.3036 19.8692 26.1522 20.2346C26.0009 20.6001 25.9613 21.0022 26.0384 21.3902C26.1156 21.7781 26.3061 22.1345 26.5858 22.4142C26.8655 22.6939 27.2219 22.8844 27.6098 22.9616C27.9978 23.0387 28.3999 22.9991 28.7654 22.8478C29.1308 22.6964 29.4432 22.44 29.6629 22.1111C29.8827 21.7822 30 21.3956 30 21C30 20.4696 29.7893 19.9609 29.4142 19.5858C29.0391 19.2107 28.5304 19 28 19Z" fill="#13AB97"/>
<defs>
<filter id="filter0_b_852_3475" x="-4" y="-4" width="50" height="50" filterUnits="userSpaceOnUse" color-interpolation-filters="sRGB">
<feFlood flood-opacity="0" result="BackgroundImageFix"/>
<feGaussianBlur in="BackgroundImageFix" stdDeviation="2"/>
<feComposite in2="SourceAlpha" operator="in" result="effect1_backgroundBlur_852_3475"/>
<feBlend mode="normal" in="SourceGraphic" in2="effect1_backgroundBlur_852_3475" result="shape"/>
</filter>
</defs>
</svg>
