<svg width="414" height="362" viewBox="0 0 414 362" fill="none" xmlns="http://www.w3.org/2000/svg">
<g clip-path="url(#clip0_934_3977)">
<path d="M416.148 159.811C396.708 145.808 374.017 136.367 351.411 128.74C330.749 121.77 309.976 117.814 288.082 117.976C264.251 118.137 238.706 122.858 216.653 132.008C208.277 135.48 200.37 140.402 192.907 145.518C189.59 147.792 185.927 150.281 182.629 153.112C184.027 149.816 185.426 146.52 186.833 143.249C187.523 141.638 185.877 139.75 184.22 140.804C158.859 156.674 140.118 179.714 122.399 203.362C123.137 200.24 123.875 197.118 124.629 194.004C125.001 192.476 123.182 191.149 121.839 192.012C103.527 203.976 90.1675 221.065 77.6575 238.732C63.9493 258.054 51.156 277.991 39.1484 298.389C39.2722 295.866 39.396 293.342 39.5198 290.819C39.6039 290.464 39.5874 290.139 39.4452 289.853C39.2013 289.007 38.4046 288.646 37.5708 288.749C36.9972 288.759 36.4093 288.993 36.027 289.631C28.0331 302.695 24.7783 318.874 21.6674 333.678C19.8178 342.48 18.2163 351.331 16.9044 360.231C1.66128 391.597 -8.28676 425.47 -12.4963 460.78C-12.7819 463.133 -9.14718 463.976 -8.86924 461.598C-4.9442 428.599 4.02431 396.92 17.6573 367.389C18.2343 367.571 18.8604 367.462 19.3586 366.843C32.6491 350.477 45.0051 333.296 59.8084 318.198C77.062 300.597 95.3742 289.264 120.24 287.002C132.519 285.884 144.117 284.739 155.991 281.3C169.858 277.281 184.074 274.859 198.355 272.787C201.659 272.316 205.044 271.889 208.478 271.488C204.859 271.011 201.373 270.206 197.985 269.137C196.509 269.34 195.033 269.542 193.564 269.77C181.575 271.569 169.603 273.651 157.901 276.887C143.654 280.83 130.025 282.071 115.43 283.744C95.4333 286.032 79.2754 295.061 64.5153 308.498C48.8615 322.742 36.1372 339.705 23.074 356.278C35.3766 332.206 50.8803 309.672 69.4061 289.17C80.0765 277.364 91.5241 266.351 103.543 256.043C101.791 256.33 100.462 253.727 102.286 252.636C104.996 250.986 107.791 249.613 110.671 248.474C109.927 248.33 109.301 247.807 109.302 246.818C109.297 246.668 109.309 246.528 109.321 246.387C101.298 252.909 93.5164 259.729 86.0091 266.864C86.5459 267.634 85.5201 268.414 84.7649 268.053C79.3355 273.264 74.0514 278.637 68.9205 284.196C69.2933 284.879 69.7087 285.521 70.0565 286.212C70.5857 287.273 69.0146 288.246 68.4854 287.185C68.2164 286.662 67.8972 286.155 67.6195 285.65C66.6527 286.713 65.6772 287.793 64.7104 288.857C60.9603 293.089 57.3238 297.424 53.8021 301.82C54.2034 302.686 54.6047 303.553 54.9809 304.427C55.4424 305.536 53.6668 306.063 53.1966 304.971C53.0872 304.702 52.9604 304.466 52.8423 304.213C52.7265 304.194 52.603 304.149 52.4642 304.054C52.3658 304.001 52.2172 303.964 52.085 303.936C48.5524 308.432 45.1586 313.022 41.8959 317.683C41.9204 318.98 41.9448 320.277 42.0271 321.584C42.104 322.782 40.2409 322.842 40.1804 321.652C40.1639 321.327 40.1638 321.012 40.1397 320.662C40.0392 320.693 39.9397 320.682 39.8403 320.671C33.4985 329.963 27.6891 339.56 22.413 349.421C23.1723 345.152 23.9818 340.869 24.8569 336.62C26.2088 330.015 27.5771 323.103 29.3573 316.326C29.0775 316.219 28.7901 316.087 28.5103 315.98C27.3999 315.535 28.29 313.905 29.384 314.34C29.5316 314.419 29.6966 314.465 29.8441 314.543C31.3396 309.131 33.1148 303.825 35.4146 298.799L35.0616 305.978C34.9693 307.929 37.6947 308.265 38.5477 306.783C39.0348 305.948 39.5296 305.139 40.0167 304.304C39.4385 303.848 39.577 302.68 40.5255 302.638C40.5255 302.638 40.5418 302.647 40.567 302.639C40.7199 302.51 40.9297 302.432 41.1297 302.413C42.9132 299.343 44.7131 296.281 46.5371 293.254C46.3764 293.042 46.2332 292.797 46.0725 292.585C45.3816 291.67 46.8183 290.751 47.5627 291.527C47.8838 291.003 48.1962 290.496 48.5173 289.973C47.8047 289.572 47.8972 288.253 48.9113 288.246C49.144 288.244 49.3604 288.233 49.5844 288.247C50.2004 287.249 50.8164 286.251 51.4324 285.253C50.6806 285.084 50.218 284.017 51.0844 283.616C51.7575 283.301 52.3901 282.943 53.0544 282.645C55.5872 278.563 58.1529 274.5 60.7426 270.47C60.6867 270.061 60.8396 269.617 61.3269 269.413C61.3771 269.398 61.411 269.374 61.4525 269.375C63.3487 266.449 65.2284 263.514 67.1573 260.606C66.162 261.17 65.2294 259.642 66.2182 259.011C67.3839 258.285 68.5584 257.543 69.7241 256.817C71.8945 253.574 74.0724 250.356 76.2832 247.156C75.3216 247.38 74.5596 246.006 75.5451 245.5C76.5055 245.001 77.4735 244.528 78.4415 244.054C80.5824 240.985 82.756 237.933 84.9538 234.916C84.3428 234.443 84.4571 233.241 85.421 233.249C85.6865 233.264 85.9455 233.213 86.2121 233.187C88.2798 230.373 90.388 227.602 92.5694 224.892C92.023 224.811 91.4766 224.73 90.9215 224.666C89.7369 224.519 90.1581 222.702 91.3176 222.856C92.1874 222.962 93.0562 223.109 93.9261 223.215C95.652 221.083 97.4183 218.993 99.2415 216.954C98.2251 216.412 99.089 214.831 100.148 215.332C100.263 215.393 100.394 215.463 100.509 215.524C101.116 214.859 101.715 214.21 102.33 213.569C101.606 212.952 102.406 211.61 103.399 212.076C103.465 212.111 103.547 212.155 103.612 212.19C108.6 207.017 113.961 202.212 119.847 197.96C118.792 202.429 117.72 206.889 116.674 211.341C116.674 211.341 116.656 211.374 116.664 211.399C117.663 209.721 120.246 211.077 119.864 212.978C137.761 188.836 156.127 164.565 181.057 147.412C178.834 152.648 176.587 157.892 174.365 163.128C174.295 163.259 174.3 163.409 174.271 163.541C175.017 162.023 175.921 160.484 177.066 158.968C178.452 157.118 180.984 159.477 179.847 161.334C184.574 154.991 192.434 150.276 198.732 146.201C205.468 141.856 212.517 137.634 220.021 134.771C242.357 126.277 267.011 121.608 290.882 121.805C311.173 121.967 330.248 125.713 349.387 132.103C359.81 135.574 370.337 139.48 380.54 144.033C392.759 148.124 404.618 153.244 415.275 160.461C416.247 161.126 415.39 162.774 414.402 162.1C409.559 158.825 404.439 155.949 399.145 153.401C403.232 155.727 407.206 158.223 411.067 160.892C386.35 171.485 361.625 182.052 336.949 192.688C314.373 202.422 292.017 212.694 272.547 227.937C273.243 228.013 273.906 228.113 274.611 228.173C276.832 228.389 276.243 231.548 274.242 231.787C281.499 233.023 288.628 235.286 295.569 237.785C287.171 242.761 278.708 247.66 270.063 252.189C270.671 252.155 271.27 252.137 271.886 252.087C273.085 252.01 273.153 253.856 271.954 253.933C270.047 254.075 268.118 254.141 266.222 254.183C265.758 254.42 265.312 254.666 264.848 254.904C260.335 257.171 255.593 258.959 250.709 260.461C251.606 260.476 252.503 260.491 253.409 260.49C254.614 260.48 254.674 262.343 253.477 262.337C250.585 262.353 247.753 262.254 244.933 262.056C233.197 265 220.827 266.407 208.79 267.823C209.436 267.914 210.073 268.022 210.711 268.089C212.427 268.266 212.451 270.195 211.454 271.158C228.534 269.167 246.602 267.219 261.795 260.475C275.315 254.461 288.153 246.526 300.841 238.953C302.386 238.029 301.697 236.083 300.273 235.556C292.947 232.83 285.403 230.199 277.699 228.619C297.03 214.229 318.968 204.387 341.03 194.905C365.815 184.264 390.591 173.639 415.383 163.024C416.476 162.553 417.385 160.807 416.121 159.901L416.148 159.811Z" fill="#E56490"/>
<path d="M357.938 165.036C359.029 163.66 359.973 162.205 360.793 160.706C359.087 161.418 357.373 162.146 355.692 162.892C354.01 163.638 352.36 164.442 350.702 165.263C350.055 166.161 349.4 167.075 348.737 167.963C348.099 168.844 346.928 167.841 347.268 166.928C344.027 168.505 340.762 170.049 337.407 171.25C336.039 172.711 334.615 174.12 333.084 175.451C332.183 176.234 330.82 174.96 331.746 174.17C332.401 173.613 332.998 173.005 333.629 172.415C331.963 172.854 330.26 173.167 328.534 173.363C328.092 173.759 327.65 174.154 327.183 174.516C326.402 175.153 325.31 174.318 325.586 173.602C324.456 173.589 323.254 173.475 322.03 173.244C321.696 173.634 321.411 174.05 321.06 174.432C320.264 175.334 318.926 174.052 319.722 173.15C319.825 173.037 319.911 172.914 320.014 172.801C318.016 172.283 315.992 171.499 314.115 170.52C313.77 171.009 313.45 171.491 313.104 171.981C312.381 172.943 311.052 171.645 311.766 170.7C312.042 170.341 312.268 169.956 312.534 169.614C311.569 169.016 310.664 168.344 309.843 167.633C309.721 167.862 309.607 168.075 309.469 168.296C309.473 168.446 309.444 168.62 309.331 168.791C309.064 169.175 308.796 169.559 308.537 169.926C308.183 170.432 307.584 170.45 307.176 170.19C314.176 177.436 323.458 178.425 332.97 176.337C341.863 174.383 349.734 169.884 357.902 166.091C357.727 165.787 357.696 165.371 357.972 165.012L357.938 165.036Z" fill="#E56490"/>
<path d="M302.421 154.583C300.578 160.253 302.891 165.59 306.746 169.771C306.668 169.561 306.691 169.321 306.856 169.051C307.412 168.126 307.943 167.209 308.441 166.275C305.363 162.887 304.147 158.493 306.936 153.537C308.852 150.138 311.508 147.722 314.585 146.057C314.621 145.634 314.682 145.204 314.718 144.781C314.798 143.603 316.67 143.527 316.565 144.713C316.561 144.837 316.533 144.969 316.521 145.11C318.697 144.186 321.04 143.582 323.459 143.23C323.577 142.535 323.711 141.849 323.813 141.145C323.985 139.952 325.802 140.374 325.622 141.541C325.552 142.029 325.448 142.5 325.377 142.989C327.818 142.753 330.312 142.735 332.785 142.874C332.799 142.65 332.855 142.427 332.877 142.187C332.983 141.001 334.83 140.933 334.724 142.118C334.691 142.417 334.642 142.706 334.618 142.988C336.849 143.188 339.043 143.494 341.136 143.872C341.308 143.312 341.539 142.761 341.836 142.204C342.395 141.154 344.034 142.028 343.475 143.077C343.274 143.454 343.115 143.833 342.947 144.227C343.443 144.323 343.939 144.419 344.41 144.523C346.013 144.872 347.599 145.254 349.201 145.645C349.258 145.38 349.356 145.117 349.421 144.836C349.684 143.671 351.51 144.076 351.231 145.232C351.166 145.513 351.075 145.801 350.993 146.074C352.768 146.535 354.534 147.013 356.291 147.508C356.531 146.899 356.788 146.299 357.103 145.709C357.662 144.66 359.301 145.533 358.742 146.583C358.489 147.058 358.252 147.542 358.056 148.027C360.044 148.603 362.031 149.22 363.984 149.86C364.039 149.322 364.095 148.783 364.118 148.227C364.165 147.031 366.012 146.963 365.964 148.158C365.936 148.922 365.867 149.685 365.797 150.448C365.904 150.484 366.011 150.52 366.135 150.565C368.821 151.449 373.616 152.405 376.886 154.169C372.368 155.971 367.834 157.764 363.331 159.617C362.476 161.498 361.423 163.315 360.165 165.044C360.905 164.723 361.628 164.393 362.384 164.08C368.583 161.532 374.807 159.018 381.031 156.504C381.265 156.418 381.476 156.299 381.655 156.121C382.097 155.767 382.325 155.299 382.363 154.793C382.363 154.793 382.372 154.777 382.381 154.76C382.394 154.578 382.356 154.411 382.328 154.227C382.321 154.16 382.324 154.077 382.292 154.018C382.154 153.566 381.882 153.168 381.514 152.951C378.267 149.642 371.088 148.3 366.977 146.93C357.197 143.675 347.093 140.753 336.857 139.34C324.768 137.654 306.778 141.076 302.388 154.566L302.421 154.583Z" fill="#E56490"/>
<path d="M140.452 227.55C139.269 227.677 139.201 225.831 140.384 225.703C141.542 225.584 142.692 225.481 143.858 225.387C146.048 223.923 148.255 222.468 150.47 221.038C150.453 221.029 150.42 221.053 150.403 221.044C149.226 221.238 149.167 219.375 150.335 219.197C151.578 218.997 152.812 218.855 154.037 218.729C159.209 215.423 164.47 212.227 169.753 209.107C167.898 209.823 166.301 207.014 168.169 205.799C171.602 203.545 175.307 202.32 179.118 201.804C179.005 201.66 178.893 201.516 178.823 201.331C178.645 200.836 178.474 200.366 178.287 199.888C155.457 212.707 133.509 227.07 113.05 243.301C113.004 244.413 112.959 245.525 112.955 246.639C112.951 247.079 112.784 247.432 112.569 247.718C113.089 247.532 113.626 247.355 114.162 247.177C122.751 240.304 131.639 233.778 140.727 227.549C140.635 227.563 140.535 227.552 140.444 227.567L140.452 227.55Z" fill="#E56490"/>
<path d="M226.131 175.602C211.042 182.507 196.131 189.947 181.56 198.012C181.84 198.75 182.104 199.48 182.376 200.194C182.554 200.689 182.493 201.119 182.326 201.472C182.559 201.47 182.784 201.443 183.017 201.44C197.748 193.272 212.82 185.727 228.077 178.745C230.247 177.754 228.268 174.594 226.124 175.577L226.131 175.602Z" fill="#E56490"/>
<path d="M210.729 268.014C210.091 267.948 209.454 267.84 208.808 267.748C187.858 264.835 170.762 250.503 150.154 245.961C138.098 243.304 125.679 243.421 114.18 247.145C113.643 247.322 113.123 247.508 112.587 247.685C112.802 247.4 112.969 247.047 112.972 246.606C112.976 245.493 113.022 244.38 113.067 243.268C113.529 232.883 115.749 222.91 119.798 213.259C119.868 213.128 119.855 212.994 119.883 212.862C120.265 210.961 117.674 209.622 116.683 211.283C116.64 211.365 116.572 211.413 116.52 211.511C115.802 213.213 115.168 214.917 114.55 216.629C110.82 215.294 107.186 213.778 103.615 212.065C103.55 212.03 103.468 211.986 103.402 211.951C102.418 211.469 101.618 212.811 102.333 213.444C102.399 213.479 102.447 213.547 102.529 213.591C106.263 215.392 110.078 216.962 113.965 218.359C113.567 219.579 113.186 220.807 112.83 222.028C112.795 221.778 112.66 221.558 112.365 221.401C108.446 219.313 104.492 217.332 100.487 215.408C100.372 215.346 100.241 215.276 100.126 215.215C99.0671 214.714 98.2032 216.296 99.2196 216.837C99.2196 216.837 99.236 216.846 99.2524 216.855C100.828 217.61 102.37 218.39 103.938 219.162C105.035 221.052 106.156 223.018 107.167 225.03C102.757 224.301 98.3355 223.67 93.9217 223.065C93.0605 222.943 92.183 222.812 91.3132 222.707C90.1286 222.559 89.7161 224.36 90.917 224.516C91.4722 224.581 92.0098 224.678 92.565 224.742C94.4697 224.999 96.3581 225.248 98.2541 225.522C98.9942 226.779 99.7344 228.037 100.491 229.303C98.0128 230.003 95.5423 230.728 93.0642 231.428C90.8286 232.068 88.5549 232.898 86.2077 233.037C85.9498 233.047 85.6908 233.098 85.4165 233.099C84.4527 233.091 84.322 234.284 84.9493 234.766C85.0958 234.886 85.2685 234.957 85.4925 234.971C87.9927 235.02 90.3758 234.143 92.7534 233.473C95.567 232.657 98.3969 231.85 101.211 231.034C101.286 231.011 101.354 230.963 101.421 230.914C101.708 231.404 101.994 231.893 102.297 232.392C102.173 232.388 102.031 232.418 101.887 232.489C93.989 236.131 86.1857 239.951 78.4371 243.904C77.4767 244.403 76.4923 244.868 75.5407 245.35C74.5552 245.856 75.326 247.214 76.2788 247.006C76.3542 246.983 76.4372 246.985 76.5214 246.946C85.2063 242.46 93.9776 238.167 102.86 234.06C102.995 234.005 103.08 233.925 103.165 233.844C103.627 234.637 104.097 235.414 104.558 236.207C104.368 236.169 104.152 236.18 103.924 236.29C92.1627 242.441 80.9729 249.613 69.7197 256.667C68.554 257.393 67.3795 258.135 66.2138 258.861C65.2086 259.483 66.1412 261.012 67.1529 260.456C67.1529 260.456 67.178 260.449 67.2032 260.441C69.4757 259.021 71.7481 257.601 74.0294 256.164C74.2261 256.269 74.449 256.325 74.7167 256.257C74.9091 256.212 75.109 256.192 75.2926 256.164C76.8372 258.124 78.3819 260.084 79.9265 262.044C73.7959 264.502 67.6499 266.91 61.4645 269.234C61.4142 269.249 61.3804 269.273 61.3388 269.272C60.8439 269.451 60.6823 269.912 60.7545 270.329C60.841 270.838 61.2531 271.29 61.8825 271.057C68.1017 268.709 74.298 266.285 80.4538 263.819C80.6974 263.717 80.8766 263.539 80.965 263.334C81.4318 263.919 81.8986 264.505 82.3654 265.091C82.3567 265.107 82.3151 265.106 82.2813 265.13C73.0659 271.796 63.2919 277.575 53.0663 282.504C52.4097 282.827 51.7607 283.176 51.0964 283.475C50.23 283.876 50.6925 284.943 51.4444 285.112C51.6345 285.151 51.8422 285.156 52.0694 285.046C55.9897 283.22 59.8235 281.2 63.5841 279.121C65.0687 281.154 66.3927 283.291 67.5986 285.491C67.8927 286.006 68.1956 286.504 68.4646 287.026C69.0102 288.096 70.59 287.106 70.0356 286.053C69.6879 285.363 69.2812 284.704 68.8997 284.037C67.7801 282.03 66.5676 280.079 65.2033 278.215C71.4113 274.703 77.4443 270.888 83.2379 266.692C83.3307 266.636 83.3832 266.538 83.4432 266.465C83.7406 266.855 84.0467 267.229 84.344 267.619C84.4566 267.763 84.579 267.849 84.7189 267.903C85.4829 268.247 86.5 267.483 85.9632 266.713C85.9468 266.705 85.9392 266.679 85.9315 266.654C83.0674 263.023 80.2033 259.391 77.3305 255.776C84.0102 254.895 90.801 256.451 97.5398 255.853C98.131 255.811 98.4095 255.327 98.3886 254.853C98.736 254.596 98.9391 254.136 98.6942 253.648C97.0989 250.44 95.2927 247.351 93.3096 244.358C93.3096 244.358 93.2932 244.349 93.2768 244.34C97.0997 242.104 100.963 239.911 104.897 237.861C105.099 237.758 105.228 237.596 105.274 237.43C106.429 239.372 107.575 241.33 108.713 243.263C108.864 243.532 109.093 243.655 109.325 243.694C109.294 244.541 109.264 245.388 109.25 246.243C109.255 246.393 109.243 246.534 109.231 246.675C109.23 247.664 109.856 248.187 110.6 248.331C107.737 249.478 104.942 250.852 102.215 252.493C100.391 253.584 101.72 256.186 103.472 255.9C103.697 255.872 103.924 255.803 104.152 255.651C120.27 245.907 139.641 245.979 157.195 251.629C171.363 256.17 183.875 264.606 197.905 269.01C201.293 270.079 204.779 270.885 208.399 271.361C208.887 271.432 209.367 271.519 209.864 271.574C210.519 271.649 211.032 271.396 211.424 271.016C212.405 270.044 212.397 268.124 210.681 267.947L210.729 268.014ZM91.7287 245.389C93.6091 248.18 95.2786 251.091 96.7962 254.089C90.3688 254.537 83.9605 253.289 77.5769 253.971C82.2573 251.035 86.9367 248.139 91.6806 245.321C91.697 245.33 91.6959 245.371 91.7036 245.396L91.7287 245.389ZM111.507 223.049C111.966 223.294 112.378 223.113 112.636 222.788C112.049 224.916 111.519 227.055 111.09 229.205C109.945 226.258 108.489 223.419 106.956 220.687C108.482 221.458 110.015 222.254 111.524 223.058L111.507 223.049ZM100.629 225.924C102.872 226.257 105.107 226.606 107.333 226.971C107.623 227.02 107.849 226.951 108.027 226.815C108.964 228.809 109.783 230.866 110.393 232.96C109.967 235.616 109.682 238.285 109.503 240.989C106.542 235.959 103.589 230.954 100.629 225.924Z" fill="#E56490"/>
<path d="M308.487 169.941C308.754 169.558 309.022 169.174 309.281 168.807C309.393 168.635 309.423 168.461 309.418 168.312C309.541 168.082 309.671 167.878 309.793 167.648C313.623 160.659 315.863 153.138 316.529 145.135C316.532 145.011 316.56 144.879 316.572 144.738C316.661 143.543 314.806 143.628 314.725 144.806C314.69 145.229 314.628 145.659 314.593 146.082C313.875 153.236 311.829 159.997 308.449 166.3C307.951 167.235 307.42 168.152 306.864 169.076C306.715 169.355 306.692 169.595 306.754 169.796C306.824 169.981 306.961 170.118 307.133 170.23C307.551 170.474 308.149 170.456 308.495 169.966L308.487 169.941Z" fill="#E56490"/>
<path d="M312.484 169.63C312.225 169.997 311.983 170.373 311.716 170.715C311.002 171.66 312.356 172.951 313.054 171.996C313.416 171.515 313.736 171.033 314.064 170.535C319.906 162.26 323.737 153.019 325.377 142.989C325.464 142.509 325.552 142.029 325.622 141.541C325.786 140.365 323.969 139.944 323.813 141.145C323.711 141.849 323.577 142.535 323.459 143.23C321.798 152.785 318.117 161.707 312.468 169.621L312.484 169.63Z" fill="#E56490"/>
<path d="M319.997 172.833C319.894 172.947 319.808 173.07 319.705 173.183C318.909 174.085 320.272 175.359 321.043 174.465C321.377 174.074 321.679 173.667 322.013 173.276C329.228 164.597 333.536 154.262 334.635 142.997C334.668 142.699 334.717 142.409 334.741 142.127C334.846 140.941 332.974 141.017 332.894 142.195C332.88 142.419 332.84 142.651 332.801 142.883C331.738 154.041 327.307 164.331 319.98 172.825L319.997 172.833Z" fill="#E56490"/>
<path d="M337.2 158.762C334.616 164.479 330.651 169.313 325.828 173.268C325.683 173.38 325.622 173.495 325.569 173.635C325.309 174.359 326.401 175.194 327.166 174.549C327.624 174.162 328.074 173.792 328.517 173.396C332.464 169.9 335.745 165.797 338.146 161.056C339.363 158.652 340.36 156.11 341.093 153.512C341.926 150.566 341.891 147.117 342.979 144.245C343.122 143.858 343.307 143.472 343.508 143.095C344.067 142.046 342.428 141.172 341.869 142.221C341.572 142.778 341.341 143.329 341.169 143.89C340.609 145.612 340.488 147.379 340.156 149.265C339.589 152.542 338.583 155.732 337.209 158.746L337.2 158.762Z" fill="#E56490"/>
<path d="M333.62 172.432C332.989 173.022 332.401 173.613 331.737 174.186C330.836 174.969 332.183 176.234 333.075 175.467C334.606 174.136 336.03 172.727 337.398 171.267C344.031 164.192 348.675 155.637 351.034 146.116C351.099 145.835 351.206 145.556 351.272 145.275C351.535 144.11 349.734 143.697 349.462 144.879C349.405 145.143 349.307 145.406 349.241 145.687C346.686 156.051 341.321 165.169 333.602 172.464L333.62 172.432Z" fill="#E56490"/>
<path d="M347.399 166.682C347.355 166.764 347.311 166.846 347.268 166.928C346.937 167.825 348.082 168.835 348.737 167.963C349.4 167.075 350.046 166.177 350.702 165.263C352.289 163.036 353.795 160.723 354.866 158.2C356.265 154.904 356.732 151.342 358.113 148.079C358.308 147.594 358.545 147.109 358.799 146.634C359.358 145.585 357.719 144.711 357.159 145.76C356.845 146.35 356.588 146.95 356.348 147.559C355.424 149.846 354.915 152.184 354.17 154.608C352.797 159.16 350.19 162.907 347.406 166.707L347.399 166.682Z" fill="#E56490"/>
<path d="M363.364 159.634C364.669 156.751 365.496 153.698 365.846 150.474C365.932 149.72 366.002 148.957 366.014 148.185C366.061 146.989 364.206 147.074 364.167 148.253C364.144 148.809 364.089 149.348 364.033 149.887C363.667 153.733 362.575 157.361 360.777 160.697C359.973 162.205 359.029 163.66 357.921 165.027C357.646 165.386 357.66 165.794 357.852 166.106C358.129 166.612 358.829 166.879 359.284 166.301C359.611 165.886 359.896 165.469 360.206 165.045C361.465 163.316 362.518 161.499 363.373 159.618L363.364 159.634Z" fill="#E56490"/>
<path d="M188.885 211.956C186.976 209.613 183.586 208.943 181.086 210.831L180.806 211.04C178.467 212.782 177.763 216.512 179.681 218.839C181.589 221.182 184.979 221.852 187.48 219.964L187.76 219.756C190.099 218.013 190.802 214.283 188.885 211.956Z" fill="#E56490"/>
<path d="M214.838 219.978C212.929 217.635 209.539 216.965 207.039 218.853L206.759 219.061C204.42 220.804 203.716 224.534 205.634 226.861C207.542 229.204 210.932 229.874 213.433 227.986L213.713 227.777C216.052 226.035 216.755 222.305 214.838 219.978Z" fill="#E56490"/>
<path d="M238.02 230.354C236.112 228.011 232.722 227.341 230.221 229.229L229.941 229.438C227.602 231.18 226.899 234.91 228.816 237.237C230.725 239.58 234.115 240.25 236.615 238.362L236.895 238.154C239.234 236.411 239.938 232.681 238.02 230.354Z" fill="#E56490"/>
<path d="M267.854 237.139C265.945 234.796 262.555 234.126 260.054 236.014L259.775 236.222C257.435 237.965 256.732 241.695 258.649 244.022C260.558 246.365 263.948 247.035 266.448 245.147L266.728 244.938C269.067 243.196 269.771 239.466 267.854 237.139Z" fill="#E56490"/>
<path d="M199.466 217.974C197.313 215.101 192.847 218.425 194.999 221.299C197.152 224.172 201.618 220.847 199.466 217.974Z" fill="#E56490"/>
<path d="M224.38 226.642C222.227 223.769 217.761 227.093 219.913 229.966C222.066 232.84 226.532 229.515 224.38 226.642Z" fill="#E56490"/>
<path d="M249.922 234.171C247.769 231.298 243.303 234.622 245.456 237.495C247.608 240.369 252.074 237.044 249.922 234.171Z" fill="#E56490"/>
<path d="M274.987 242.12C277.14 244.993 281.606 241.669 279.454 238.795C277.301 235.922 272.835 239.246 274.987 242.12Z" fill="#E56490"/>
<path d="M207.687 236.754C198.565 231.514 189.693 225.607 179.757 221.974C171.442 218.932 162.752 217.858 154.029 218.704C152.788 218.821 151.546 218.98 150.327 219.172C149.159 219.35 149.235 221.222 150.395 221.019C150.412 221.028 150.446 221.004 150.462 221.013C161.669 219.26 172.732 220.777 183.127 225.328C193.554 229.896 202.855 236.537 212.933 241.76C229.382 250.316 247.749 254.442 266.233 254.084C268.145 254.05 270.058 253.975 271.965 253.834C273.147 253.748 273.088 251.885 271.897 251.987C271.289 252.021 270.682 252.055 270.074 252.089C248.012 253.277 226.838 247.782 207.687 236.754Z" fill="#E56490"/>
<path d="M193.302 240.56C185.274 235.124 177.057 229.924 167.608 227.351C159.868 225.246 151.826 224.813 143.85 225.361C142.693 225.439 141.518 225.55 140.376 225.678C139.193 225.805 139.253 227.669 140.445 227.525C140.536 227.511 140.645 227.505 140.728 227.508C150.352 226.511 160.15 226.849 169.431 229.817C180.047 233.201 189.02 239.983 198.177 246.105C212.676 255.79 228.045 260.802 244.935 261.973C247.739 262.162 250.587 262.27 253.479 262.254C254.685 262.243 254.6 260.388 253.411 260.407C252.505 260.408 251.608 260.393 250.711 260.378C241.099 260.244 231.513 259.114 222.288 256.24C211.572 252.886 202.48 246.799 193.277 240.568L193.302 240.56Z" fill="#E56490"/>
<path d="M48.973 290.026C53.7275 289.992 58.4821 289.958 63.2366 289.924C64.4419 289.913 64.3572 288.058 63.1683 288.077C58.6465 288.109 54.1247 288.141 49.5778 288.18C49.345 288.183 49.1287 288.194 48.9047 288.18C47.8906 288.186 47.7981 289.505 48.5107 289.906C48.6419 289.976 48.7894 290.055 48.9894 290.035L48.973 290.026Z" fill="#E56490"/>
<path d="M47.5397 291.452C46.7953 290.676 45.3586 291.594 46.0495 292.51C46.2102 292.722 46.3622 292.95 46.5141 293.179C48.5365 295.94 50.2978 298.837 51.7969 301.909C50.5031 301.809 48.9657 302.126 47.8839 302.181C45.8284 302.286 43.7894 302.399 41.734 302.503C41.5547 302.366 41.3482 302.319 41.1231 302.346C40.9231 302.366 40.7133 302.444 40.5604 302.572C40.5604 302.572 40.544 302.564 40.5189 302.571C39.5704 302.613 39.4319 303.781 40.0101 304.237C40.1326 304.323 40.2888 304.385 40.4877 304.407C40.895 306.961 40.166 310.067 40.0596 312.557C39.9892 314.625 40.0019 316.694 40.0724 318.774C36.6703 317.297 33.267 315.863 29.8375 314.477C29.69 314.398 29.525 314.352 29.3774 314.274C28.2834 313.838 27.3933 315.469 28.5037 315.913C28.7835 316.02 29.0709 316.152 29.3507 316.259C32.7802 317.645 36.167 319.071 39.5528 320.539C39.6512 320.591 39.7342 320.593 39.8337 320.604C39.9331 320.615 40.0413 320.61 40.1331 320.595C40.1496 320.92 40.1409 321.252 40.1738 321.585C40.2343 322.775 42.0974 322.716 42.0205 321.517C41.9546 320.219 41.9138 318.913 41.8893 317.616C41.8439 315.529 41.84 313.443 41.9607 311.36C42.0867 309.07 42.6236 306.64 42.3344 304.339C43.8074 304.261 45.2805 304.183 46.7283 304.113C47.6856 304.054 48.6341 304.012 49.5913 303.954C50.2404 303.921 51.3352 303.684 52.0696 303.886C52.2019 303.914 52.3341 303.943 52.4488 304.004C52.58 304.074 52.6948 304.135 52.827 304.163C52.9451 304.415 53.0632 304.668 53.1813 304.92C53.6263 306.021 55.427 305.486 54.9656 304.377C54.5981 303.486 54.1968 302.62 53.7868 301.77C52.0854 298.168 50.0715 294.759 47.6698 291.563C47.6457 291.529 47.6042 291.528 47.5889 291.478L47.5397 291.452Z" fill="#E56490"/>
<path d="M173.111 185.151C168.882 190.202 162.435 192.702 155.896 191.66C154.729 191.48 154.308 193.297 155.5 193.469C162.337 194.545 169.13 192.187 173.791 187.114C174.289 188.747 174.844 190.391 175.433 192.051C175.192 192.029 174.957 192.114 174.76 192.366C171.595 196.132 167.217 198.303 162.292 198.499C161.102 198.56 161.17 200.407 162.36 200.346C167.693 200.136 172.575 197.77 176.021 193.712C176.775 195.735 177.536 197.782 178.297 199.83C178.484 200.308 178.646 200.795 178.833 201.273C178.903 201.458 179.015 201.602 179.128 201.746C175.317 202.262 171.611 203.487 168.179 205.741C166.302 206.972 167.899 209.781 169.763 209.049C169.889 209.01 170.006 208.989 170.132 208.909C184.811 199.26 207.411 209.978 221.544 216.163C238.644 223.656 255.061 229.9 273.838 231.677C273.995 231.697 274.145 231.693 274.287 231.663C276.288 231.425 276.886 228.249 274.655 228.05C273.959 227.973 273.288 227.889 272.592 227.813C252.376 225.459 235.232 217.101 216.694 209.979C223.17 204.463 230.31 199.953 238.064 196.423C239.149 195.928 238.159 194.348 237.091 194.852C228.925 198.562 221.478 203.372 214.719 209.221C213.089 208.605 211.451 208.006 209.788 207.414C208.775 207.063 207.745 206.704 206.699 206.336C219.856 194.171 235.906 185.779 253.426 181.897C254.596 181.637 254.044 179.869 252.882 180.113C234.76 184.137 218.201 192.931 204.706 205.653C197.769 203.345 190.275 201.33 183.058 201.441C182.826 201.444 182.601 201.471 182.368 201.473C182.551 201.129 182.596 200.69 182.418 200.195C182.154 199.465 181.874 198.726 181.602 198.013C178.918 190.962 175.806 183.767 175.343 176.658C222.126 129.599 292.683 123.838 354.467 138.41C369.616 141.979 385.04 146.452 399.215 153.27C404.509 155.818 409.612 158.685 414.471 161.969C415.459 162.643 416.317 160.995 415.345 160.33C404.704 153.122 392.829 147.993 380.61 143.902C374.308 141.785 367.915 139.957 361.535 138.262C343.368 133.443 324.579 130.544 305.806 129.548C275.099 127.919 243.686 132.669 215.752 145.863C200.758 152.944 187.122 162.496 175.318 174.098C175.463 169.797 176.721 165.541 179.837 161.392C179.872 161.326 179.898 161.277 179.933 161.212C181.079 159.338 178.547 156.979 177.152 158.846C176.008 160.362 175.103 161.9 174.357 163.418C170.805 170.598 171.291 177.783 173.254 185.08C173.236 185.113 173.195 185.112 173.177 185.145L173.111 185.151Z" fill="#E56490"/>
<path d="M344.993 109.974C353.436 114.474 360.442 101.367 351.983 96.8591C343.523 92.3508 336.534 105.466 344.993 109.974Z" fill="#E56490"/>
<path d="M358.437 120.297C363.716 123.11 368.084 114.913 362.805 112.1C357.527 109.286 353.158 117.483 358.437 120.297Z" fill="#E56490"/>
<path d="M104.81 301.934C95.3175 296.875 87.4377 311.621 96.9462 316.688C106.455 321.756 114.318 307.001 104.81 301.934Z" fill="#E56490"/>
<path d="M92.2488 321.552C83.806 317.053 76.7999 330.159 85.2592 334.667C93.7184 339.176 100.708 326.06 92.2488 321.552Z" fill="#E56490"/>
<path d="M109.242 323.241C105.028 320.995 101.517 327.544 105.747 329.798C109.976 332.053 113.471 325.495 109.242 323.241Z" fill="#E56490"/>
<path d="M69.1021 205.017C60.6592 200.518 53.6532 213.624 62.1124 218.132C70.5716 222.641 77.5613 209.526 69.1021 205.017Z" fill="#E56490"/>
<path d="M78.3395 217.308C82.5527 219.553 86.0639 213.005 81.8343 210.75C77.6047 208.496 74.1099 215.054 78.3395 217.308Z" fill="#E56490"/>
</g>
<defs>
<clipPath id="clip0_934_3977">
<rect width="293.476" height="493.789" fill="white" transform="translate(170.24) rotate(28.0552)"/>
</clipPath>
</defs>
</svg>
