<svg width="255" height="189" viewBox="0 0 255 189" fill="none" xmlns="http://www.w3.org/2000/svg">
<g id="OBJECTS" clip-path="url(#clip0_934_4044)">
<path id="Vector" d="M45.1588 3.51905C40.9755 13.7382 39.1863 24.9239 38.2007 35.8759C37.3005 45.8858 37.7631 55.6215 40.1917 65.4164C42.8285 76.0791 47.6931 87.0195 54.167 95.9185C56.6244 99.2987 59.6811 102.313 62.7772 105.107C64.1533 106.349 65.6631 107.722 67.2869 108.896C65.6591 108.624 64.0314 108.351 62.414 108.073C61.6178 107.937 60.9489 108.878 61.5995 109.507C71.4412 119.165 83.7837 125.085 96.2887 130.481C94.8101 130.486 93.3314 130.492 91.8549 130.489C91.1301 130.486 90.7311 131.444 91.2623 131.954C98.595 138.873 107.691 143.021 116.955 146.727C127.09 150.791 137.402 154.379 147.836 157.565C146.691 157.781 145.547 157.997 144.403 158.213C144.235 158.214 144.091 158.256 143.978 158.351C143.626 158.551 143.549 158.947 143.685 159.31C143.751 159.566 143.919 159.804 144.247 159.907C150.962 162.083 158.563 161.801 165.532 161.602C169.676 161.484 173.815 161.249 177.945 160.879C193.643 164.335 209.894 165.148 226.172 163.235C227.257 163.11 227.244 161.39 226.148 161.522C210.937 163.314 195.774 162.704 181.072 159.772C181.091 159.493 180.975 159.224 180.644 159.068C171.879 154.873 162.85 151.184 154.49 146.174C144.745 140.336 137.695 133.349 134.006 122.448C132.183 117.065 130.422 111.991 127.603 107.039C124.31 101.257 121.694 95.1465 119.229 88.9689C118.662 87.5392 118.106 86.068 117.557 84.572C117.733 86.2453 117.747 87.8944 117.633 89.5277C117.883 90.1675 118.132 90.8073 118.392 91.441C120.489 96.6205 122.71 101.762 125.42 106.658C128.72 112.619 130.743 118.593 133.063 124.954C136.241 133.67 142.026 139.94 149.636 145.109C157.705 150.591 166.676 154.469 175.509 158.54C163.397 155.617 151.63 151.093 140.448 144.997C134.008 141.485 127.841 137.54 121.928 133.263C122.245 134.017 121.221 134.893 120.536 134.193C119.505 133.156 118.589 132.051 117.769 130.883C117.784 131.232 117.617 131.569 117.174 131.675C117.107 131.693 117.043 131.702 116.978 131.712C120.765 134.606 124.659 137.36 128.664 139.956C128.952 139.633 129.412 140.009 129.331 140.386C132.251 142.259 135.227 144.049 138.271 145.75C138.537 145.509 138.78 145.254 139.052 145.024C139.471 144.672 140.076 145.272 139.657 145.623C139.452 145.8 139.259 145.998 139.062 146.176C139.643 146.495 140.232 146.816 140.813 147.135C143.113 148.36 145.447 149.524 147.796 150.629C148.142 150.356 148.487 150.083 148.838 149.82C149.285 149.494 149.713 150.233 149.274 150.561C149.165 150.639 149.073 150.721 148.972 150.801C148.976 150.855 148.969 150.916 148.942 150.988C148.929 151.038 148.928 151.108 148.93 151.171C151.324 152.27 153.747 153.297 156.187 154.258C156.765 154.107 157.344 153.957 157.921 153.779C158.45 153.616 158.677 154.444 158.15 154.599C158.007 154.642 157.865 154.676 157.711 154.724C157.736 154.766 157.741 154.812 157.747 154.857C162.594 156.7 167.521 158.27 172.508 159.574C170.513 159.693 168.506 159.791 166.507 159.856C163.402 159.961 160.157 160.092 156.928 160.023C156.91 160.16 156.882 160.303 156.864 160.44C156.784 160.985 155.958 160.762 156.035 160.225C156.055 160.15 156.058 160.071 156.077 159.997C153.49 159.909 150.921 159.684 148.421 159.195L151.677 158.58C152.561 158.412 152.418 157.154 151.662 156.931C151.236 156.803 150.82 156.668 150.393 156.54C150.251 156.848 149.713 156.911 149.592 156.491C149.592 156.491 149.594 156.483 149.588 156.472C149.514 156.418 149.456 156.332 149.426 156.244C147.858 155.775 146.292 155.298 144.739 154.807C144.661 154.901 144.567 154.992 144.49 155.087C144.154 155.495 143.587 154.95 143.855 154.533C143.586 154.445 143.325 154.36 143.056 154.272C142.953 154.635 142.352 154.735 142.239 154.281C142.213 154.177 142.185 154.082 142.167 153.98C141.654 153.811 141.14 153.642 140.627 153.474C140.632 153.829 140.203 154.151 139.93 153.806C139.717 153.538 139.488 153.293 139.283 153.027C137.181 152.331 135.084 151.619 133 150.892C132.822 150.961 132.607 150.94 132.463 150.744C132.451 150.723 132.436 150.71 132.432 150.692C130.917 150.157 129.399 149.63 127.888 149.079C128.248 149.464 127.664 150.046 127.275 149.671C126.824 149.227 126.365 148.78 125.914 148.336C124.227 147.712 122.551 147.082 120.878 146.436C121.082 146.843 120.549 147.332 120.216 146.945C119.889 146.568 119.572 146.185 119.256 145.803C117.65 145.173 116.049 144.528 114.46 143.867C114.313 144.192 113.762 144.27 113.662 143.837C113.641 143.717 113.59 143.606 113.549 143.49C112.066 142.866 110.597 142.219 109.148 141.533C109.17 141.787 109.193 142.04 109.224 142.296C109.285 142.843 108.426 142.849 108.37 142.313C108.324 141.912 108.297 141.507 108.25 141.105C107.109 140.561 105.982 139.995 104.872 139.397C104.739 139.911 103.937 139.694 104.048 139.165C104.063 139.107 104.08 139.041 104.095 138.983C103.732 138.782 103.376 138.584 103.023 138.377C102.824 138.768 102.137 138.554 102.239 138.059C102.247 138.026 102.258 137.984 102.267 137.951C99.4118 136.272 96.6813 134.387 94.1425 132.206C96.2587 132.198 98.3728 132.199 100.481 132.189C100.481 132.189 100.497 132.193 100.508 132.187C99.6483 131.919 99.9778 130.616 100.871 130.583C88.1254 125.16 75.2714 119.54 64.9013 110.214C67.4871 110.646 70.079 111.089 72.6648 111.522C72.731 111.539 72.7977 111.521 72.86 111.519C72.0994 111.348 71.3124 111.109 70.5098 110.759C69.5313 110.337 70.3164 108.948 71.2709 109.258C67.9196 107.822 64.9605 104.807 62.4567 102.423C59.7841 99.8713 57.1337 97.1664 55.043 94.1113C48.8326 85.0154 44.0869 74.4686 41.6064 63.7491C39.4956 54.6382 39.1215 45.6862 39.9257 36.421C40.3596 31.3764 40.977 26.238 41.9198 21.1751C42.4383 15.2591 43.4569 9.39325 45.5443 3.84026C45.7378 3.33321 46.5687 3.54007 46.373 4.0554C45.4261 6.57837 44.6882 9.18215 44.1161 11.829C44.7185 9.74728 45.4098 7.69758 46.1901 5.67982C53.5975 15.6172 60.9943 25.5608 68.4164 35.4755C75.2085 44.5456 82.218 53.4597 91.1442 60.545C91.1034 60.2248 91.0771 59.9172 91.0281 59.5949C90.8857 58.576 92.365 58.5001 92.6874 59.371C92.4604 55.986 92.7074 52.5471 93.0805 49.1675C96.2142 52.396 99.3206 55.6616 102.281 59.0485C102.2 58.7798 102.128 58.5134 102.039 58.2426C101.875 57.7136 102.695 57.4843 102.859 58.0132C103.128 58.8526 103.365 59.7103 103.588 60.5555C103.744 60.7376 103.902 60.9114 104.058 61.0934C105.56 62.8722 106.872 64.805 108.071 66.8323C107.981 66.4286 107.891 66.0249 107.793 65.6191C107.659 65.08 108.487 64.8528 108.613 65.3897C108.932 66.6843 109.192 67.9638 109.407 69.2492C111.99 74.1922 113.951 79.5844 115.881 84.8268C115.853 84.5275 115.832 84.2304 115.794 83.9372C115.688 83.1492 116.55 82.9306 117.089 83.274C114.359 75.8334 111.541 67.9455 106.884 61.8624C102.734 56.4504 97.796 51.5505 93.0365 46.6792C92.4562 46.0863 91.6583 46.6045 91.5751 47.2995C91.1421 50.8758 90.7747 54.54 90.8957 58.1629C82.3664 51.0479 75.5945 42.2751 68.9708 33.408C61.5347 23.4454 54.1068 13.4849 46.6811 3.51616C46.3528 3.07709 45.4721 2.85733 45.2024 3.52152L45.1588 3.51905Z" fill="#F7B4CB"/>
<path id="Vector_2" d="M53.765 29.0447C53.0309 28.7037 52.2773 28.4373 51.517 28.2311C52.0196 28.9189 52.5305 29.6088 53.0457 30.2822C53.5609 30.9555 54.0991 31.6083 54.6456 32.2632C55.1173 32.4565 55.5974 32.6519 56.067 32.8534C56.5304 33.0445 56.207 33.677 55.761 33.6232C56.8168 34.9057 57.8601 36.2027 58.7594 37.5773C59.561 38.0331 60.3458 38.5199 61.1072 39.0625C61.555 39.3822 61.1308 40.1302 60.6769 39.8C60.3571 39.5666 60.0204 39.3642 59.6881 39.1453C60.0639 39.8443 60.3875 40.5741 60.6611 41.3263C60.886 41.482 61.111 41.6377 61.3233 41.8078C61.6925 42.0894 61.436 42.6686 61.0855 42.6218C61.2014 43.1296 61.2795 43.6806 61.3075 44.254C61.5184 44.3618 61.7357 44.4448 61.9444 44.5609C62.4342 44.8208 62.0039 45.5583 61.5141 45.2984C61.4521 45.2646 61.3879 45.2391 61.3259 45.2053C61.3091 46.1563 61.1755 47.1478 60.9385 48.0947C61.1951 48.1967 61.4456 48.2883 61.7022 48.3902C62.2111 48.6108 61.7725 49.3462 61.2719 49.1278C61.0816 49.043 60.8848 48.983 60.7028 48.9004C60.5384 49.3973 60.3348 49.8752 60.1044 50.3196C60.2204 50.3498 60.3282 50.3777 60.442 50.4161C60.5086 50.3981 60.5897 50.3926 60.6787 50.4245C60.8794 50.5032 61.0802 50.5818 61.2726 50.6583C61.5375 50.7624 61.6098 51.0289 61.5373 51.2401C64.0315 47.3231 63.476 43.0566 61.5167 39.0185C59.6838 35.2431 56.8205 32.1998 54.2415 28.9472C54.1242 29.0583 53.9409 29.1169 53.7506 29.0321L53.765 29.0447Z" fill="#F7B4CB"/>
<path id="Vector_3" d="M55.0548 55.0505C57.7941 55.2663 59.9372 53.6554 61.396 51.4776C61.3104 51.535 61.2002 51.5506 61.0614 51.5058C60.5872 51.3561 60.1191 51.2169 59.6468 51.0943C58.4598 52.8384 56.621 53.856 54.1001 53.1397C52.3705 52.6464 51.002 51.7162 49.9246 50.5165C49.7312 50.5459 49.5317 50.5649 49.3383 50.5943C48.8017 50.685 48.5662 49.8542 49.109 49.774C49.1651 49.762 49.2275 49.7605 49.2919 49.7507C48.6436 48.8747 48.1208 47.8898 47.7025 46.8435C47.3783 46.8655 47.0563 46.8792 46.73 46.9095C46.1771 46.9606 46.1703 46.1008 46.7127 46.0558C46.9393 46.035 47.1615 46.0308 47.3881 46.01C47.0198 44.9413 46.7432 43.8257 46.5395 42.7024C46.4376 42.7202 46.3317 42.7193 46.2214 42.7349C45.6787 42.8151 45.4494 41.9948 45.9921 41.9146C46.1293 41.8971 46.2644 41.888 46.3933 41.8684C46.2426 40.8473 46.1438 39.8309 46.0882 38.8523C45.8184 38.8353 45.5468 38.7914 45.265 38.7182C44.7346 38.5805 44.9498 37.7518 45.4801 37.8895C45.6708 37.9389 45.8574 37.9697 46.0523 38.0026C46.0419 37.7699 46.0316 37.5372 46.0274 37.315C46.0113 36.5589 46.0119 35.8072 46.0146 35.0471C45.8899 35.0501 45.7613 35.0344 45.6284 35.0353C45.078 35.0428 45.063 34.1808 45.6112 34.1816C45.7441 34.1808 45.8832 34.1903 46.0139 34.1977C46.0299 33.3526 46.0541 32.5097 46.0866 31.6689C45.7879 31.6268 45.4914 31.5763 45.1931 31.4989C44.6627 31.3612 44.8778 30.5325 45.4082 30.6702C45.6485 30.7325 45.891 30.7867 46.1295 30.822C46.1734 29.8692 46.236 28.9124 46.3131 27.9682C46.0657 28.0013 45.8182 28.0343 45.5665 28.084C45.0256 28.1913 44.7963 27.371 45.3372 27.2637C45.6825 27.1941 46.0319 27.1433 46.3812 27.0924C46.3858 27.0406 46.3905 26.9887 46.3972 26.9285C46.5045 25.6295 46.4168 23.3775 46.8554 21.7222C48.1493 23.5531 49.441 25.3922 50.7558 27.2108C51.6908 27.3916 52.6186 27.6679 53.529 28.0458C53.3053 27.7488 53.0795 27.4602 52.8579 27.155C51.0488 24.6508 49.2524 22.1322 47.4559 19.6135C47.3924 19.5174 47.3163 19.4357 47.2171 19.3746C47.0109 19.2149 46.7767 19.163 46.5459 19.2003C46.5459 19.2003 46.5376 19.1982 46.5293 19.196C46.4461 19.2098 46.3752 19.2445 46.296 19.277C46.2668 19.2871 46.2293 19.2951 46.2063 19.3157C46.0184 19.4261 45.8695 19.5909 45.8117 19.7794C44.6781 21.5904 44.8492 24.9521 44.6776 26.9421C44.2715 31.6754 44.0492 36.5184 44.5173 41.2575C45.0628 46.8571 48.5322 54.5515 55.0505 55.0671L55.0548 55.0505Z" fill="#F7B4CB"/>
<path id="Vector_4" d="M105.186 119.787C105.371 120.304 104.55 120.533 104.366 120.017C104.188 119.51 104.018 119.006 103.85 118.494C102.958 117.67 102.069 116.837 101.19 115.999C101.187 116.007 101.202 116.02 101.2 116.028C101.413 116.534 100.585 116.762 100.379 116.257C100.156 115.721 99.9592 115.184 99.7709 114.648C97.7326 112.686 95.7343 110.673 93.7673 108.64C94.288 109.395 93.201 110.413 92.4556 109.706C91.0759 108.411 90.1282 106.882 89.4868 105.229C89.4343 105.295 89.3818 105.361 89.3066 105.412C89.1039 105.546 88.9117 105.673 88.7174 105.808C96.9195 114.66 105.718 122.951 115.194 130.373C115.697 130.274 116.201 130.175 116.7 130.057C116.898 130.011 117.074 130.048 117.225 130.113C117.086 129.9 116.949 129.679 116.812 129.458C112.807 126.348 108.926 123.067 105.156 119.665C105.173 119.704 105.178 119.75 105.195 119.79L105.186 119.787Z" fill="#F7B4CB"/>
<path id="Vector_5" d="M72.6847 86.9791C77.4027 92.9984 82.342 98.8806 87.5243 104.543C87.8252 104.338 88.1239 104.141 88.4144 103.942C88.617 103.809 88.8166 103.79 88.9927 103.827C88.9667 103.723 88.9302 103.625 88.9041 103.521C83.6581 97.7981 78.6549 91.8551 73.8835 85.7688C73.206 84.9029 72.0029 86.1298 72.6742 86.9853L72.6847 86.9791Z" fill="#F7B4CB"/>
<path id="Vector_6" d="M115.758 83.9369C115.797 84.2301 115.817 84.5272 115.846 84.8265C116.794 94.5292 112.211 103.733 112.394 113.458C112.5 119.147 113.889 124.7 116.795 129.453C116.932 129.675 117.072 129.888 117.209 130.109C117.058 130.043 116.882 130.006 116.684 130.052C116.184 130.17 115.681 130.27 115.177 130.369C110.474 131.28 105.765 131.358 101.004 130.582C100.938 130.565 100.879 130.585 100.817 130.586C99.9238 130.62 99.6026 131.925 100.454 132.19C100.495 132.201 100.524 132.226 100.574 132.239C101.414 132.378 102.245 132.479 103.079 132.571C102.882 134.387 102.594 136.178 102.21 137.963C102.202 137.996 102.191 138.037 102.183 138.071C102.072 138.564 102.76 138.778 102.967 138.389C102.975 138.356 103.001 138.327 103.011 138.286C103.416 136.418 103.71 134.539 103.918 132.647C104.507 132.694 105.099 132.733 105.684 132.761C105.576 132.804 105.492 132.888 105.453 133.037C104.939 135.018 104.477 137.003 104.045 139.005C104.03 139.063 104.013 139.13 103.998 139.188C103.887 139.716 104.689 139.933 104.822 139.419C104.822 139.419 104.824 139.411 104.827 139.403C104.996 138.615 105.179 137.84 105.357 137.055C106.086 136.359 106.846 135.646 107.639 134.976C107.787 137.031 107.98 139.08 108.184 141.124C108.222 141.523 108.257 141.93 108.304 142.331C108.365 142.878 109.217 142.869 109.157 142.314C109.126 142.058 109.112 141.807 109.081 141.551C108.991 140.67 108.9 139.797 108.818 138.918C109.302 138.451 109.786 137.983 110.272 137.508C110.853 138.543 111.444 139.573 112.024 140.608C112.551 141.541 113.168 142.471 113.483 143.508C113.515 143.622 113.566 143.733 113.596 143.855C113.696 144.288 114.245 144.219 114.393 143.886C114.431 143.807 114.444 143.722 114.427 143.62C114.179 142.494 113.53 141.521 112.974 140.527C112.305 139.354 111.639 138.173 110.97 136.999C110.952 136.968 110.923 136.943 110.894 136.918C111.083 136.737 111.271 136.556 111.462 136.366C111.474 136.422 111.503 136.483 111.55 136.539C114.032 139.687 116.584 142.773 119.189 145.821C119.516 146.197 119.83 146.589 120.149 146.963C120.482 147.35 121.008 146.859 120.812 146.454C120.793 146.423 120.785 146.385 120.759 146.352C117.814 142.942 114.946 139.473 112.149 135.934C112.11 135.88 112.065 135.85 112.019 135.821C112.325 135.529 112.623 135.235 112.929 134.942C112.932 135.032 112.96 135.128 113.034 135.218C117.057 139.827 121.475 144.07 125.847 148.354C126.298 148.798 126.757 149.245 127.208 149.689C127.595 150.073 128.18 149.49 127.822 149.097C127.822 149.097 127.816 149.086 127.81 149.076C126.929 148.21 126.048 147.345 125.158 146.477C125.184 146.377 125.185 146.271 125.126 146.159C125.085 146.077 125.055 145.99 125.022 145.911C125.734 145.007 126.446 144.104 127.159 143.201C128.92 145.684 130.661 148.179 132.368 150.701C132.38 150.722 132.395 150.735 132.399 150.754C132.532 150.956 132.756 150.979 132.935 150.902C133.154 150.808 133.312 150.575 133.14 150.318C131.418 147.783 129.665 145.267 127.898 142.774C127.826 142.675 127.727 142.614 127.625 142.597C127.837 142.325 128.049 142.052 128.262 141.78C128.27 141.782 128.274 141.801 128.288 141.814C132.268 145.226 135.91 148.985 139.219 153.037C139.434 153.297 139.66 153.55 139.866 153.816C140.139 154.161 140.567 153.839 140.562 153.483C140.559 153.394 140.539 153.3 140.465 153.21C139.225 151.65 137.907 150.149 136.571 148.688C137.322 147.803 138.137 146.98 138.994 146.203C139.193 146.016 139.383 145.826 139.588 145.65C140.009 145.29 139.396 144.688 138.983 145.05C138.711 145.28 138.46 145.533 138.202 145.776C137.423 146.494 136.679 147.247 135.991 148.059C133.749 145.655 131.389 143.362 128.886 141.217C128.851 141.181 128.801 141.168 128.762 141.149C128.904 140.974 129.039 140.797 129.182 140.621C129.234 140.555 129.26 140.491 129.269 140.423C129.341 140.043 128.889 139.67 128.602 139.993C128.6 140.001 128.589 140.008 128.579 140.014C127.259 141.688 125.94 143.362 124.629 145.039C123.515 142.14 123.482 138.929 122.489 135.974C122.406 135.713 122.16 135.64 121.949 135.701C121.797 135.573 121.569 135.531 121.376 135.694C120.11 136.754 118.92 137.896 117.792 139.106C117.792 139.106 117.79 139.115 117.788 139.123C116.374 137.65 114.976 136.155 113.634 134.612C113.566 134.533 113.479 134.493 113.4 134.49C114.146 133.763 114.9 133.039 115.644 132.321C115.748 132.225 115.779 132.109 115.771 132C116.154 131.923 116.537 131.845 116.922 131.76C116.988 131.741 117.053 131.732 117.117 131.722C117.561 131.616 117.728 131.279 117.712 130.93C118.535 132.09 119.451 133.195 120.48 134.24C121.165 134.94 122.188 134.064 121.871 133.31C121.835 133.212 121.779 133.118 121.687 133.032C115.585 126.857 113.533 118.168 114.176 109.693C114.686 102.854 117.121 96.3388 117.585 89.5771C117.699 87.9438 117.685 86.2947 117.509 84.6214C117.488 84.3948 117.476 84.1704 117.447 83.9417C117.41 83.6403 117.241 83.4373 117.029 83.3025C116.488 82.9674 115.628 83.1777 115.733 83.9657L115.758 83.9369ZM118.424 139.704C119.473 138.561 120.598 137.5 121.778 136.497C122.67 139.329 122.801 142.335 123.794 145.123C121.974 143.341 120.173 141.556 118.399 139.733C118.401 139.725 118.42 139.721 118.43 139.715L118.424 139.704ZM106.284 133.244C106.344 133.012 106.219 132.847 106.045 132.766C107.063 132.8 108.078 132.807 109.088 132.769C107.89 133.599 106.775 134.557 105.715 135.538C105.896 134.771 106.088 133.998 106.286 133.236L106.284 133.244ZM108.743 137.81C108.651 136.769 108.567 135.73 108.491 134.693C108.482 134.558 108.427 134.464 108.346 134.399C109.139 133.764 109.973 133.175 110.845 132.677C112.082 132.582 113.309 132.423 114.54 132.212C112.604 134.08 110.679 135.942 108.743 137.81Z" fill="#F7B4CB"/>
<path id="Vector_7" d="M61.2849 50.6792C61.0841 50.6005 60.8834 50.5219 60.691 50.4454C60.602 50.4134 60.5209 50.4189 60.4543 50.437C60.3383 50.4069 60.2327 50.3707 60.1167 50.3405C56.5721 49.3761 52.9604 49.1816 49.3024 49.7446C49.2462 49.7565 49.1839 49.758 49.1194 49.7679C48.5745 49.8564 48.8121 50.6788 49.3488 50.5881C49.5422 50.5587 49.7417 50.5398 49.9351 50.5104C53.2183 50.0623 56.4687 50.2516 59.6572 51.0882C60.1296 51.2108 60.5977 51.35 61.0719 51.4996C61.2128 51.5362 61.323 51.5206 61.4065 51.4715C61.4817 51.4203 61.5281 51.3439 61.56 51.2548C61.6243 51.0415 61.5519 50.7751 61.2953 50.6731L61.2849 50.6792Z" fill="#F7B4CB"/>
<path id="Vector_8" d="M60.7151 48.9213C60.9075 48.9978 61.1021 49.066 61.2841 49.1486C61.7847 49.3671 62.2172 48.6213 61.7144 48.4111C61.46 48.3009 61.2095 48.2093 60.9508 48.1156C56.6136 46.3881 52.0596 45.6659 47.3881 46.01C47.1637 46.0225 46.9393 46.035 46.7127 46.0558C46.1682 46.1091 46.175 46.9689 46.73 46.9095C47.0563 46.8792 47.3783 46.8655 47.7025 46.8435C52.1637 46.5598 56.5581 47.2494 60.7129 48.9296L60.7151 48.9213Z" fill="#F7B4CB"/>
<path id="Vector_9" d="M61.3425 45.2096C61.4045 45.2434 61.4687 45.2689 61.5307 45.3027C62.0205 45.5626 62.4447 44.8146 61.961 44.5652C61.7501 44.4574 61.535 44.3662 61.3241 44.2583C56.6577 41.9589 51.5626 41.1404 46.3955 41.8601C46.2583 41.8775 46.1232 41.8867 45.9943 41.9063C45.4515 41.9865 45.687 42.8173 46.2236 42.7266C46.3255 42.7088 46.4336 42.7015 46.5416 42.6942C51.6569 41.9698 56.7452 42.8485 61.3404 45.2179L61.3425 45.2096Z" fill="#F7B4CB"/>
<path id="Vector_10" d="M53.185 39.0139C56.0252 39.5566 58.6181 40.8136 60.9096 42.5496C60.9756 42.6021 61.0336 42.6172 61.1021 42.6261C61.4548 42.6646 61.7113 42.0854 61.3399 41.8121C61.1171 41.6481 60.9026 41.4863 60.6776 41.3306C58.6862 39.9378 56.4941 38.9088 54.111 38.3432C52.9029 38.0561 51.6563 37.8829 50.4128 37.8343C49.0033 37.7779 47.4609 38.1648 46.0566 37.986C45.8678 37.9636 45.6751 37.9224 45.4844 37.8729C44.9541 37.7352 44.7389 38.5639 45.2693 38.7016C45.5511 38.7748 45.8227 38.8188 46.0925 38.8357C46.9247 38.9014 47.7296 38.7654 48.6106 38.711C50.14 38.6126 51.6779 38.72 53.1767 39.0118L53.185 39.0139Z" fill="#F7B4CB"/>
<path id="Vector_11" d="M59.6964 39.1474C60.0287 39.3664 60.3571 39.5666 60.6852 39.8022C61.133 40.1219 61.555 39.3822 61.1155 39.0647C60.3541 38.522 59.5693 38.0352 58.7677 37.5794C54.8834 35.368 50.5494 34.2075 46.0287 34.175C45.8958 34.1759 45.7589 34.158 45.6259 34.1589C45.0755 34.1664 45.0845 35.018 45.6432 35.0126C45.7678 35.0096 45.8964 35.0253 46.0293 35.0244C50.9488 35.0542 55.6127 36.4773 59.7129 39.1517L59.6964 39.1474Z" fill="#F7B4CB"/>
<path id="Vector_12" d="M55.6367 33.5909C55.6781 33.6017 55.7195 33.6124 55.761 33.6232C56.1987 33.6749 56.5283 33.0528 56.067 32.8534C55.5974 32.6519 55.1256 32.4586 54.6456 32.2632C53.4765 31.7917 52.2779 31.3655 51.0317 31.157C49.4039 30.8848 47.7576 31.0589 46.1464 30.791C45.9079 30.7557 45.6654 30.7016 45.4251 30.6392C44.8947 30.5015 44.6795 31.3302 45.2099 31.4679C45.5083 31.5454 45.8048 31.5958 46.1035 31.638C47.2275 31.8059 48.3305 31.7826 49.4969 31.8555C51.6847 31.9811 53.6444 32.7464 55.6471 33.5848L55.6367 33.5909Z" fill="#F7B4CB"/>
<path id="Vector_13" d="M50.7601 27.1942C49.3276 26.9197 47.8701 26.8774 46.3877 27.0676C46.0405 27.1101 45.6911 27.161 45.3436 27.2388C44.8027 27.3461 45.0403 28.1685 45.573 28.0591C45.8247 28.0095 46.0721 27.9764 46.3195 27.9433C48.0829 27.6934 49.8264 27.7922 51.5149 28.2394C52.2773 28.4373 53.0309 28.7037 53.7629 29.053C53.9532 29.1378 54.1343 29.0875 54.2537 28.9681C54.4506 28.7892 54.4952 28.447 54.187 28.305C53.9657 28.2034 53.7484 28.1204 53.525 28.027C52.6146 27.6492 51.6868 27.3729 50.7518 27.1921L50.7601 27.1942Z" fill="#F7B4CB"/>
<path id="Vector_14" d="M92.9856 99.7596C92.1407 100.867 92.2053 102.458 93.3205 103.376L93.4442 103.479C94.4769 104.34 96.2242 104.254 97.0607 103.144C97.9055 102.036 97.841 100.445 96.7257 99.5275L96.6021 99.4246C95.5694 98.5638 93.8221 98.6498 92.9856 99.7596Z" fill="#F7B4CB"/>
<path id="Vector_15" d="M93.7877 87.265C92.9429 88.3726 93.0075 89.9639 94.1227 90.8815L94.2464 90.9844C95.279 91.8451 97.0263 91.7591 97.8629 90.6494C98.7077 89.5418 98.6431 87.9505 97.5279 87.0329L97.4042 86.93C96.3716 86.0693 94.6243 86.1553 93.7877 87.265Z" fill="#F7B4CB"/>
<path id="Vector_16" d="M95.9433 75.7587C95.0985 76.8662 95.163 78.4576 96.2783 79.3752L96.4019 79.478C97.4346 80.3388 99.1819 80.2528 100.018 79.1431C100.863 78.0355 100.799 76.4442 99.6835 75.5266L99.5598 75.4237C98.5271 74.5629 96.7798 74.6489 95.9433 75.7587Z" fill="#F7B4CB"/>
<path id="Vector_17" d="M95.7735 61.6583C94.9287 62.7659 94.9932 64.3572 96.1085 65.2748L96.2321 65.3777C97.2648 66.2385 99.0121 66.1525 99.8486 65.0427C100.693 63.9352 100.629 62.3438 99.5137 61.4262L99.39 61.3234C98.3573 60.4626 96.6101 60.5486 95.7735 61.6583Z" fill="#F7B4CB"/>
<path id="Vector_18" d="M94.5439 94.37C93.4879 95.6439 95.4584 97.2877 96.5145 96.0138C97.5705 94.74 95.6 93.0961 94.5439 94.37Z" fill="#F7B4CB"/>
<path id="Vector_19" d="M95.7475 82.2715C94.6914 83.5454 96.6619 85.1893 97.718 83.9154C98.7741 82.6415 96.8036 80.9977 95.7475 82.2715Z" fill="#F7B4CB"/>
<path id="Vector_20" d="M96.3731 70.0142C95.317 71.2881 97.2875 72.9319 98.3436 71.658C99.3997 70.3842 97.4292 68.7403 96.3731 70.0142Z" fill="#F7B4CB"/>
<path id="Vector_21" d="M97.238 57.9251C98.2941 56.6513 96.3236 55.0074 95.2675 56.2813C94.2114 57.5552 96.182 59.199 97.238 57.9251Z" fill="#F7B4CB"/>
<path id="Vector_22" d="M102.076 88.6647C100.709 93.3166 99.0162 97.9283 98.4575 102.772C97.989 106.826 98.4429 110.836 99.7604 114.655C99.9466 115.198 100.151 115.738 100.369 116.263C100.574 116.768 101.405 116.532 101.189 116.034C101.191 116.026 101.177 116.013 101.179 116.005C99.1875 111.171 98.6772 106.049 99.5979 100.901C100.523 95.7364 102.498 90.8532 103.755 85.7745C105.819 77.4821 105.692 68.8065 103.542 60.5613C103.321 59.7078 103.082 58.8584 102.813 58.0191C102.648 57.4984 101.819 57.7256 101.993 58.2484C102.074 58.517 102.154 58.7856 102.235 59.0543C105.141 68.814 104.957 78.8948 102.076 88.6647Z" fill="#F7B4CB"/>
<path id="Vector_23" d="M105.329 94.702C103.757 98.8848 102.311 103.127 102.175 107.638C102.064 111.334 102.735 114.985 103.84 118.5C103.999 119.01 104.175 119.525 104.356 120.023C104.54 120.54 105.368 120.312 105.176 119.793C105.16 119.754 105.145 119.706 105.138 119.669C103.655 115.462 102.752 111.035 103.084 106.556C103.458 101.434 105.532 96.6829 107.29 91.9202C110.07 84.3798 110.663 76.9526 109.37 69.2571C109.153 67.9801 108.894 66.6923 108.576 65.3977C108.442 64.8586 107.619 65.0962 107.756 65.627C107.854 66.0329 107.944 66.4365 108.033 66.8402C109.008 71.1624 109.533 75.5801 109.237 80.0237C108.888 85.1874 107.138 89.9169 105.336 94.7124L105.329 94.702Z" fill="#F7B4CB"/>
<path id="Vector_24" d="M143.031 154.062C142.504 151.935 141.977 149.808 141.45 147.681C141.315 147.142 140.493 147.379 140.629 147.91C141.13 149.933 141.631 151.956 142.138 153.99C142.164 154.094 142.192 154.19 142.21 154.292C142.322 154.745 142.924 154.645 143.026 154.282C143.044 154.216 143.063 154.141 143.033 154.054L143.031 154.062Z" fill="#F7B4CB"/>
<path id="Vector_25" d="M143.824 154.551C143.556 154.968 144.122 155.513 144.458 155.105C144.536 155.01 144.622 154.918 144.708 154.825C145.728 153.621 146.837 152.52 148.052 151.518C148.146 152.108 148.454 152.763 148.595 153.242C148.863 154.152 149.133 155.054 149.401 155.964C149.359 156.059 149.36 156.157 149.397 156.254C149.427 156.342 149.484 156.428 149.559 156.482C149.559 156.482 149.557 156.491 149.563 156.501C149.683 156.922 150.222 156.858 150.364 156.55C150.389 156.486 150.4 156.409 150.389 156.317C151.489 155.86 152.96 155.853 154.087 155.632C155.021 155.441 155.948 155.213 156.872 154.957C156.577 156.641 156.3 158.321 156.048 160.007C156.028 160.081 156.026 160.16 156.006 160.235C155.929 160.772 156.755 160.996 156.835 160.45C156.853 160.313 156.881 160.17 156.899 160.033C157.151 158.347 157.426 156.676 157.719 155C157.732 154.951 157.724 154.913 157.718 154.868C157.712 154.822 157.698 154.774 157.682 154.734C157.826 154.692 157.975 154.66 158.121 154.609C158.648 154.454 158.421 153.626 157.892 153.789C157.317 153.958 156.736 154.117 156.158 154.268C155.227 154.513 154.293 154.739 153.346 154.909C152.306 155.099 151.16 155.12 150.159 155.497C149.966 154.845 149.772 154.194 149.585 153.552C149.456 153.13 149.335 152.709 149.206 152.286C149.121 151.999 148.897 151.534 148.909 151.183C148.907 151.121 148.906 151.058 148.921 151C148.938 150.934 148.953 150.876 148.951 150.814C149.052 150.734 149.152 150.653 149.253 150.573C149.698 150.255 149.264 149.506 148.817 149.832C148.457 150.093 148.112 150.366 147.776 150.641C146.345 151.791 145.033 153.061 143.86 154.481C143.847 154.495 143.851 154.514 143.83 154.526L143.824 154.551Z" fill="#F7B4CB"/>
<path id="Vector_26" d="M82.6701 109.714C85.3887 111.065 87.203 113.686 87.4393 116.728C87.4843 117.271 88.3441 117.264 88.293 116.711C88.0392 113.531 86.2514 110.741 83.4763 109.198C84.1548 108.799 84.8315 108.373 85.5125 107.93C85.5282 108.041 85.5917 108.137 85.7261 108.198C87.7542 109.211 89.1986 110.94 89.8164 113.126C89.9716 113.653 90.7918 113.423 90.6367 112.896C89.9686 110.529 88.3828 108.596 86.1935 107.488C87.0189 106.933 87.8546 106.371 88.6904 105.81C88.8847 105.674 89.0852 105.55 89.2796 105.414C89.3548 105.363 89.4073 105.297 89.4598 105.231C90.1011 106.884 91.0489 108.412 92.4286 109.708C93.1823 110.417 94.2693 109.399 93.7403 108.642C93.7096 108.59 93.6872 108.54 93.6378 108.492C87.7338 102.952 90.1054 91.6697 91.3565 84.67C92.8741 76.2003 93.906 68.1707 92.6815 59.5641C92.6738 59.4914 92.6557 59.4247 92.6272 59.3643C92.3049 58.4933 90.8173 58.5671 90.968 59.5881C91.0087 59.9083 91.0433 60.218 91.084 60.5382C92.2045 69.852 90.3037 78.4345 89.1067 87.5093C85.9377 85.2005 83.1482 82.486 80.7318 79.3907C80.3931 78.9578 79.7915 79.5712 80.1324 79.9959C82.674 83.2564 85.6307 86.0762 88.9796 88.476C88.879 89.2725 88.7866 90.0712 88.7004 90.8803C88.6524 91.3721 88.6022 91.8721 88.5498 92.3805C81.682 87.7933 76.1939 81.5033 72.5685 74.0692C72.3259 73.5728 71.593 74.0106 71.8274 74.5049C75.5812 82.1935 81.3044 88.6684 88.458 93.3474C88.1702 96.7049 88.0736 100.28 88.9001 103.502C88.9262 103.606 88.9627 103.704 88.9888 103.808C88.8147 103.763 88.613 103.79 88.4104 103.924C88.1117 104.12 87.8108 104.325 87.5203 104.524C84.6492 106.486 81.7596 108.655 78.6233 109.627C52.4984 93.725 42.3238 62.7234 42.2056 33.4656C42.1748 26.2924 42.5198 18.8982 44.0498 11.8117C44.622 9.16493 45.3577 6.56945 46.3067 4.03819C46.5024 3.52285 45.6715 3.31599 45.478 3.82304C43.3928 9.36775 42.3721 15.2419 41.8535 21.1579C41.583 24.2103 41.4516 27.2723 41.3784 30.314C41.1736 38.9741 41.8965 47.707 43.4706 56.2274C46.0446 70.1646 51.5543 83.7316 60.4734 94.8311C65.2605 100.789 71.0086 105.872 77.4785 109.914C75.5353 110.312 73.4928 110.206 71.2979 109.256C71.2648 109.247 71.2399 109.241 71.2068 109.232C70.2439 108.92 69.4589 110.309 70.4456 110.733C71.2482 111.083 72.0352 111.323 72.7958 111.494C76.3957 112.313 79.5633 111.322 82.6228 109.657C82.6394 109.661 82.6434 109.68 82.6599 109.684L82.6701 109.714Z" fill="#F7B4CB"/>
<path id="Vector_27" d="M30.4811 40.7716C31.5891 36.5036 24.9612 34.7742 23.8511 39.0505C22.7409 43.3268 29.3709 45.048 30.4811 40.7716Z" fill="#F7B4CB"/>
<path id="Vector_28" d="M33.6605 33.6357C34.3532 30.9671 30.2095 29.8914 29.5168 32.5599C28.824 35.2285 32.9677 36.3042 33.6605 33.6357Z" fill="#F7B4CB"/>
<path id="Vector_29" d="M142.358 127.757C141.112 132.555 148.569 134.5 149.817 129.693C151.065 124.886 143.606 122.95 142.358 127.757Z" fill="#F7B4CB"/>
<path id="Vector_30" d="M152.502 131.275C151.394 135.543 158.022 137.272 159.132 132.996C160.242 128.72 153.613 126.998 152.502 131.275Z" fill="#F7B4CB"/>
<path id="Vector_31" d="M151.43 123.477C150.878 125.607 154.19 126.476 154.745 124.338C155.301 122.2 151.986 121.339 151.43 123.477Z" fill="#F7B4CB"/>
<path id="Vector_32" d="M102.766 154.189C101.658 158.457 108.286 160.187 109.396 155.91C110.506 151.634 103.876 149.913 102.766 154.189Z" fill="#F7B4CB"/>
<path id="Vector_33" d="M107.28 148.727C107.833 146.597 104.52 145.728 103.965 147.866C103.41 150.004 106.725 150.865 107.28 148.727Z" fill="#F7B4CB"/>
</g>
<defs>
<clipPath id="clip0_934_4044">
<rect width="135.265" height="227.591" fill="white" transform="translate(0 130.925) rotate(-75.447)"/>
</clipPath>
</defs>
</svg>
