<svg width="45" height="79" viewBox="0 0 45 79" fill="none" xmlns="http://www.w3.org/2000/svg">
<path d="M43.8317 38.471C43.5879 37.4231 43.2628 36.3881 42.8651 35.3701C42.1679 33.6037 42.1251 31.7217 42.262 29.8869C42.3646 28.4925 43.4211 26.0631 40.8719 25.7423C40.1448 25.6525 39.3963 25.8236 38.7462 26.1059C36.6034 27.0383 35.3844 29.0486 34.73 30.8663C34.097 32.6285 33.9687 34.5104 34.3707 36.3154C34.7471 38.0006 35.8848 39.6387 35.3972 41.388C34.9994 42.8123 34.2937 44.1639 33.8403 45.5753C33.357 47.068 32.9935 48.5864 32.6214 50.0962C30.8806 44.5959 29.328 39.0527 27.9764 33.4796C27.3263 30.8022 28.6693 28.963 29.9182 26.5122C30.1278 26.1016 30.3588 25.6696 30.8036 25.413C31.6547 24.9254 33.2758 25.845 34.1654 26.0161C35.671 26.3069 37.2663 26.3283 38.7676 26.0032C39.6658 25.8065 40.5511 25.4686 41.1542 24.8912C43.5793 22.5687 39.0285 20.9135 36.9626 20.1992C34.8455 19.4678 32.5957 19.0358 30.3459 18.6723C28.5453 18.3814 26.9285 19.023 25.6924 20.0923C23.5753 21.9186 22.3862 24.2411 21.1758 26.5079C21.0475 24.827 20.9448 23.1376 20.7909 21.4567C20.6198 19.6261 20.5727 17.7698 20.9491 15.952C21.4752 13.3986 22.7455 10.9863 23.3015 8.43714C23.8105 6.12322 23.8276 2.76996 21.0475 1.29863C20.5171 1.01634 19.7173 0.883753 19.1314 1.12755C18.7122 1.30291 18.4684 1.66647 18.2845 2.01719C17.2451 3.96755 17.1083 6.1446 16.8046 8.23184C16.2571 7.90677 15.53 7.70147 14.8585 7.83406C13.8149 8.03509 13.2418 8.93756 12.9124 9.76304C12.2324 11.4696 11.1759 14.8571 10.0382 16.461C10.0211 16.4182 9.99971 16.3755 9.97405 16.3327C8.68236 14.0658 5.59001 13.8306 4.85862 16.461C4.43946 17.9665 4.10157 19.4721 3.56693 20.952C2.90826 22.7826 2.19398 24.6004 1.68072 26.4609C0.735482 29.8826 0.919398 33.2658 1.36422 36.7345C1.66789 39.0869 2.48054 41.4607 2.63024 43.8003C2.79705 46.3709 2.86549 48.9414 3.03229 51.512C3.40868 57.4015 3.12639 63.6076 6.24868 69.0866C8.91332 73.7658 14.7516 77.7178 21.2571 78.0172C25.2476 78.2012 29.2382 77.0078 32.4075 75.0318C40.1448 70.2072 42.7239 61.854 43.4596 54.3434C43.8317 50.541 44.4818 46.666 44.4005 42.8508C44.3706 41.3795 44.1824 39.9081 43.8445 38.4625L43.8317 38.471Z" fill="url(#paint0_radial_1012_2363)"/>
<path d="M6.96296 45.1604C11.2059 45.1604 11.2871 44.2751 11.2871 44.2751C11.2358 42.684 10.7696 41.1228 10.2307 39.5959C9.26833 36.8628 8.22043 34.2281 8.25893 31.3539C8.29742 28.4797 9.1614 25.7338 9.90134 22.9665C10.4488 20.922 11.1374 18.3814 9.97405 16.3412C8.68236 14.0744 5.59001 13.8391 4.85862 16.4696C4.43946 17.9751 4.10157 19.4806 3.56693 20.9605C2.90826 22.7911 2.19398 24.6089 1.68072 26.4695C0.735482 29.8911 0.919398 33.2743 1.36422 36.7431C1.66789 39.0955 2.48054 41.4693 2.63024 43.8089C2.79705 46.3794 2.86548 48.95 3.03229 51.5205C3.40868 57.4101 3.12639 63.6162 6.24868 69.0952C8.91332 73.7743 14.7516 77.7264 21.2571 78.0258C25.2476 78.2097 29.2382 77.0164 32.4075 75.0404C40.1448 70.2158 42.7239 61.8626 43.4596 54.352C43.8317 50.5496 44.4818 46.6745 44.4005 42.8594C44.3449 40.3187 43.8317 37.7867 42.8779 35.3701C42.1807 33.6037 42.138 31.7217 42.2748 29.8869C42.3775 28.4925 43.4339 26.0631 40.8848 25.7423C40.1576 25.6525 39.4091 25.8236 38.759 26.1059C36.6162 27.0383 35.3972 29.0486 34.7428 30.8663C34.1098 32.6285 33.9815 34.5104 34.3835 36.3154C34.7599 38.0006 35.8976 39.6387 35.41 41.388C35.0123 42.8123 34.3066 44.1639 33.8532 45.5753C33.3699 47.068 33.0063 48.5864 32.6342 50.0962C30.8934 44.5959 29.3408 39.0527 27.9893 33.4796C27.3391 30.8022 28.6821 28.963 29.9311 26.5122C30.1406 26.1016 30.3716 25.6696 30.8164 25.413C31.6676 24.9254 33.2886 25.845 34.1782 26.0161C35.6838 26.3069 37.2791 26.3283 38.7804 26.0032C39.6786 25.8065 40.564 25.4686 41.167 24.8912C43.5922 22.5687 39.0413 20.9135 36.9755 20.1992C34.9096 19.4849 32.6085 19.0358 30.3588 18.6723C28.5581 18.3814 26.9414 19.023 25.7053 20.0923C23.5881 21.9186 22.3991 24.2411 21.1886 26.5079C21.0603 24.827 20.9577 23.1376 20.8037 21.4567C20.6326 19.6261 20.5856 17.7698 20.962 15.952C21.488 13.3986 22.7583 10.9863 23.3144 8.43714C23.8233 6.12322 23.8405 2.76996 21.0603 1.29863C20.53 1.01634 19.7301 0.883753 19.1442 1.12755C18.725 1.30291 18.4812 1.66646 18.2973 2.01719C17.2066 4.06593 17.1297 6.20021 16.796 8.38153" fill="url(#paint1_radial_1012_2363)"/>
<path d="M6.96296 45.1604C11.2059 45.1604 11.2871 44.2751 11.2871 44.2751C11.2358 42.684 10.7696 41.1228 10.2307 39.5959C9.26833 36.8628 8.22043 34.2281 8.25893 31.3539C8.29742 28.4797 9.1614 25.7338 9.90134 22.9665C10.4488 20.922 11.1374 18.3814 9.97405 16.3412C8.68236 14.0744 5.59001 13.8391 4.85862 16.4696C4.43946 17.9751 4.10157 19.4806 3.56693 20.9605C2.90826 22.7911 2.19398 24.6089 1.68072 26.4695C0.735482 29.8911 0.919398 33.2743 1.36422 36.7431C1.66789 39.0955 2.48054 41.4693 2.63024 43.8089C2.79705 46.3794 2.86548 48.95 3.03229 51.5205C3.40868 57.4101 3.12639 63.6162 6.24868 69.0952C8.91332 73.7743 14.7516 77.7264 21.2571 78.0258C25.2476 78.2097 29.2382 77.0164 32.4075 75.0404C40.1448 70.2158 42.7239 61.8626 43.4596 54.352C43.8317 50.5496 44.4818 46.6745 44.4005 42.8594C44.3449 40.3187 43.8317 37.7867 42.8779 35.3701C42.1807 33.6037 42.138 31.7217 42.2748 29.8869C42.3775 28.4925 43.4339 26.0631 40.8848 25.7423C40.1576 25.6525 39.4092 25.8236 38.759 26.1059C36.6162 27.0383 35.3972 29.0486 34.7428 30.8663C34.1098 32.6285 33.9815 34.5104 34.3835 36.3154C34.7599 38.0006 35.8976 39.6387 35.4101 41.388C35.0123 42.8123 34.3066 44.1639 33.8532 45.5753C33.3699 47.068 33.0063 48.5864 32.6342 50.0962C30.8934 44.5959 29.3408 39.0527 27.9893 33.4796C27.3391 30.8022 28.6821 28.963 29.9311 26.5122C30.1406 26.1016 30.3716 25.6696 30.8164 25.413C31.6676 24.9254 33.2886 25.845 34.1782 26.0161C35.6838 26.3069 37.2791 26.3283 38.7804 26.0032C39.6786 25.8065 40.564 25.4686 41.167 24.8912C43.5922 22.5687 39.0413 20.9135 36.9755 20.1992C34.9096 19.4849 32.6085 19.0358 30.3588 18.6723C28.5581 18.3814 26.9414 19.023 25.7053 20.0923C23.5881 21.9186 22.3991 24.2411 21.1886 26.5079C21.0603 24.827 20.9577 23.1376 20.8037 21.4567C20.6326 19.6261 20.5856 17.7698 20.962 15.952C21.488 13.3986 22.7583 10.9863 23.3144 8.43714C23.8233 6.12322 23.8405 2.76996 21.0603 1.29863C20.53 1.01634 19.7301 0.883753 19.1442 1.12755C18.725 1.30291 18.4812 1.66646 18.2973 2.01719C17.2067 4.06593 17.1297 6.20021 16.796 8.38153" stroke="#E29B65" stroke-linecap="round" stroke-linejoin="round"/>
<path d="M13.041 44.9253C13.041 44.9253 17.7587 45.152 17.4165 44.2538C15.9922 40.4728 14.5508 36.6576 14.1616 32.7184C13.8109 29.1855 14.3199 25.627 15.3122 22.1839C16.39 18.4542 19.7646 14.6177 18.4644 10.64C18.1735 9.75032 17.5748 8.77086 16.5953 8.30465C16.0863 8.06086 15.2865 7.76574 14.7134 7.87694C13.6697 8.07797 13.2463 9.26701 12.917 10.0968C12.2497 11.7691 11.3516 14.8572 10.2395 16.4996" stroke="#E29B65" stroke-linecap="round" stroke-linejoin="round"/>
<path d="M21.1801 26.5123C21.1801 26.5123 20.9748 32.111 22.2879 34.6516C23.601 37.1923 23.5967 42.7397 23.5967 42.7397C23.5967 42.7397 26.3982 43.1545 27.8567 42.7397" stroke="#E29B65" stroke-linecap="round" stroke-linejoin="round"/>
<path d="M4.59375 26.5123C4.59375 26.5123 7.85719 26.7775 8.95641 26.538L4.59375 26.5123Z" fill="url(#paint2_radial_1012_2363)"/>
<path d="M4.59375 26.5123C4.59375 26.5123 7.85719 26.7775 8.95641 26.538" stroke="#E29B65" stroke-linecap="round" stroke-linejoin="round"/>
<path d="M4.59375 34.7199C4.59375 34.7199 5.84694 35.3487 8.66129 34.7199H4.59375Z" fill="url(#paint3_radial_1012_2363)"/>
<path d="M4.59375 34.7199C4.59375 34.7199 5.84694 35.3487 8.66129 34.7199" stroke="#E29B65" stroke-linecap="round" stroke-linejoin="round"/>
<path d="M11.9111 22.4917C11.9111 22.4917 13.9128 22.851 15.3157 22.1838L11.9111 22.4917Z" fill="url(#paint4_radial_1012_2363)"/>
<path d="M11.9111 22.4917C11.9111 22.4917 13.9128 22.851 15.3157 22.1838" stroke="#E29B65" stroke-linecap="round" stroke-linejoin="round"/>
<path d="M11.0388 32.6755C11.0388 32.6755 12.3733 33.1117 14.1654 32.7182L11.0388 32.6755Z" fill="url(#paint5_radial_1012_2363)"/>
<path d="M11.0388 32.6755C11.0388 32.6755 12.3733 33.1117 14.1654 32.7182" stroke="#E29B65" stroke-linecap="round" stroke-linejoin="round"/>
<path d="M18.7593 15.2293C18.7593 15.2293 19.1913 15.4688 20.1878 15.2293H18.7593Z" fill="url(#paint6_radial_1012_2363)"/>
<path d="M18.7593 15.2293C18.7593 15.2293 19.1913 15.4688 20.1878 15.2293" stroke="#E29B65" stroke-linecap="round" stroke-linejoin="round"/>
<path d="M16.6077 30.5499C16.6077 30.5499 20.1619 30.9049 21.1671 30.5499H16.6077Z" fill="url(#paint7_radial_1012_2363)"/>
<path d="M16.6077 30.5499C16.6077 30.5499 20.1619 30.9049 21.1671 30.5499" stroke="#E29B65" stroke-linecap="round" stroke-linejoin="round"/>
<path d="M17.8096 43.565C17.8096 43.565 19.4178 43.8302 22.7069 43.565H17.8096Z" fill="url(#paint8_radial_1012_2363)"/>
<path d="M17.8096 43.565C17.8096 43.565 19.4178 43.8302 22.7069 43.565" stroke="#E29B65" stroke-linecap="round" stroke-linejoin="round"/>
<path d="M30.9191 25.3062C30.9191 25.3062 29.4948 24.7929 27.8567 22.9367L30.9191 25.3062Z" fill="url(#paint9_radial_1012_2363)"/>
<path d="M30.9191 25.3062C30.9191 25.3062 29.4948 24.7929 27.8567 22.9367" stroke="#E29B65" stroke-linecap="round" stroke-linejoin="round"/>
<path d="M22.707 31.6107C22.707 31.6107 24.5804 32.0555 26.7617 31.6107H22.707Z" fill="url(#paint10_radial_1012_2363)"/>
<path d="M22.707 31.6107C22.707 31.6107 24.5804 32.0555 26.7617 31.6107" stroke="#E29B65" stroke-linecap="round" stroke-linejoin="round"/>
<path d="M35.3499 39.2709C35.3499 39.2709 35.0633 39.9338 38.0102 40.6438L35.3499 39.2709Z" fill="url(#paint11_radial_1012_2363)"/>
<path d="M35.3499 39.2709C35.3499 39.2709 35.0633 39.9338 38.0102 40.6438" stroke="#E29B65" stroke-linecap="round" stroke-linejoin="round"/>
<path d="M39.9778 54.1038C39.9778 54.1038 42.3131 53.5649 43.6561 52.0636L39.9778 54.1038Z" fill="url(#paint12_radial_1012_2363)"/>
<path d="M39.9778 54.1038C39.9778 54.1038 42.3131 53.5649 43.6561 52.0636" stroke="#E29B65" stroke-linecap="round" stroke-linejoin="round"/>
<path d="M32.6385 50.0962C32.6385 50.0962 22.8353 53.0389 22.1809 64.9977" stroke="#E29B65" stroke-linecap="round" stroke-linejoin="round"/>
<path d="M7.43359 48.2614C9.4695 51.3708 11.3258 54.5744 13.8193 57.47C16.0948 60.109 19.6661 62.6367 19.4352 66.1482" stroke="#E29B65" stroke-linecap="round" stroke-linejoin="round"/>
<defs>
<radialGradient id="paint0_radial_1012_2363" cx="0" cy="0" r="1" gradientUnits="userSpaceOnUse" gradientTransform="translate(22.7038 39.5179) rotate(90) scale(38.5179 21.7038)">
<stop stop-color="#E29B65"/>
<stop offset="0.25" stop-color="#EFD9C8"/>
<stop offset="0.5" stop-color="#E29B65"/>
<stop offset="0.75" stop-color="#EED0BA"/>
<stop offset="1" stop-color="#E29B65"/>
</radialGradient>
<radialGradient id="paint1_radial_1012_2363" cx="0" cy="0" r="1" gradientUnits="userSpaceOnUse" gradientTransform="translate(22.7038 39.5222) rotate(90) scale(38.5222 21.7038)">
<stop stop-color="#E29B65"/>
<stop offset="0.25" stop-color="#EFD9C8"/>
<stop offset="0.5" stop-color="#E29B65"/>
<stop offset="0.75" stop-color="#EED0BA"/>
<stop offset="1" stop-color="#E29B65"/>
</radialGradient>
<radialGradient id="paint2_radial_1012_2363" cx="0" cy="0" r="1" gradientUnits="userSpaceOnUse" gradientTransform="translate(6.77508 26.5752) rotate(90) scale(0.0629234 2.18133)">
<stop stop-color="#E29B65"/>
<stop offset="0.25" stop-color="#EFD9C8"/>
<stop offset="0.5" stop-color="#E29B65"/>
<stop offset="0.75" stop-color="#EED0BA"/>
<stop offset="1" stop-color="#E29B65"/>
</radialGradient>
<radialGradient id="paint3_radial_1012_2363" cx="0" cy="0" r="1" gradientUnits="userSpaceOnUse" gradientTransform="translate(6.62752 34.8597) rotate(90) scale(0.139719 2.03377)">
<stop stop-color="#E29B65"/>
<stop offset="0.25" stop-color="#EFD9C8"/>
<stop offset="0.5" stop-color="#E29B65"/>
<stop offset="0.75" stop-color="#EED0BA"/>
<stop offset="1" stop-color="#E29B65"/>
</radialGradient>
<radialGradient id="paint4_radial_1012_2363" cx="0" cy="0" r="1" gradientUnits="userSpaceOnUse" gradientTransform="translate(13.6134 22.386) rotate(90) scale(0.202274 1.70229)">
<stop stop-color="#E29B65"/>
<stop offset="0.25" stop-color="#EFD9C8"/>
<stop offset="0.5" stop-color="#E29B65"/>
<stop offset="0.75" stop-color="#EED0BA"/>
<stop offset="1" stop-color="#E29B65"/>
</radialGradient>
<radialGradient id="paint5_radial_1012_2363" cx="0" cy="0" r="1" gradientUnits="userSpaceOnUse" gradientTransform="translate(12.6021 32.7791) rotate(90) scale(0.103609 1.56329)">
<stop stop-color="#E29B65"/>
<stop offset="0.25" stop-color="#EFD9C8"/>
<stop offset="0.5" stop-color="#E29B65"/>
<stop offset="0.75" stop-color="#EED0BA"/>
<stop offset="1" stop-color="#E29B65"/>
</radialGradient>
<radialGradient id="paint6_radial_1012_2363" cx="0" cy="0" r="1" gradientUnits="userSpaceOnUse" gradientTransform="translate(19.4736 15.2825) rotate(90) scale(0.0532263 0.714278)">
<stop stop-color="#E29B65"/>
<stop offset="0.25" stop-color="#EFD9C8"/>
<stop offset="0.5" stop-color="#E29B65"/>
<stop offset="0.75" stop-color="#EED0BA"/>
<stop offset="1" stop-color="#E29B65"/>
</radialGradient>
<radialGradient id="paint7_radial_1012_2363" cx="0" cy="0" r="1" gradientUnits="userSpaceOnUse" gradientTransform="translate(18.8874 30.6288) rotate(90) scale(0.078889 2.2797)">
<stop stop-color="#E29B65"/>
<stop offset="0.25" stop-color="#EFD9C8"/>
<stop offset="0.5" stop-color="#E29B65"/>
<stop offset="0.75" stop-color="#EED0BA"/>
<stop offset="1" stop-color="#E29B65"/>
</radialGradient>
<radialGradient id="paint8_radial_1012_2363" cx="0" cy="0" r="1" gradientUnits="userSpaceOnUse" gradientTransform="translate(20.2582 43.624) rotate(90) scale(0.0589291 2.44865)">
<stop stop-color="#E29B65"/>
<stop offset="0.25" stop-color="#EFD9C8"/>
<stop offset="0.5" stop-color="#E29B65"/>
<stop offset="0.75" stop-color="#EED0BA"/>
<stop offset="1" stop-color="#E29B65"/>
</radialGradient>
<radialGradient id="paint9_radial_1012_2363" cx="0" cy="0" r="1" gradientUnits="userSpaceOnUse" gradientTransform="translate(29.3879 24.1214) rotate(90) scale(1.18476 1.53121)">
<stop stop-color="#E29B65"/>
<stop offset="0.25" stop-color="#EFD9C8"/>
<stop offset="0.5" stop-color="#E29B65"/>
<stop offset="0.75" stop-color="#EED0BA"/>
<stop offset="1" stop-color="#E29B65"/>
</radialGradient>
<radialGradient id="paint10_radial_1012_2363" cx="0" cy="0" r="1" gradientUnits="userSpaceOnUse" gradientTransform="translate(24.7344 31.7095) rotate(90) scale(0.0988489 2.02735)">
<stop stop-color="#E29B65"/>
<stop offset="0.25" stop-color="#EFD9C8"/>
<stop offset="0.5" stop-color="#E29B65"/>
<stop offset="0.75" stop-color="#EED0BA"/>
<stop offset="1" stop-color="#E29B65"/>
</radialGradient>
<radialGradient id="paint11_radial_1012_2363" cx="0" cy="0" r="1" gradientUnits="userSpaceOnUse" gradientTransform="translate(36.6763 39.9574) rotate(90) scale(0.686478 1.33398)">
<stop stop-color="#E29B65"/>
<stop offset="0.25" stop-color="#EFD9C8"/>
<stop offset="0.5" stop-color="#E29B65"/>
<stop offset="0.75" stop-color="#EED0BA"/>
<stop offset="1" stop-color="#E29B65"/>
</radialGradient>
<radialGradient id="paint12_radial_1012_2363" cx="0" cy="0" r="1" gradientUnits="userSpaceOnUse" gradientTransform="translate(41.8169 53.0837) rotate(90) scale(1.02009 1.83916)">
<stop stop-color="#E29B65"/>
<stop offset="0.25" stop-color="#EFD9C8"/>
<stop offset="0.5" stop-color="#E29B65"/>
<stop offset="0.75" stop-color="#EED0BA"/>
<stop offset="1" stop-color="#E29B65"/>
</radialGradient>
</defs>
</svg>
