<svg width="61" height="52" viewBox="0 0 61 52" fill="none" xmlns="http://www.w3.org/2000/svg">
<path d="M37.3589 51.5617H26.9424L26.7709 51.3259C25.9779 50.2543 24.9062 49.4827 23.6631 49.054C20.9411 48.1538 15.9043 46.4606 4.67332 43.9315C2.55144 43.4599 1.02969 41.5953 0.965386 39.4091L0.000894431 5.00887C-0.0205387 4.13011 0.343825 3.29422 1.02969 2.73696C1.69411 2.15827 2.59431 1.94393 3.45163 2.1154L5.31632 2.54406L5.18772 3.10132C5.10198 3.46569 5.05912 3.76575 5.05912 4.04438L5.85214 37.0086C5.89501 38.6589 7.5668 39.2591 8.55272 39.4734C15.69 41.0594 29.6429 46.0534 31.4433 46.7178C42.0742 43.0956 47.1967 41.1237 52.0192 39.1519C54.1839 38.2517 55.1055 37.18 55.1055 35.5726V4.64451C55.1055 4.43018 55.0841 4.19441 55.0412 3.93722L54.9341 3.40139L55.92 3.16562L56.9702 2.67266C57.6775 2.35116 58.4705 2.41546 59.135 2.82269C59.778 3.22992 60.1637 3.95865 60.1637 4.70881V39.9235C60.1637 41.9811 58.7706 43.8029 56.7773 44.3816C55.3199 44.7888 54.0339 45.2389 52.5335 45.7533C49.8544 46.6749 46.4894 47.8109 40.7668 49.2255C39.4808 49.547 38.3448 50.2971 37.5518 51.3259L37.3803 51.5402L37.3589 51.5617ZM27.5211 50.4043H36.8016C37.7447 49.2898 39.0521 48.4753 40.4881 48.1109C46.1679 46.6964 49.3614 45.6033 52.1692 44.6602C53.6052 44.1672 54.9769 43.7172 56.4558 43.2885C57.9561 42.8598 59.0064 41.4881 59.0064 39.9449V4.73024C59.0064 4.34445 58.8135 4.00152 58.492 3.80862C58.1705 3.59429 57.7847 3.57285 57.4417 3.72289L56.22 4.25871C56.22 4.38731 56.22 4.51591 56.22 4.64451V35.5726C56.22 38.3374 54.0553 39.5377 52.4264 40.2235C47.5611 42.2383 42.3742 44.2101 31.5934 47.8966L31.4005 47.9609L31.2076 47.8966C31.0575 47.8323 15.7757 42.2811 8.27409 40.6308C6.02361 40.1378 4.71619 38.8304 4.67332 37.0514L3.90173 4.08725C3.90173 3.87292 3.90173 3.63715 3.94459 3.40139L3.21587 3.25136C2.70147 3.14419 2.16564 3.27279 1.77985 3.61572C1.39405 3.95865 1.15828 4.45161 1.17972 4.96601L2.16564 39.3662C2.20851 41.0166 3.3659 42.4312 4.97339 42.7955C16.2687 45.3246 21.3483 47.0393 24.0703 47.9609C25.442 48.4324 26.6423 49.2683 27.5639 50.4043H27.5211Z" fill="url(#paint0_linear_1012_2358)"/>
<path d="M14.2969 18.4046C12.6037 18.4046 11.2319 19.7763 11.2319 21.4695C11.2319 23.1627 12.6037 24.5345 14.2969 24.5345C15.9901 24.5345 17.3618 23.1627 17.3618 21.4695C17.3618 19.7763 15.9901 18.4046 14.2969 18.4046Z" fill="url(#paint1_linear_1012_2358)"/>
<path d="M52.3408 0.850783C41.1956 -1.16393 31.0577 6.2305 31.0577 6.2305C20.0839 0.207788 12.4108 -0.328041 8.20994 0.122055C6.04519 0.35782 4.43771 2.20107 4.48057 4.38725L5.2736 37.3514C5.31647 39.0447 6.75249 40.0091 8.42427 40.3735C16.0545 42.0667 31.4435 47.6608 31.4435 47.6608C42.3958 43.9314 47.4969 41.9596 52.2336 40.0091C54.0983 39.2376 55.6844 38.123 55.6844 35.894V4.94451C55.6844 2.95123 54.2912 1.19371 52.3408 0.850783ZM14.297 25.6918C11.9822 25.6918 10.0746 23.8057 10.0746 21.4695C10.0746 19.1333 11.9607 17.2471 14.297 17.2471C16.6332 17.2471 18.5193 19.1333 18.5193 21.4695C18.5193 23.8057 16.6332 25.6918 14.297 25.6918ZM26.1709 17.2257C26.0638 17.3972 25.8709 17.4829 25.6994 17.4829C25.5922 17.4829 25.4636 17.44 25.3779 17.3757C16.7403 11.4173 9.90316 14.3751 9.83886 14.418C9.5388 14.5466 9.2173 14.418 9.06727 14.1393C8.93867 13.8393 9.06727 13.5178 9.3459 13.3677C9.64596 13.2391 16.8261 10.0885 26.0209 16.4327C26.2781 16.6041 26.3424 16.9685 26.1709 17.2257ZM27.5212 12.5318C27.414 12.6604 27.2426 12.7462 27.0711 12.7462C26.9425 12.7462 26.8139 12.7033 26.7068 12.6176C19.9339 7.0021 9.0244 9.18828 8.91724 9.20971C8.59574 9.27401 8.29567 9.08111 8.23138 8.75961C8.16708 8.43812 8.35997 8.13805 8.68147 8.07375C9.153 7.96659 20.2339 5.73754 27.4355 11.7388C27.6712 11.9532 27.7141 12.2961 27.5212 12.5533V12.5318ZM50.6047 32.4004C41.1527 30.5786 37.5305 34.6509 37.4876 34.6937C37.3805 34.8223 37.209 34.9081 37.0375 34.9081C36.9089 34.9081 36.7803 34.8652 36.6732 34.7795C36.4374 34.5651 36.3945 34.2222 36.6089 33.965C36.7589 33.7721 40.6383 29.314 50.819 31.2644C51.1405 31.3287 51.3334 31.6288 51.2691 31.9503C51.2048 32.2718 50.9048 32.4647 50.5833 32.4004H50.6047ZM48.6329 25.1345C48.9329 25.2203 49.1044 25.5418 49.0187 25.8633C48.9329 26.1633 48.6114 26.3348 48.2899 26.2491C42.9745 24.5987 37.4019 28.0709 37.3376 28.1138C37.2519 28.1781 37.1447 28.1995 37.0375 28.1995C36.8446 28.1995 36.6517 28.1138 36.5446 27.9209C36.3731 27.6422 36.4588 27.2993 36.716 27.1278C36.9518 26.9778 42.7816 23.3342 48.6114 25.1345H48.6329ZM43.8747 16.3255C43.8747 16.3255 46.4896 15.4682 49.9189 15.8754C50.2404 15.9183 50.4547 16.1969 50.4118 16.5184C50.3689 16.8399 50.0903 17.0542 49.7688 17.0114C46.6181 16.6256 44.2605 17.3972 44.2176 17.3972C44.1533 17.3972 44.089 17.4186 44.0247 17.4186C43.789 17.4186 43.5532 17.2686 43.4675 17.0328C43.3603 16.7327 43.5318 16.4112 43.8318 16.3041L43.8747 16.3255ZM51.2691 10.2814C51.2048 10.5814 50.8833 10.7743 50.5833 10.71C40.1453 8.26665 35.4086 13.3677 35.3657 13.4106C35.2586 13.5392 35.0871 13.6035 34.9371 13.6035C34.8085 13.6035 34.6585 13.5606 34.5513 13.4535C34.3155 13.2391 34.2941 12.8748 34.5084 12.639C34.7227 12.4033 39.6952 6.95923 50.8405 9.57407C51.1405 9.63837 51.3334 9.95987 51.2691 10.2599V10.2814Z" fill="url(#paint2_linear_1012_2358)"/>
<defs>
<linearGradient id="paint0_linear_1012_2358" x1="0.126467" y1="9.81731" x2="61.3177" y2="10.2182" gradientUnits="userSpaceOnUse">
<stop stop-color="#ABADD6"/>
<stop offset="0.25" stop-color="#CDCDDD"/>
<stop offset="0.5" stop-color="#B9BBE2"/>
<stop offset="0.5001" stop-color="#B5B7D7"/>
<stop offset="0.75" stop-color="#CECFDA"/>
<stop offset="1" stop-color="#ABADD6"/>
</linearGradient>
<linearGradient id="paint1_linear_1012_2358" x1="11.2448" y1="19.3654" x2="17.4795" y2="19.399" gradientUnits="userSpaceOnUse">
<stop stop-color="#ABADD6"/>
<stop offset="0.25" stop-color="#CDCDDD"/>
<stop offset="0.5" stop-color="#B9BBE2"/>
<stop offset="0.5001" stop-color="#B5B7D7"/>
<stop offset="0.75" stop-color="#CECFDA"/>
<stop offset="1" stop-color="#ABADD6"/>
</linearGradient>
<linearGradient id="paint2_linear_1012_2358" x1="4.58737" y1="7.47045" x2="56.6669" y2="7.77203" gradientUnits="userSpaceOnUse">
<stop stop-color="#ABADD6"/>
<stop offset="0.25" stop-color="#CDCDDD"/>
<stop offset="0.5" stop-color="#B9BBE2"/>
<stop offset="0.5001" stop-color="#B5B7D7"/>
<stop offset="0.75" stop-color="#CECFDA"/>
<stop offset="1" stop-color="#ABADD6"/>
</linearGradient>
</defs>
</svg>
